%TF.GenerationSoftware,KiCad,Pcbnew,7.0.2-6a45011f42~172~ubuntu22.04.1*%
%TF.CreationDate,2023-05-03T16:23:02+02:00*%
%TF.ProjectId,plate,706c6174-652e-46b6-9963-61645f706362,rev?*%
%TF.SameCoordinates,Original*%
%TF.FileFunction,Soldermask,Top*%
%TF.FilePolarity,Negative*%
%FSLAX46Y46*%
G04 Gerber Fmt 4.6, Leading zero omitted, Abs format (unit mm)*
G04 Created by KiCad (PCBNEW 7.0.2-6a45011f42~172~ubuntu22.04.1) date 2023-05-03 16:23:02*
%MOMM*%
%LPD*%
G01*
G04 APERTURE LIST*
%ADD10C,1.100000*%
%ADD11C,2.200000*%
%ADD12C,0.787400*%
G04 APERTURE END LIST*
D10*
%TO.C,SW24*%
X189289753Y-138398392D02*
X185925105Y-150955428D01*
X186278659Y-151567800D02*
X198835695Y-154932448D01*
X202459161Y-141409486D02*
X189902125Y-138044838D01*
X199448067Y-154578894D02*
X202812715Y-142021858D01*
X189902125Y-138044838D02*
G75*
G03*
X189289753Y-138398392I-129410J-482961D01*
G01*
X185928065Y-150955065D02*
G75*
G03*
X186281617Y-151567436I482960J-129411D01*
G01*
X202812714Y-142021858D02*
G75*
G03*
X202459161Y-141409487I-482962J129409D01*
G01*
X198835695Y-154932447D02*
G75*
G03*
X199448066Y-154578894I129409J482962D01*
G01*
%TO.C,SW8*%
X104918911Y-106813645D02*
X104918911Y-119813645D01*
X105418911Y-120313645D02*
X118418911Y-120313645D01*
X118418911Y-106313645D02*
X105418911Y-106313645D01*
X118918911Y-119813645D02*
X118918911Y-106813645D01*
X105418911Y-106313645D02*
G75*
G03*
X104918911Y-106813645I-2J-499998D01*
G01*
X104921675Y-119812529D02*
G75*
G03*
X105421675Y-120312529I499998J-2D01*
G01*
X118918911Y-106813645D02*
G75*
G03*
X118418911Y-106313645I-500000J0D01*
G01*
X118418911Y-120313645D02*
G75*
G03*
X118918911Y-119813645I0J500000D01*
G01*
%TO.C,SW28*%
X296165603Y-71138690D02*
X296165603Y-84138690D01*
X296665603Y-84638690D02*
X309665603Y-84638690D01*
X309665603Y-70638690D02*
X296665603Y-70638690D01*
X310165603Y-84138690D02*
X310165603Y-71138690D01*
X296665603Y-70638690D02*
G75*
G03*
X296165603Y-71138690I-2J-499998D01*
G01*
X296168367Y-84137574D02*
G75*
G03*
X296668367Y-84637574I499998J-2D01*
G01*
X310165603Y-71138690D02*
G75*
G03*
X309665603Y-70638690I-500000J0D01*
G01*
X309665603Y-84638690D02*
G75*
G03*
X310165603Y-84138690I0J500000D01*
G01*
%TO.C,SW47*%
X353315599Y-125863727D02*
X353315599Y-138863727D01*
X353815599Y-139363727D02*
X366815599Y-139363727D01*
X366815599Y-125363727D02*
X353815599Y-125363727D01*
X367315599Y-138863727D02*
X367315599Y-125863727D01*
X353815599Y-125363727D02*
G75*
G03*
X353315599Y-125863727I-2J-499998D01*
G01*
X353318363Y-138862611D02*
G75*
G03*
X353818363Y-139362611I499998J-2D01*
G01*
X367315599Y-125863727D02*
G75*
G03*
X366815599Y-125363727I-500000J0D01*
G01*
X366815599Y-139363727D02*
G75*
G03*
X367315599Y-138863727I0J500000D01*
G01*
%TO.C,SW38*%
X353315599Y-106813706D02*
X353315599Y-119813706D01*
X353815599Y-120313706D02*
X366815599Y-120313706D01*
X366815599Y-106313706D02*
X353815599Y-106313706D01*
X367315599Y-119813706D02*
X367315599Y-106813706D01*
X353815599Y-106313706D02*
G75*
G03*
X353315599Y-106813706I-2J-499998D01*
G01*
X353318363Y-119812590D02*
G75*
G03*
X353818363Y-120312590I499998J-2D01*
G01*
X367315599Y-106813706D02*
G75*
G03*
X366815599Y-106313706I-500000J0D01*
G01*
X366815599Y-120313706D02*
G75*
G03*
X367315599Y-119813706I0J500000D01*
G01*
%TO.C,SW37*%
X334265599Y-106813707D02*
X334265599Y-119813707D01*
X334765599Y-120313707D02*
X347765599Y-120313707D01*
X347765599Y-106313707D02*
X334765599Y-106313707D01*
X348265599Y-119813707D02*
X348265599Y-106813707D01*
X334765599Y-106313707D02*
G75*
G03*
X334265599Y-106813707I-2J-499998D01*
G01*
X334268363Y-119812591D02*
G75*
G03*
X334768363Y-120312591I499998J-2D01*
G01*
X348265599Y-106813707D02*
G75*
G03*
X347765599Y-106313707I-500000J0D01*
G01*
X347765599Y-120313707D02*
G75*
G03*
X348265599Y-119813707I0J500000D01*
G01*
%TO.C,SW50*%
X273815601Y-136988722D02*
X273815601Y-149988722D01*
X274315601Y-150488722D02*
X287315601Y-150488722D01*
X287315601Y-136488722D02*
X274315601Y-136488722D01*
X287815601Y-149988722D02*
X287815601Y-136988722D01*
X274315601Y-136488722D02*
G75*
G03*
X273815601Y-136988722I-2J-499998D01*
G01*
X273818365Y-149987606D02*
G75*
G03*
X274318365Y-150487606I499998J-2D01*
G01*
X287815601Y-136988722D02*
G75*
G03*
X287315601Y-136488722I-500000J0D01*
G01*
X287315601Y-150488722D02*
G75*
G03*
X287815601Y-149988722I0J500000D01*
G01*
%TO.C,SW46*%
X334265600Y-125863723D02*
X334265600Y-138863723D01*
X334765600Y-139363723D02*
X347765600Y-139363723D01*
X347765600Y-125363723D02*
X334765600Y-125363723D01*
X348265600Y-138863723D02*
X348265600Y-125863723D01*
X334765600Y-125363723D02*
G75*
G03*
X334265600Y-125863723I-2J-499998D01*
G01*
X334268364Y-138862607D02*
G75*
G03*
X334768364Y-139362607I499998J-2D01*
G01*
X348265600Y-125863723D02*
G75*
G03*
X347765600Y-125363723I-500000J0D01*
G01*
X347765600Y-139363723D02*
G75*
G03*
X348265600Y-138863723I0J500000D01*
G01*
%TO.C,SW17*%
X143018909Y-109238642D02*
X143018909Y-122238642D01*
X143518909Y-122738642D02*
X156518909Y-122738642D01*
X156518909Y-108738642D02*
X143518909Y-108738642D01*
X157018909Y-122238642D02*
X157018909Y-109238642D01*
X143518909Y-108738642D02*
G75*
G03*
X143018909Y-109238642I-2J-499998D01*
G01*
X143021673Y-122237526D02*
G75*
G03*
X143521673Y-122737526I499998J-2D01*
G01*
X157018909Y-109238642D02*
G75*
G03*
X156518909Y-108738642I-500000J0D01*
G01*
X156518909Y-122738642D02*
G75*
G03*
X157018909Y-122238642I0J500000D01*
G01*
%TO.C,SW33*%
X258065598Y-97313709D02*
X258065598Y-110313709D01*
X258565598Y-110813709D02*
X271565598Y-110813709D01*
X271565598Y-96813709D02*
X258565598Y-96813709D01*
X272065598Y-110313709D02*
X272065598Y-97313709D01*
X258565598Y-96813709D02*
G75*
G03*
X258065598Y-97313709I-2J-499998D01*
G01*
X258068362Y-110312593D02*
G75*
G03*
X258568362Y-110812593I499998J-2D01*
G01*
X272065598Y-97313709D02*
G75*
G03*
X271565598Y-96813709I-500000J0D01*
G01*
X271565598Y-110813709D02*
G75*
G03*
X272065598Y-110313709I0J500000D01*
G01*
%TO.C,SW34*%
X277115599Y-94938709D02*
X277115599Y-107938709D01*
X277615599Y-108438709D02*
X290615599Y-108438709D01*
X290615599Y-94438709D02*
X277615599Y-94438709D01*
X291115599Y-107938709D02*
X291115599Y-94938709D01*
X277615599Y-94438709D02*
G75*
G03*
X277115599Y-94938709I-2J-499998D01*
G01*
X277118363Y-107937593D02*
G75*
G03*
X277618363Y-108437593I499998J-2D01*
G01*
X291115599Y-94938709D02*
G75*
G03*
X290615599Y-94438709I-500000J0D01*
G01*
X290615599Y-108438709D02*
G75*
G03*
X291115599Y-107938709I0J500000D01*
G01*
%TO.C,SW4*%
X143018910Y-71138643D02*
X143018910Y-84138643D01*
X143518910Y-84638643D02*
X156518910Y-84638643D01*
X156518910Y-70638643D02*
X143518910Y-70638643D01*
X157018910Y-84138643D02*
X157018910Y-71138643D01*
X143518910Y-70638643D02*
G75*
G03*
X143018910Y-71138643I-2J-499998D01*
G01*
X143021674Y-84137527D02*
G75*
G03*
X143521674Y-84637527I499998J-2D01*
G01*
X157018910Y-71138643D02*
G75*
G03*
X156518910Y-70638643I-500000J0D01*
G01*
X156518910Y-84638643D02*
G75*
G03*
X157018910Y-84138643I0J500000D01*
G01*
%TO.C,SW16*%
X123968907Y-113988648D02*
X123968907Y-126988648D01*
X124468907Y-127488648D02*
X137468907Y-127488648D01*
X137468907Y-113488648D02*
X124468907Y-113488648D01*
X137968907Y-126988648D02*
X137968907Y-113988648D01*
X124468907Y-113488648D02*
G75*
G03*
X123968907Y-113988648I-2J-499998D01*
G01*
X123971671Y-126987532D02*
G75*
G03*
X124471671Y-127487532I499998J-2D01*
G01*
X137968907Y-113988648D02*
G75*
G03*
X137468907Y-113488648I-500000J0D01*
G01*
X137468907Y-127488648D02*
G75*
G03*
X137968907Y-126988648I0J500000D01*
G01*
%TO.C,SW2*%
X104918911Y-87763644D02*
X104918911Y-100763644D01*
X105418911Y-101263644D02*
X118418911Y-101263644D01*
X118418911Y-87263644D02*
X105418911Y-87263644D01*
X118918911Y-100763644D02*
X118918911Y-87763644D01*
X105418911Y-87263644D02*
G75*
G03*
X104918911Y-87763644I-2J-499998D01*
G01*
X104921675Y-100762528D02*
G75*
G03*
X105421675Y-101262528I499998J-2D01*
G01*
X118918911Y-87763644D02*
G75*
G03*
X118418911Y-87263644I-500000J0D01*
G01*
X118418911Y-101263644D02*
G75*
G03*
X118918911Y-100763644I0J500000D01*
G01*
%TO.C,SW30*%
X334265597Y-87763692D02*
X334265597Y-100763692D01*
X334765597Y-101263692D02*
X347765597Y-101263692D01*
X347765597Y-87263692D02*
X334765597Y-87263692D01*
X348265597Y-100763692D02*
X348265597Y-87763692D01*
X334765597Y-87263692D02*
G75*
G03*
X334265597Y-87763692I-2J-499998D01*
G01*
X334268361Y-100762576D02*
G75*
G03*
X334768361Y-101262576I499998J-2D01*
G01*
X348265597Y-87763692D02*
G75*
G03*
X347765597Y-87263692I-500000J0D01*
G01*
X347765597Y-101263692D02*
G75*
G03*
X348265597Y-100763692I0J500000D01*
G01*
%TO.C,SW18*%
X162068911Y-113988643D02*
X162068911Y-126988643D01*
X162568911Y-127488643D02*
X175568911Y-127488643D01*
X175568911Y-113488643D02*
X162568911Y-113488643D01*
X176068911Y-126988643D02*
X176068911Y-113988643D01*
X162568911Y-113488643D02*
G75*
G03*
X162068911Y-113988643I-2J-499998D01*
G01*
X162071675Y-126987527D02*
G75*
G03*
X162571675Y-127487527I499998J-2D01*
G01*
X176068911Y-113988643D02*
G75*
G03*
X175568911Y-113488643I-500000J0D01*
G01*
X175568911Y-127488643D02*
G75*
G03*
X176068911Y-126988643I0J500000D01*
G01*
%TO.C,SW1*%
X85868911Y-87763643D02*
X85868911Y-100763643D01*
X86368911Y-101263643D02*
X99368911Y-101263643D01*
X99368911Y-87263643D02*
X86368911Y-87263643D01*
X99868911Y-100763643D02*
X99868911Y-87763643D01*
X86368911Y-87263643D02*
G75*
G03*
X85868911Y-87763643I-2J-499998D01*
G01*
X85871675Y-100762527D02*
G75*
G03*
X86371675Y-101262527I499998J-2D01*
G01*
X99868911Y-87763643D02*
G75*
G03*
X99368911Y-87263643I-500000J0D01*
G01*
X99368911Y-101263643D02*
G75*
G03*
X99868911Y-100763643I0J500000D01*
G01*
%TO.C,SW14*%
X85868907Y-125863645D02*
X85868907Y-138863645D01*
X86368907Y-139363645D02*
X99368907Y-139363645D01*
X99368907Y-125363645D02*
X86368907Y-125363645D01*
X99868907Y-138863645D02*
X99868907Y-125863645D01*
X86368907Y-125363645D02*
G75*
G03*
X85868907Y-125863645I-2J-499998D01*
G01*
X85871671Y-138862529D02*
G75*
G03*
X86371671Y-139362529I499998J-2D01*
G01*
X99868907Y-125863645D02*
G75*
G03*
X99368907Y-125363645I-500000J0D01*
G01*
X99368907Y-139363645D02*
G75*
G03*
X99868907Y-138863645I0J500000D01*
G01*
%TO.C,SW29*%
X315215594Y-75888691D02*
X315215594Y-88888691D01*
X315715594Y-89388691D02*
X328715594Y-89388691D01*
X328715594Y-75388691D02*
X315715594Y-75388691D01*
X329215594Y-88888691D02*
X329215594Y-75888691D01*
X315715594Y-75388691D02*
G75*
G03*
X315215594Y-75888691I-2J-499998D01*
G01*
X315218358Y-88887575D02*
G75*
G03*
X315718358Y-89387575I499998J-2D01*
G01*
X329215594Y-75888691D02*
G75*
G03*
X328715594Y-75388691I-500000J0D01*
G01*
X328715594Y-89388691D02*
G75*
G03*
X329215594Y-88888691I0J500000D01*
G01*
%TO.C,SW31*%
X353315598Y-87763691D02*
X353315598Y-100763691D01*
X353815598Y-101263691D02*
X366815598Y-101263691D01*
X366815598Y-87263691D02*
X353815598Y-87263691D01*
X367315598Y-100763691D02*
X367315598Y-87763691D01*
X353815598Y-87263691D02*
G75*
G03*
X353315598Y-87763691I-2J-499998D01*
G01*
X353318362Y-100762575D02*
G75*
G03*
X353818362Y-101262575I499998J-2D01*
G01*
X367315598Y-87763691D02*
G75*
G03*
X366815598Y-87263691I-500000J0D01*
G01*
X366815598Y-101263691D02*
G75*
G03*
X367315598Y-100763691I0J500000D01*
G01*
%TO.C,SW12*%
X181118910Y-97313647D02*
X181118910Y-110313647D01*
X181618910Y-110813647D02*
X194618910Y-110813647D01*
X194618910Y-96813647D02*
X181618910Y-96813647D01*
X195118910Y-110313647D02*
X195118910Y-97313647D01*
X181618910Y-96813647D02*
G75*
G03*
X181118910Y-97313647I-2J-499998D01*
G01*
X181121674Y-110312531D02*
G75*
G03*
X181621674Y-110812531I499998J-2D01*
G01*
X195118910Y-97313647D02*
G75*
G03*
X194618910Y-96813647I-500000J0D01*
G01*
X194618910Y-110813647D02*
G75*
G03*
X195118910Y-110313647I0J500000D01*
G01*
%TO.C,SW45*%
X315215598Y-113988726D02*
X315215598Y-126988726D01*
X315715598Y-127488726D02*
X328715598Y-127488726D01*
X328715598Y-113488726D02*
X315715598Y-113488726D01*
X329215598Y-126988726D02*
X329215598Y-113988726D01*
X315715598Y-113488726D02*
G75*
G03*
X315215598Y-113988726I-2J-499998D01*
G01*
X315218362Y-126987610D02*
G75*
G03*
X315718362Y-127487610I499998J-2D01*
G01*
X329215598Y-113988726D02*
G75*
G03*
X328715598Y-113488726I-500000J0D01*
G01*
X328715598Y-127488726D02*
G75*
G03*
X329215598Y-126988726I0J500000D01*
G01*
%TO.C,SW42*%
X258065597Y-116363723D02*
X258065597Y-129363723D01*
X258565597Y-129863723D02*
X271565597Y-129863723D01*
X271565597Y-115863723D02*
X258565597Y-115863723D01*
X272065597Y-129363723D02*
X272065597Y-116363723D01*
X258565597Y-115863723D02*
G75*
G03*
X258065597Y-116363723I-2J-499998D01*
G01*
X258068361Y-129362607D02*
G75*
G03*
X258568361Y-129862607I499998J-2D01*
G01*
X272065597Y-116363723D02*
G75*
G03*
X271565597Y-115863723I-500000J0D01*
G01*
X271565597Y-129863723D02*
G75*
G03*
X272065597Y-129363723I0J500000D01*
G01*
%TO.C,SW11*%
X162068911Y-94938643D02*
X162068911Y-107938643D01*
X162568911Y-108438643D02*
X175568911Y-108438643D01*
X175568911Y-94438643D02*
X162568911Y-94438643D01*
X176068911Y-107938643D02*
X176068911Y-94938643D01*
X162568911Y-94438643D02*
G75*
G03*
X162068911Y-94938643I-2J-499998D01*
G01*
X162071675Y-107937527D02*
G75*
G03*
X162571675Y-108437527I499998J-2D01*
G01*
X176068911Y-94938643D02*
G75*
G03*
X175568911Y-94438643I-500000J0D01*
G01*
X175568911Y-108438643D02*
G75*
G03*
X176068911Y-107938643I0J500000D01*
G01*
%TO.C,SW15*%
X104918909Y-125863644D02*
X104918909Y-138863644D01*
X105418909Y-139363644D02*
X118418909Y-139363644D01*
X118418909Y-125363644D02*
X105418909Y-125363644D01*
X118918909Y-138863644D02*
X118918909Y-125863644D01*
X105418909Y-125363644D02*
G75*
G03*
X104918909Y-125863644I-2J-499998D01*
G01*
X104921673Y-138862528D02*
G75*
G03*
X105421673Y-139362528I499998J-2D01*
G01*
X118918909Y-125863644D02*
G75*
G03*
X118418909Y-125363644I-500000J0D01*
G01*
X118418909Y-139363644D02*
G75*
G03*
X118918909Y-138863644I0J500000D01*
G01*
%TO.C,SW35*%
X296165600Y-90188706D02*
X296165600Y-103188706D01*
X296665600Y-103688706D02*
X309665600Y-103688706D01*
X309665600Y-89688706D02*
X296665600Y-89688706D01*
X310165600Y-103188706D02*
X310165600Y-90188706D01*
X296665600Y-89688706D02*
G75*
G03*
X296165600Y-90188706I-2J-499998D01*
G01*
X296168364Y-103187590D02*
G75*
G03*
X296668364Y-103687590I499998J-2D01*
G01*
X310165600Y-90188706D02*
G75*
G03*
X309665600Y-89688706I-500000J0D01*
G01*
X309665600Y-103688706D02*
G75*
G03*
X310165600Y-103188706I0J500000D01*
G01*
%TO.C,SW19*%
X181118909Y-116363643D02*
X181118909Y-129363643D01*
X181618909Y-129863643D02*
X194618909Y-129863643D01*
X194618909Y-115863643D02*
X181618909Y-115863643D01*
X195118909Y-129363643D02*
X195118909Y-116363643D01*
X181618909Y-115863643D02*
G75*
G03*
X181118909Y-116363643I-2J-499998D01*
G01*
X181121673Y-129362527D02*
G75*
G03*
X181621673Y-129862527I499998J-2D01*
G01*
X195118909Y-116363643D02*
G75*
G03*
X194618909Y-115863643I-500000J0D01*
G01*
X194618909Y-129863643D02*
G75*
G03*
X195118909Y-129363643I0J500000D01*
G01*
%TO.C,SW25*%
X212056733Y-145859480D02*
X205556733Y-157117810D01*
X205739746Y-157800823D02*
X216998076Y-164300823D01*
X223998076Y-152176467D02*
X212739746Y-145676467D01*
X217681089Y-164117810D02*
X224181089Y-152859480D01*
X212739745Y-145676468D02*
G75*
G03*
X212056734Y-145859480I-250000J-433009D01*
G01*
X205559686Y-157118226D02*
G75*
G03*
X205742698Y-157801237I433009J-250000D01*
G01*
X224181089Y-152859480D02*
G75*
G03*
X223998076Y-152176467I-433013J250000D01*
G01*
X216998076Y-164300823D02*
G75*
G03*
X217681089Y-164117810I250000J433013D01*
G01*
%TO.C,SW9*%
X123968909Y-94938643D02*
X123968909Y-107938643D01*
X124468909Y-108438643D02*
X137468909Y-108438643D01*
X137468909Y-94438643D02*
X124468909Y-94438643D01*
X137968909Y-107938643D02*
X137968909Y-94938643D01*
X124468909Y-94438643D02*
G75*
G03*
X123968909Y-94938643I-2J-499998D01*
G01*
X123971673Y-107937527D02*
G75*
G03*
X124471673Y-108437527I499998J-2D01*
G01*
X137968909Y-94938643D02*
G75*
G03*
X137468909Y-94438643I-500000J0D01*
G01*
X137468909Y-108438643D02*
G75*
G03*
X137968909Y-107938643I0J500000D01*
G01*
%TO.C,SW48*%
X229003421Y-152859560D02*
X235503421Y-164117890D01*
X236186434Y-164300903D02*
X247444764Y-157800903D01*
X240444764Y-145676547D02*
X229186434Y-152176547D01*
X247627777Y-157117890D02*
X241127777Y-145859560D01*
X229186434Y-152176547D02*
G75*
G03*
X229003421Y-152859560I249997J-433012D01*
G01*
X235505257Y-164115542D02*
G75*
G03*
X236188270Y-164298554I433012J249998D01*
G01*
X241127777Y-145859560D02*
G75*
G03*
X240444764Y-145676547I-433013J-250000D01*
G01*
X247444764Y-157800903D02*
G75*
G03*
X247627777Y-157117890I-250000J433013D01*
G01*
%TO.C,SW43*%
X277115601Y-113988723D02*
X277115601Y-126988723D01*
X277615601Y-127488723D02*
X290615601Y-127488723D01*
X290615601Y-113488723D02*
X277615601Y-113488723D01*
X291115601Y-126988723D02*
X291115601Y-113988723D01*
X277615601Y-113488723D02*
G75*
G03*
X277115601Y-113988723I-2J-499998D01*
G01*
X277118365Y-126987607D02*
G75*
G03*
X277618365Y-127487607I499998J-2D01*
G01*
X291115601Y-113988723D02*
G75*
G03*
X290615601Y-113488723I-500000J0D01*
G01*
X290615601Y-127488723D02*
G75*
G03*
X291115601Y-126988723I0J500000D01*
G01*
%TO.C,SW7*%
X85868911Y-106813642D02*
X85868911Y-119813642D01*
X86368911Y-120313642D02*
X99368911Y-120313642D01*
X99368911Y-106313642D02*
X86368911Y-106313642D01*
X99868911Y-119813642D02*
X99868911Y-106813642D01*
X86368911Y-106313642D02*
G75*
G03*
X85868911Y-106813642I-2J-499998D01*
G01*
X85871675Y-119812526D02*
G75*
G03*
X86371675Y-120312526I499998J-2D01*
G01*
X99868911Y-106813642D02*
G75*
G03*
X99368911Y-106313642I-500000J0D01*
G01*
X99368911Y-120313642D02*
G75*
G03*
X99868911Y-119813642I0J500000D01*
G01*
%TO.C,SW44*%
X296165601Y-109238727D02*
X296165601Y-122238727D01*
X296665601Y-122738727D02*
X309665601Y-122738727D01*
X309665601Y-108738727D02*
X296665601Y-108738727D01*
X310165601Y-122238727D02*
X310165601Y-109238727D01*
X296665601Y-108738727D02*
G75*
G03*
X296165601Y-109238727I-2J-499998D01*
G01*
X296168365Y-122237611D02*
G75*
G03*
X296668365Y-122737611I499998J-2D01*
G01*
X310165601Y-109238727D02*
G75*
G03*
X309665601Y-108738727I-500000J0D01*
G01*
X309665601Y-122738727D02*
G75*
G03*
X310165601Y-122238727I0J500000D01*
G01*
%TO.C,SW10*%
X143018910Y-90188646D02*
X143018910Y-103188646D01*
X143518910Y-103688646D02*
X156518910Y-103688646D01*
X156518910Y-89688646D02*
X143518910Y-89688646D01*
X157018910Y-103188646D02*
X157018910Y-90188646D01*
X143518910Y-89688646D02*
G75*
G03*
X143018910Y-90188646I-2J-499998D01*
G01*
X143021674Y-103187530D02*
G75*
G03*
X143521674Y-103687530I499998J-2D01*
G01*
X157018910Y-90188646D02*
G75*
G03*
X156518910Y-89688646I-500000J0D01*
G01*
X156518910Y-103688646D02*
G75*
G03*
X157018910Y-103188646I0J500000D01*
G01*
%TO.C,SW27*%
X277115600Y-75888691D02*
X277115600Y-88888691D01*
X277615600Y-89388691D02*
X290615600Y-89388691D01*
X290615600Y-75388691D02*
X277615600Y-75388691D01*
X291115600Y-88888691D02*
X291115600Y-75888691D01*
X277615600Y-75388691D02*
G75*
G03*
X277115600Y-75888691I-2J-499998D01*
G01*
X277118364Y-88887575D02*
G75*
G03*
X277618364Y-89387575I499998J-2D01*
G01*
X291115600Y-75888691D02*
G75*
G03*
X290615600Y-75388691I-500000J0D01*
G01*
X290615600Y-89388691D02*
G75*
G03*
X291115600Y-88888691I0J500000D01*
G01*
%TO.C,SW6*%
X181118908Y-78263642D02*
X181118908Y-91263642D01*
X181618908Y-91763642D02*
X194618908Y-91763642D01*
X194618908Y-77763642D02*
X181618908Y-77763642D01*
X195118908Y-91263642D02*
X195118908Y-78263642D01*
X181618908Y-77763642D02*
G75*
G03*
X181118908Y-78263642I-2J-499998D01*
G01*
X181121672Y-91262526D02*
G75*
G03*
X181621672Y-91762526I499998J-2D01*
G01*
X195118908Y-78263642D02*
G75*
G03*
X194618908Y-77763642I-500000J0D01*
G01*
X194618908Y-91763642D02*
G75*
G03*
X195118908Y-91263642I0J500000D01*
G01*
%TO.C,SW36*%
X315215600Y-94938706D02*
X315215600Y-107938706D01*
X315715600Y-108438706D02*
X328715600Y-108438706D01*
X328715600Y-94438706D02*
X315715600Y-94438706D01*
X329215600Y-107938706D02*
X329215600Y-94938706D01*
X315715600Y-94438706D02*
G75*
G03*
X315215600Y-94938706I-2J-499998D01*
G01*
X315218364Y-107937590D02*
G75*
G03*
X315718364Y-108437590I499998J-2D01*
G01*
X329215600Y-94938706D02*
G75*
G03*
X328715600Y-94438706I-500000J0D01*
G01*
X328715600Y-108438706D02*
G75*
G03*
X329215600Y-107938706I0J500000D01*
G01*
%TO.C,SW26*%
X258065599Y-78263691D02*
X258065599Y-91263691D01*
X258565599Y-91763691D02*
X271565599Y-91763691D01*
X271565599Y-77763691D02*
X258565599Y-77763691D01*
X272065599Y-91263691D02*
X272065599Y-78263691D01*
X258565599Y-77763691D02*
G75*
G03*
X258065599Y-78263691I-2J-499998D01*
G01*
X258068363Y-91262575D02*
G75*
G03*
X258568363Y-91762575I499998J-2D01*
G01*
X272065599Y-78263691D02*
G75*
G03*
X271565599Y-77763691I-500000J0D01*
G01*
X271565599Y-91763691D02*
G75*
G03*
X272065599Y-91263691I0J500000D01*
G01*
%TO.C,SW49*%
X250371795Y-142021938D02*
X253736443Y-154578974D01*
X254348815Y-154932528D02*
X266905851Y-151567880D01*
X263282385Y-138044918D02*
X250725349Y-141409566D01*
X267259405Y-150955508D02*
X263894757Y-138398472D01*
X250725349Y-141409566D02*
G75*
G03*
X250371795Y-142021938I129407J-482962D01*
G01*
X253738824Y-154577181D02*
G75*
G03*
X254351196Y-154930733I482961J129407D01*
G01*
X263894756Y-138398472D02*
G75*
G03*
X263282385Y-138044919I-482962J-129409D01*
G01*
X266905851Y-151567879D02*
G75*
G03*
X267259404Y-150955508I-129409J482962D01*
G01*
%TO.C,SW5*%
X162068907Y-75888643D02*
X162068907Y-88888643D01*
X162568907Y-89388643D02*
X175568907Y-89388643D01*
X175568907Y-75388643D02*
X162568907Y-75388643D01*
X176068907Y-88888643D02*
X176068907Y-75888643D01*
X162568907Y-75388643D02*
G75*
G03*
X162068907Y-75888643I-2J-499998D01*
G01*
X162071671Y-88887527D02*
G75*
G03*
X162571671Y-89387527I499998J-2D01*
G01*
X176068907Y-75888643D02*
G75*
G03*
X175568907Y-75388643I-500000J0D01*
G01*
X175568907Y-89388643D02*
G75*
G03*
X176068907Y-88888643I0J500000D01*
G01*
%TO.C,SW23*%
X165368907Y-136988644D02*
X165368907Y-149988644D01*
X165868907Y-150488644D02*
X178868907Y-150488644D01*
X178868907Y-136488644D02*
X165868907Y-136488644D01*
X179368907Y-149988644D02*
X179368907Y-136988644D01*
X165868907Y-136488644D02*
G75*
G03*
X165368907Y-136988644I-2J-499998D01*
G01*
X165371671Y-149987528D02*
G75*
G03*
X165871671Y-150487528I499998J-2D01*
G01*
X179368907Y-136988644D02*
G75*
G03*
X178868907Y-136488644I-500000J0D01*
G01*
X178868907Y-150488644D02*
G75*
G03*
X179368907Y-149988644I0J500000D01*
G01*
%TO.C,SW3*%
X123968909Y-75888644D02*
X123968909Y-88888644D01*
X124468909Y-89388644D02*
X137468909Y-89388644D01*
X137468909Y-75388644D02*
X124468909Y-75388644D01*
X137968909Y-88888644D02*
X137968909Y-75888644D01*
X124468909Y-75388644D02*
G75*
G03*
X123968909Y-75888644I-2J-499998D01*
G01*
X123971673Y-88887528D02*
G75*
G03*
X124471673Y-89387528I499998J-2D01*
G01*
X137968909Y-75888644D02*
G75*
G03*
X137468909Y-75388644I-500000J0D01*
G01*
X137468909Y-89388644D02*
G75*
G03*
X137968909Y-88888644I0J500000D01*
G01*
%TD*%
D11*
%TO.C,H7*%
X350790673Y-93098077D03*
%TD*%
D12*
%TO.C,H15*%
X197900000Y-129910000D03*
X197900000Y-128640000D03*
X197900000Y-127370000D03*
X197900000Y-126100000D03*
X197900000Y-124830000D03*
%TD*%
D11*
%TO.C,H12*%
X293180597Y-110803709D03*
%TD*%
%TO.C,H3*%
X246550600Y-145273723D03*
%TD*%
D12*
%TO.C,H13*%
X197925000Y-88380000D03*
X197925000Y-87110000D03*
X197925000Y-85840000D03*
X197925000Y-84570000D03*
X197925000Y-83300000D03*
%TD*%
D11*
%TO.C,H10*%
X206633910Y-145273640D03*
%TD*%
%TO.C,H2*%
X102213909Y-131083641D03*
%TD*%
%TO.C,H1*%
X102143912Y-88973643D03*
%TD*%
D12*
%TO.C,H16*%
X255325000Y-129930000D03*
X255325000Y-128660000D03*
X255325000Y-127390000D03*
X255325000Y-126120000D03*
X255325000Y-124850000D03*
%TD*%
%TO.C,H14*%
X255350000Y-88360000D03*
X255350000Y-87090000D03*
X255350000Y-85820000D03*
X255350000Y-84550000D03*
X255350000Y-83280000D03*
%TD*%
D11*
%TO.C,H6*%
X160003912Y-110803644D03*
%TD*%
%TO.C,H5*%
X140583909Y-77833643D03*
%TD*%
%TO.C,H11*%
X350546651Y-130938644D03*
%TD*%
%TO.C,H8*%
X312095327Y-87144945D03*
%TD*%
M02*
