%TF.GenerationSoftware,KiCad,Pcbnew,7.0.2-6a45011f42~172~ubuntu22.04.1*%
%TF.CreationDate,2023-05-03T16:22:59+02:00*%
%TF.ProjectId,plate,706c6174-652e-46b6-9963-61645f706362,rev?*%
%TF.SameCoordinates,Original*%
%TF.FileFunction,Drillmap*%
%TF.FilePolarity,Positive*%
%FSLAX45Y45*%
G04 Gerber Fmt 4.5, Leading zero omitted, Abs format (unit mm)*
G04 Created by KiCad (PCBNEW 7.0.2-6a45011f42~172~ubuntu22.04.1) date 2023-05-03 16:22:59*
%MOMM*%
%LPD*%
G01*
G04 APERTURE LIST*
%ADD10C,0.100000*%
%ADD11C,0.200000*%
%ADD12C,0.078740*%
%ADD13C,0.220000*%
G04 APERTURE END LIST*
D10*
X25628722Y-7583400D02*
G75*
G03*
X25569190Y-7642931I-12J-59520D01*
G01*
X19749272Y-12442042D02*
X19808804Y-12442041D01*
X15954407Y-6869024D02*
G75*
G03*
X15894869Y-6809493I-59527J4D01*
G01*
X31209533Y-6809493D02*
X29423594Y-6809493D01*
X33174066Y-8476369D02*
X33174065Y-7345274D01*
X31269062Y-12941216D02*
G75*
G03*
X31328595Y-13000748I59548J17D01*
G01*
X29423594Y-6809492D02*
G75*
G03*
X29364062Y-6869024I-14J-59518D01*
G01*
X25569190Y-7642931D02*
X25569190Y-8274851D01*
X29364062Y-6869024D02*
X29364062Y-7285743D01*
X19689741Y-7583400D02*
X17859402Y-7583400D01*
X29125937Y-15262937D02*
X29125937Y-13000748D01*
X19749272Y-13632668D02*
X19749272Y-13037355D01*
X15954401Y-12524498D02*
X15954401Y-12941216D01*
X33174066Y-7345274D02*
G75*
G03*
X33114534Y-7285743I-59527J5D01*
G01*
X31269064Y-7285743D02*
X31269064Y-6869024D01*
X23470463Y-16733784D02*
G75*
G03*
X23529995Y-16751220I44657J42124D01*
G01*
X31269064Y-12524497D02*
X31269064Y-12941216D01*
X24854815Y-13870793D02*
X22720406Y-15099903D01*
X19749272Y-8893088D02*
X19808804Y-8893088D01*
X12203928Y-7285747D02*
G75*
G03*
X12144397Y-7345275I-9J-59523D01*
G01*
X23529995Y-16751220D02*
X25137340Y-15858250D01*
X36984071Y-8535900D02*
G75*
G03*
X36924537Y-8476369I-59531J0D01*
G01*
X15954402Y-12941216D02*
G75*
G03*
X16013932Y-13000748I59528J-4D01*
G01*
X25509660Y-8036726D02*
X19808803Y-8036725D01*
X19749272Y-8274851D02*
X19749272Y-7642931D01*
X29304531Y-13000742D02*
G75*
G03*
X29364062Y-12941217I-11J59542D01*
G01*
X22720405Y-15099902D02*
G75*
G03*
X22711688Y-15180482I73095J-48668D01*
G01*
X19808803Y-8036725D02*
X19808804Y-8274850D01*
X16192526Y-13000748D02*
X16192526Y-15262937D01*
X16192531Y-15262937D02*
G75*
G03*
X16252057Y-15322469I59539J7D01*
G01*
X17859407Y-7345275D02*
G75*
G03*
X17799871Y-7285743I-59527J5D01*
G01*
X12144397Y-8476369D02*
X8393925Y-8476369D01*
X29364062Y-12941217D02*
X29364062Y-12524497D01*
X31269067Y-6869024D02*
G75*
G03*
X31209533Y-6809493I-59537J-6D01*
G01*
X36924537Y-8476369D02*
X33174066Y-8476369D01*
X14049399Y-7285743D02*
X12203928Y-7285743D01*
X15954401Y-7285744D02*
X15954401Y-6869024D01*
X29125937Y-13000748D02*
X29304531Y-13000748D01*
X14049399Y-12524497D02*
X15954401Y-12524498D01*
X15894869Y-6809493D02*
X14108930Y-6809493D01*
X29364062Y-12524497D02*
X31269064Y-12524497D01*
X19808804Y-13513605D02*
X19808804Y-13037354D01*
X29066406Y-15322467D02*
G75*
G03*
X29125937Y-15262937I4J59527D01*
G01*
X27101873Y-15322469D02*
X29066406Y-15322469D01*
X19749272Y-8274851D02*
X19808804Y-8274850D01*
X21847999Y-16733783D02*
X22606775Y-15180481D01*
X22598057Y-15099903D02*
X20463648Y-13870793D01*
X18216590Y-15322468D02*
X20181123Y-15858250D01*
X17799871Y-7285743D02*
X15954401Y-7285744D01*
X22711688Y-15180482D02*
X23470464Y-16733784D01*
X19749280Y-7642931D02*
G75*
G03*
X19689741Y-7583400I-59530J1D01*
G01*
X25509659Y-8274850D02*
X25509660Y-8036726D01*
X20181123Y-15858250D02*
X21788468Y-16751220D01*
X12084866Y-14191377D02*
G75*
G03*
X12144397Y-14131842I4J59528D01*
G01*
X25137340Y-15858250D02*
X27101873Y-15322469D01*
X22606773Y-15180481D02*
G75*
G03*
X22598056Y-15099903I-81813J31911D01*
G01*
X25509162Y-12442042D02*
X25568693Y-12442041D01*
X14049399Y-6869024D02*
X14049399Y-7285743D01*
X8334394Y-8535901D02*
X8334394Y-14131842D01*
X16013932Y-13000748D02*
X16192526Y-13000748D01*
X8334396Y-14131842D02*
G75*
G03*
X8393926Y-14191374I59524J-8D01*
G01*
X14108930Y-6809489D02*
G75*
G03*
X14049399Y-6869024I10J-59541D01*
G01*
X27459061Y-7583400D02*
X25628722Y-7583399D01*
X12144397Y-13000748D02*
X13989868Y-13000748D01*
X19808804Y-13513605D02*
X25509162Y-13513605D01*
X12144397Y-14131842D02*
X12144397Y-13000748D01*
X8393926Y-14191374D02*
X12084866Y-14191374D01*
X25568693Y-13037354D02*
X25569190Y-13632668D01*
X33233597Y-14191374D02*
X36924537Y-14191374D01*
X31328595Y-13000748D02*
X33174066Y-13000748D01*
X36984069Y-14131843D02*
X36984069Y-8535900D01*
X33174066Y-13000748D02*
X33174066Y-14131843D01*
X25509162Y-13037355D02*
X25568693Y-13037354D01*
X19808804Y-12442041D02*
X19808804Y-8893088D01*
X27459061Y-7345275D02*
X27459061Y-7583400D01*
X20463648Y-13870793D02*
X19749272Y-13632668D01*
X19749272Y-12442042D02*
X19749272Y-8893088D01*
X16252057Y-15322469D02*
X18216590Y-15322468D01*
X27518592Y-7285741D02*
G75*
G03*
X27459061Y-7345275I8J-59539D01*
G01*
X8393925Y-8476374D02*
G75*
G03*
X8334394Y-8535901I5J-59536D01*
G01*
X29364062Y-7285743D02*
X27518592Y-7285743D01*
X25509162Y-13513605D02*
X25509162Y-13037355D01*
X25509162Y-12442042D02*
X25509162Y-8893089D01*
X19749272Y-13037355D02*
X19808804Y-13037354D01*
X25509162Y-8893089D02*
X25568693Y-8893088D01*
X25509659Y-8274850D02*
X25569190Y-8274851D01*
X21788467Y-16751225D02*
G75*
G03*
X21847999Y-16733783I14873J59555D01*
G01*
X17859402Y-7583400D02*
X17859402Y-7345275D01*
X14049399Y-12941217D02*
X14049399Y-12524497D01*
X13989868Y-13000749D02*
G75*
G03*
X14049399Y-12941217I2J59529D01*
G01*
X25569190Y-13632668D02*
X24854815Y-13870793D01*
X12144397Y-7345275D02*
X12144397Y-8476369D01*
X33174066Y-14131843D02*
G75*
G03*
X33233597Y-14191374I59534J3D01*
G01*
X33114534Y-7285743D02*
X31269064Y-7285743D01*
X25568693Y-12442041D02*
X25568693Y-8893088D01*
X36924537Y-14191369D02*
G75*
G03*
X36984069Y-14131843I13J59519D01*
G01*
D11*
D12*
X19750630Y-12443630D02*
X19829370Y-12522370D01*
X19829370Y-12443630D02*
X19750630Y-12522370D01*
X19750630Y-12570630D02*
X19829370Y-12649370D01*
X19829370Y-12570630D02*
X19750630Y-12649370D01*
X19750630Y-12697630D02*
X19829370Y-12776370D01*
X19829370Y-12697630D02*
X19750630Y-12776370D01*
X19750630Y-12824630D02*
X19829370Y-12903370D01*
X19829370Y-12824630D02*
X19750630Y-12903370D01*
X19750630Y-12951630D02*
X19829370Y-13030370D01*
X19829370Y-12951630D02*
X19750630Y-13030370D01*
X19753130Y-8290630D02*
X19831870Y-8369370D01*
X19831870Y-8290630D02*
X19753130Y-8369370D01*
X19753130Y-8417630D02*
X19831870Y-8496370D01*
X19831870Y-8417630D02*
X19753130Y-8496370D01*
X19753130Y-8544630D02*
X19831870Y-8623370D01*
X19831870Y-8544630D02*
X19753130Y-8623370D01*
X19753130Y-8671630D02*
X19831870Y-8750370D01*
X19831870Y-8671630D02*
X19753130Y-8750370D01*
X19753130Y-8798630D02*
X19831870Y-8877370D01*
X19831870Y-8798630D02*
X19753130Y-8877370D01*
X25493130Y-12445630D02*
X25571870Y-12524370D01*
X25571870Y-12445630D02*
X25493130Y-12524370D01*
X25493130Y-12572630D02*
X25571870Y-12651370D01*
X25571870Y-12572630D02*
X25493130Y-12651370D01*
X25493130Y-12699630D02*
X25571870Y-12778370D01*
X25571870Y-12699630D02*
X25493130Y-12778370D01*
X25493130Y-12826630D02*
X25571870Y-12905370D01*
X25571870Y-12826630D02*
X25493130Y-12905370D01*
X25493130Y-12953630D02*
X25571870Y-13032370D01*
X25571870Y-12953630D02*
X25493130Y-13032370D01*
X25495630Y-8288630D02*
X25574370Y-8367370D01*
X25574370Y-8288630D02*
X25495630Y-8367370D01*
X25495630Y-8415630D02*
X25574370Y-8494370D01*
X25574370Y-8415630D02*
X25495630Y-8494370D01*
X25495630Y-8542630D02*
X25574370Y-8621370D01*
X25574370Y-8542630D02*
X25495630Y-8621370D01*
X25495630Y-8669630D02*
X25574370Y-8748370D01*
X25574370Y-8669630D02*
X25495630Y-8748370D01*
X25495630Y-8796630D02*
X25574370Y-8875370D01*
X25574370Y-8796630D02*
X25495630Y-8875370D01*
D13*
X10324391Y-8897364D02*
G75*
G03*
X10324391Y-8897364I-110000J0D01*
G01*
X10331391Y-13108364D02*
G75*
G03*
X10331391Y-13108364I-110000J0D01*
G01*
X14168391Y-7783364D02*
G75*
G03*
X14168391Y-7783364I-110000J0D01*
G01*
X16110391Y-11080364D02*
G75*
G03*
X16110391Y-11080364I-110000J0D01*
G01*
X20773391Y-14527364D02*
G75*
G03*
X20773391Y-14527364I-110000J0D01*
G01*
X24765060Y-14527372D02*
G75*
G03*
X24765060Y-14527372I-110000J0D01*
G01*
X29428060Y-11080371D02*
G75*
G03*
X29428060Y-11080371I-110000J0D01*
G01*
X31319533Y-8714495D02*
G75*
G03*
X31319533Y-8714495I-110000J0D01*
G01*
X35164665Y-13093864D02*
G75*
G03*
X35164665Y-13093864I-110000J0D01*
G01*
X35189067Y-9309808D02*
G75*
G03*
X35189067Y-9309808I-110000J0D01*
G01*
D11*
X8577013Y-17070578D02*
X8577013Y-16870578D01*
X8577013Y-16870578D02*
X8624632Y-16870578D01*
X8624632Y-16870578D02*
X8653204Y-16880102D01*
X8653204Y-16880102D02*
X8672251Y-16899149D01*
X8672251Y-16899149D02*
X8681775Y-16918197D01*
X8681775Y-16918197D02*
X8691299Y-16956292D01*
X8691299Y-16956292D02*
X8691299Y-16984863D01*
X8691299Y-16984863D02*
X8681775Y-17022959D01*
X8681775Y-17022959D02*
X8672251Y-17042006D01*
X8672251Y-17042006D02*
X8653204Y-17061054D01*
X8653204Y-17061054D02*
X8624632Y-17070578D01*
X8624632Y-17070578D02*
X8577013Y-17070578D01*
X8777013Y-17070578D02*
X8777013Y-16937244D01*
X8777013Y-16975340D02*
X8786537Y-16956292D01*
X8786537Y-16956292D02*
X8796061Y-16946768D01*
X8796061Y-16946768D02*
X8815109Y-16937244D01*
X8815109Y-16937244D02*
X8834156Y-16937244D01*
X8900823Y-17070578D02*
X8900823Y-16937244D01*
X8900823Y-16870578D02*
X8891299Y-16880102D01*
X8891299Y-16880102D02*
X8900823Y-16889625D01*
X8900823Y-16889625D02*
X8910347Y-16880102D01*
X8910347Y-16880102D02*
X8900823Y-16870578D01*
X8900823Y-16870578D02*
X8900823Y-16889625D01*
X9024632Y-17070578D02*
X9005585Y-17061054D01*
X9005585Y-17061054D02*
X8996061Y-17042006D01*
X8996061Y-17042006D02*
X8996061Y-16870578D01*
X9129394Y-17070578D02*
X9110347Y-17061054D01*
X9110347Y-17061054D02*
X9100823Y-17042006D01*
X9100823Y-17042006D02*
X9100823Y-16870578D01*
X9357966Y-17070578D02*
X9357966Y-16870578D01*
X9357966Y-16870578D02*
X9424632Y-17013435D01*
X9424632Y-17013435D02*
X9491299Y-16870578D01*
X9491299Y-16870578D02*
X9491299Y-17070578D01*
X9672251Y-17070578D02*
X9672251Y-16965816D01*
X9672251Y-16965816D02*
X9662728Y-16946768D01*
X9662728Y-16946768D02*
X9643680Y-16937244D01*
X9643680Y-16937244D02*
X9605585Y-16937244D01*
X9605585Y-16937244D02*
X9586537Y-16946768D01*
X9672251Y-17061054D02*
X9653204Y-17070578D01*
X9653204Y-17070578D02*
X9605585Y-17070578D01*
X9605585Y-17070578D02*
X9586537Y-17061054D01*
X9586537Y-17061054D02*
X9577013Y-17042006D01*
X9577013Y-17042006D02*
X9577013Y-17022959D01*
X9577013Y-17022959D02*
X9586537Y-17003911D01*
X9586537Y-17003911D02*
X9605585Y-16994387D01*
X9605585Y-16994387D02*
X9653204Y-16994387D01*
X9653204Y-16994387D02*
X9672251Y-16984863D01*
X9767490Y-16937244D02*
X9767490Y-17137244D01*
X9767490Y-16946768D02*
X9786537Y-16937244D01*
X9786537Y-16937244D02*
X9824632Y-16937244D01*
X9824632Y-16937244D02*
X9843680Y-16946768D01*
X9843680Y-16946768D02*
X9853204Y-16956292D01*
X9853204Y-16956292D02*
X9862728Y-16975340D01*
X9862728Y-16975340D02*
X9862728Y-17032482D01*
X9862728Y-17032482D02*
X9853204Y-17051530D01*
X9853204Y-17051530D02*
X9843680Y-17061054D01*
X9843680Y-17061054D02*
X9824632Y-17070578D01*
X9824632Y-17070578D02*
X9786537Y-17070578D01*
X9786537Y-17070578D02*
X9767490Y-17061054D01*
X9948442Y-17051530D02*
X9957966Y-17061054D01*
X9957966Y-17061054D02*
X9948442Y-17070578D01*
X9948442Y-17070578D02*
X9938918Y-17061054D01*
X9938918Y-17061054D02*
X9948442Y-17051530D01*
X9948442Y-17051530D02*
X9948442Y-17070578D01*
X9948442Y-16946768D02*
X9957966Y-16956292D01*
X9957966Y-16956292D02*
X9948442Y-16965816D01*
X9948442Y-16965816D02*
X9938918Y-16956292D01*
X9938918Y-16956292D02*
X9948442Y-16946768D01*
X9948442Y-16946768D02*
X9948442Y-16965816D01*
D12*
X8250654Y-17358684D02*
X8329394Y-17437424D01*
X8329394Y-17358684D02*
X8250654Y-17437424D01*
D11*
X8615109Y-17290578D02*
X8634156Y-17290578D01*
X8634156Y-17290578D02*
X8653204Y-17300102D01*
X8653204Y-17300102D02*
X8662728Y-17309625D01*
X8662728Y-17309625D02*
X8672251Y-17328673D01*
X8672251Y-17328673D02*
X8681775Y-17366768D01*
X8681775Y-17366768D02*
X8681775Y-17414387D01*
X8681775Y-17414387D02*
X8672251Y-17452482D01*
X8672251Y-17452482D02*
X8662728Y-17471530D01*
X8662728Y-17471530D02*
X8653204Y-17481054D01*
X8653204Y-17481054D02*
X8634156Y-17490578D01*
X8634156Y-17490578D02*
X8615109Y-17490578D01*
X8615109Y-17490578D02*
X8596061Y-17481054D01*
X8596061Y-17481054D02*
X8586537Y-17471530D01*
X8586537Y-17471530D02*
X8577013Y-17452482D01*
X8577013Y-17452482D02*
X8567490Y-17414387D01*
X8567490Y-17414387D02*
X8567490Y-17366768D01*
X8567490Y-17366768D02*
X8577013Y-17328673D01*
X8577013Y-17328673D02*
X8586537Y-17309625D01*
X8586537Y-17309625D02*
X8596061Y-17300102D01*
X8596061Y-17300102D02*
X8615109Y-17290578D01*
X8767490Y-17471530D02*
X8777013Y-17481054D01*
X8777013Y-17481054D02*
X8767490Y-17490578D01*
X8767490Y-17490578D02*
X8757966Y-17481054D01*
X8757966Y-17481054D02*
X8767490Y-17471530D01*
X8767490Y-17471530D02*
X8767490Y-17490578D01*
X8843680Y-17290578D02*
X8977013Y-17290578D01*
X8977013Y-17290578D02*
X8891299Y-17490578D01*
X9081775Y-17376292D02*
X9062728Y-17366768D01*
X9062728Y-17366768D02*
X9053204Y-17357244D01*
X9053204Y-17357244D02*
X9043680Y-17338197D01*
X9043680Y-17338197D02*
X9043680Y-17328673D01*
X9043680Y-17328673D02*
X9053204Y-17309625D01*
X9053204Y-17309625D02*
X9062728Y-17300102D01*
X9062728Y-17300102D02*
X9081775Y-17290578D01*
X9081775Y-17290578D02*
X9119871Y-17290578D01*
X9119871Y-17290578D02*
X9138918Y-17300102D01*
X9138918Y-17300102D02*
X9148442Y-17309625D01*
X9148442Y-17309625D02*
X9157966Y-17328673D01*
X9157966Y-17328673D02*
X9157966Y-17338197D01*
X9157966Y-17338197D02*
X9148442Y-17357244D01*
X9148442Y-17357244D02*
X9138918Y-17366768D01*
X9138918Y-17366768D02*
X9119871Y-17376292D01*
X9119871Y-17376292D02*
X9081775Y-17376292D01*
X9081775Y-17376292D02*
X9062728Y-17385816D01*
X9062728Y-17385816D02*
X9053204Y-17395340D01*
X9053204Y-17395340D02*
X9043680Y-17414387D01*
X9043680Y-17414387D02*
X9043680Y-17452482D01*
X9043680Y-17452482D02*
X9053204Y-17471530D01*
X9053204Y-17471530D02*
X9062728Y-17481054D01*
X9062728Y-17481054D02*
X9081775Y-17490578D01*
X9081775Y-17490578D02*
X9119871Y-17490578D01*
X9119871Y-17490578D02*
X9138918Y-17481054D01*
X9138918Y-17481054D02*
X9148442Y-17471530D01*
X9148442Y-17471530D02*
X9157966Y-17452482D01*
X9157966Y-17452482D02*
X9157966Y-17414387D01*
X9157966Y-17414387D02*
X9148442Y-17395340D01*
X9148442Y-17395340D02*
X9138918Y-17385816D01*
X9138918Y-17385816D02*
X9119871Y-17376292D01*
X9224632Y-17290578D02*
X9357966Y-17290578D01*
X9357966Y-17290578D02*
X9272251Y-17490578D01*
X9434156Y-17490578D02*
X9434156Y-17357244D01*
X9434156Y-17376292D02*
X9443680Y-17366768D01*
X9443680Y-17366768D02*
X9462728Y-17357244D01*
X9462728Y-17357244D02*
X9491299Y-17357244D01*
X9491299Y-17357244D02*
X9510347Y-17366768D01*
X9510347Y-17366768D02*
X9519871Y-17385816D01*
X9519871Y-17385816D02*
X9519871Y-17490578D01*
X9519871Y-17385816D02*
X9529394Y-17366768D01*
X9529394Y-17366768D02*
X9548442Y-17357244D01*
X9548442Y-17357244D02*
X9577013Y-17357244D01*
X9577013Y-17357244D02*
X9596061Y-17366768D01*
X9596061Y-17366768D02*
X9605585Y-17385816D01*
X9605585Y-17385816D02*
X9605585Y-17490578D01*
X9700823Y-17490578D02*
X9700823Y-17357244D01*
X9700823Y-17376292D02*
X9710347Y-17366768D01*
X9710347Y-17366768D02*
X9729394Y-17357244D01*
X9729394Y-17357244D02*
X9757966Y-17357244D01*
X9757966Y-17357244D02*
X9777013Y-17366768D01*
X9777013Y-17366768D02*
X9786537Y-17385816D01*
X9786537Y-17385816D02*
X9786537Y-17490578D01*
X9786537Y-17385816D02*
X9796061Y-17366768D01*
X9796061Y-17366768D02*
X9815109Y-17357244D01*
X9815109Y-17357244D02*
X9843680Y-17357244D01*
X9843680Y-17357244D02*
X9862728Y-17366768D01*
X9862728Y-17366768D02*
X9872252Y-17385816D01*
X9872252Y-17385816D02*
X9872252Y-17490578D01*
X10262728Y-17281054D02*
X10091299Y-17538197D01*
X10519871Y-17290578D02*
X10538918Y-17290578D01*
X10538918Y-17290578D02*
X10557966Y-17300102D01*
X10557966Y-17300102D02*
X10567490Y-17309625D01*
X10567490Y-17309625D02*
X10577014Y-17328673D01*
X10577014Y-17328673D02*
X10586537Y-17366768D01*
X10586537Y-17366768D02*
X10586537Y-17414387D01*
X10586537Y-17414387D02*
X10577014Y-17452482D01*
X10577014Y-17452482D02*
X10567490Y-17471530D01*
X10567490Y-17471530D02*
X10557966Y-17481054D01*
X10557966Y-17481054D02*
X10538918Y-17490578D01*
X10538918Y-17490578D02*
X10519871Y-17490578D01*
X10519871Y-17490578D02*
X10500823Y-17481054D01*
X10500823Y-17481054D02*
X10491299Y-17471530D01*
X10491299Y-17471530D02*
X10481775Y-17452482D01*
X10481775Y-17452482D02*
X10472252Y-17414387D01*
X10472252Y-17414387D02*
X10472252Y-17366768D01*
X10472252Y-17366768D02*
X10481775Y-17328673D01*
X10481775Y-17328673D02*
X10491299Y-17309625D01*
X10491299Y-17309625D02*
X10500823Y-17300102D01*
X10500823Y-17300102D02*
X10519871Y-17290578D01*
X10672252Y-17471530D02*
X10681775Y-17481054D01*
X10681775Y-17481054D02*
X10672252Y-17490578D01*
X10672252Y-17490578D02*
X10662728Y-17481054D01*
X10662728Y-17481054D02*
X10672252Y-17471530D01*
X10672252Y-17471530D02*
X10672252Y-17490578D01*
X10805585Y-17290578D02*
X10824633Y-17290578D01*
X10824633Y-17290578D02*
X10843680Y-17300102D01*
X10843680Y-17300102D02*
X10853204Y-17309625D01*
X10853204Y-17309625D02*
X10862728Y-17328673D01*
X10862728Y-17328673D02*
X10872252Y-17366768D01*
X10872252Y-17366768D02*
X10872252Y-17414387D01*
X10872252Y-17414387D02*
X10862728Y-17452482D01*
X10862728Y-17452482D02*
X10853204Y-17471530D01*
X10853204Y-17471530D02*
X10843680Y-17481054D01*
X10843680Y-17481054D02*
X10824633Y-17490578D01*
X10824633Y-17490578D02*
X10805585Y-17490578D01*
X10805585Y-17490578D02*
X10786537Y-17481054D01*
X10786537Y-17481054D02*
X10777014Y-17471530D01*
X10777014Y-17471530D02*
X10767490Y-17452482D01*
X10767490Y-17452482D02*
X10757966Y-17414387D01*
X10757966Y-17414387D02*
X10757966Y-17366768D01*
X10757966Y-17366768D02*
X10767490Y-17328673D01*
X10767490Y-17328673D02*
X10777014Y-17309625D01*
X10777014Y-17309625D02*
X10786537Y-17300102D01*
X10786537Y-17300102D02*
X10805585Y-17290578D01*
X10938918Y-17290578D02*
X11062728Y-17290578D01*
X11062728Y-17290578D02*
X10996061Y-17366768D01*
X10996061Y-17366768D02*
X11024633Y-17366768D01*
X11024633Y-17366768D02*
X11043680Y-17376292D01*
X11043680Y-17376292D02*
X11053204Y-17385816D01*
X11053204Y-17385816D02*
X11062728Y-17404863D01*
X11062728Y-17404863D02*
X11062728Y-17452482D01*
X11062728Y-17452482D02*
X11053204Y-17471530D01*
X11053204Y-17471530D02*
X11043680Y-17481054D01*
X11043680Y-17481054D02*
X11024633Y-17490578D01*
X11024633Y-17490578D02*
X10967490Y-17490578D01*
X10967490Y-17490578D02*
X10948442Y-17481054D01*
X10948442Y-17481054D02*
X10938918Y-17471530D01*
X11253204Y-17490578D02*
X11138918Y-17490578D01*
X11196061Y-17490578D02*
X11196061Y-17290578D01*
X11196061Y-17290578D02*
X11177014Y-17319149D01*
X11177014Y-17319149D02*
X11157966Y-17338197D01*
X11157966Y-17338197D02*
X11138918Y-17347721D01*
X11377013Y-17290578D02*
X11396061Y-17290578D01*
X11396061Y-17290578D02*
X11415109Y-17300102D01*
X11415109Y-17300102D02*
X11424633Y-17309625D01*
X11424633Y-17309625D02*
X11434156Y-17328673D01*
X11434156Y-17328673D02*
X11443680Y-17366768D01*
X11443680Y-17366768D02*
X11443680Y-17414387D01*
X11443680Y-17414387D02*
X11434156Y-17452482D01*
X11434156Y-17452482D02*
X11424633Y-17471530D01*
X11424633Y-17471530D02*
X11415109Y-17481054D01*
X11415109Y-17481054D02*
X11396061Y-17490578D01*
X11396061Y-17490578D02*
X11377013Y-17490578D01*
X11377013Y-17490578D02*
X11357966Y-17481054D01*
X11357966Y-17481054D02*
X11348442Y-17471530D01*
X11348442Y-17471530D02*
X11338918Y-17452482D01*
X11338918Y-17452482D02*
X11329394Y-17414387D01*
X11329394Y-17414387D02*
X11329394Y-17366768D01*
X11329394Y-17366768D02*
X11338918Y-17328673D01*
X11338918Y-17328673D02*
X11348442Y-17309625D01*
X11348442Y-17309625D02*
X11357966Y-17300102D01*
X11357966Y-17300102D02*
X11377013Y-17290578D01*
X11519871Y-17290578D02*
X11519871Y-17328673D01*
X11596061Y-17290578D02*
X11596061Y-17328673D01*
X11891299Y-17566768D02*
X11881775Y-17557244D01*
X11881775Y-17557244D02*
X11862728Y-17528673D01*
X11862728Y-17528673D02*
X11853204Y-17509625D01*
X11853204Y-17509625D02*
X11843680Y-17481054D01*
X11843680Y-17481054D02*
X11834156Y-17433435D01*
X11834156Y-17433435D02*
X11834156Y-17395340D01*
X11834156Y-17395340D02*
X11843680Y-17347721D01*
X11843680Y-17347721D02*
X11853204Y-17319149D01*
X11853204Y-17319149D02*
X11862728Y-17300102D01*
X11862728Y-17300102D02*
X11881775Y-17271530D01*
X11881775Y-17271530D02*
X11891299Y-17262006D01*
X11957966Y-17309625D02*
X11967490Y-17300102D01*
X11967490Y-17300102D02*
X11986537Y-17290578D01*
X11986537Y-17290578D02*
X12034156Y-17290578D01*
X12034156Y-17290578D02*
X12053204Y-17300102D01*
X12053204Y-17300102D02*
X12062728Y-17309625D01*
X12062728Y-17309625D02*
X12072252Y-17328673D01*
X12072252Y-17328673D02*
X12072252Y-17347721D01*
X12072252Y-17347721D02*
X12062728Y-17376292D01*
X12062728Y-17376292D02*
X11948442Y-17490578D01*
X11948442Y-17490578D02*
X12072252Y-17490578D01*
X12196061Y-17290578D02*
X12215109Y-17290578D01*
X12215109Y-17290578D02*
X12234156Y-17300102D01*
X12234156Y-17300102D02*
X12243680Y-17309625D01*
X12243680Y-17309625D02*
X12253204Y-17328673D01*
X12253204Y-17328673D02*
X12262728Y-17366768D01*
X12262728Y-17366768D02*
X12262728Y-17414387D01*
X12262728Y-17414387D02*
X12253204Y-17452482D01*
X12253204Y-17452482D02*
X12243680Y-17471530D01*
X12243680Y-17471530D02*
X12234156Y-17481054D01*
X12234156Y-17481054D02*
X12215109Y-17490578D01*
X12215109Y-17490578D02*
X12196061Y-17490578D01*
X12196061Y-17490578D02*
X12177014Y-17481054D01*
X12177014Y-17481054D02*
X12167490Y-17471530D01*
X12167490Y-17471530D02*
X12157966Y-17452482D01*
X12157966Y-17452482D02*
X12148442Y-17414387D01*
X12148442Y-17414387D02*
X12148442Y-17366768D01*
X12148442Y-17366768D02*
X12157966Y-17328673D01*
X12157966Y-17328673D02*
X12167490Y-17309625D01*
X12167490Y-17309625D02*
X12177014Y-17300102D01*
X12177014Y-17300102D02*
X12196061Y-17290578D01*
X12500823Y-17490578D02*
X12500823Y-17290578D01*
X12586537Y-17490578D02*
X12586537Y-17385816D01*
X12586537Y-17385816D02*
X12577014Y-17366768D01*
X12577014Y-17366768D02*
X12557966Y-17357244D01*
X12557966Y-17357244D02*
X12529395Y-17357244D01*
X12529395Y-17357244D02*
X12510347Y-17366768D01*
X12510347Y-17366768D02*
X12500823Y-17376292D01*
X12710347Y-17490578D02*
X12691299Y-17481054D01*
X12691299Y-17481054D02*
X12681776Y-17471530D01*
X12681776Y-17471530D02*
X12672252Y-17452482D01*
X12672252Y-17452482D02*
X12672252Y-17395340D01*
X12672252Y-17395340D02*
X12681776Y-17376292D01*
X12681776Y-17376292D02*
X12691299Y-17366768D01*
X12691299Y-17366768D02*
X12710347Y-17357244D01*
X12710347Y-17357244D02*
X12738918Y-17357244D01*
X12738918Y-17357244D02*
X12757966Y-17366768D01*
X12757966Y-17366768D02*
X12767490Y-17376292D01*
X12767490Y-17376292D02*
X12777014Y-17395340D01*
X12777014Y-17395340D02*
X12777014Y-17452482D01*
X12777014Y-17452482D02*
X12767490Y-17471530D01*
X12767490Y-17471530D02*
X12757966Y-17481054D01*
X12757966Y-17481054D02*
X12738918Y-17490578D01*
X12738918Y-17490578D02*
X12710347Y-17490578D01*
X12891299Y-17490578D02*
X12872252Y-17481054D01*
X12872252Y-17481054D02*
X12862728Y-17462006D01*
X12862728Y-17462006D02*
X12862728Y-17290578D01*
X13043680Y-17481054D02*
X13024633Y-17490578D01*
X13024633Y-17490578D02*
X12986537Y-17490578D01*
X12986537Y-17490578D02*
X12967490Y-17481054D01*
X12967490Y-17481054D02*
X12957966Y-17462006D01*
X12957966Y-17462006D02*
X12957966Y-17385816D01*
X12957966Y-17385816D02*
X12967490Y-17366768D01*
X12967490Y-17366768D02*
X12986537Y-17357244D01*
X12986537Y-17357244D02*
X13024633Y-17357244D01*
X13024633Y-17357244D02*
X13043680Y-17366768D01*
X13043680Y-17366768D02*
X13053204Y-17385816D01*
X13053204Y-17385816D02*
X13053204Y-17404863D01*
X13053204Y-17404863D02*
X12957966Y-17423911D01*
X13129395Y-17481054D02*
X13148442Y-17490578D01*
X13148442Y-17490578D02*
X13186537Y-17490578D01*
X13186537Y-17490578D02*
X13205585Y-17481054D01*
X13205585Y-17481054D02*
X13215109Y-17462006D01*
X13215109Y-17462006D02*
X13215109Y-17452482D01*
X13215109Y-17452482D02*
X13205585Y-17433435D01*
X13205585Y-17433435D02*
X13186537Y-17423911D01*
X13186537Y-17423911D02*
X13157966Y-17423911D01*
X13157966Y-17423911D02*
X13138918Y-17414387D01*
X13138918Y-17414387D02*
X13129395Y-17395340D01*
X13129395Y-17395340D02*
X13129395Y-17385816D01*
X13129395Y-17385816D02*
X13138918Y-17366768D01*
X13138918Y-17366768D02*
X13157966Y-17357244D01*
X13157966Y-17357244D02*
X13186537Y-17357244D01*
X13186537Y-17357244D02*
X13205585Y-17366768D01*
X13281776Y-17566768D02*
X13291299Y-17557244D01*
X13291299Y-17557244D02*
X13310347Y-17528673D01*
X13310347Y-17528673D02*
X13319871Y-17509625D01*
X13319871Y-17509625D02*
X13329395Y-17481054D01*
X13329395Y-17481054D02*
X13338918Y-17433435D01*
X13338918Y-17433435D02*
X13338918Y-17395340D01*
X13338918Y-17395340D02*
X13329395Y-17347721D01*
X13329395Y-17347721D02*
X13319871Y-17319149D01*
X13319871Y-17319149D02*
X13310347Y-17300102D01*
X13310347Y-17300102D02*
X13291299Y-17271530D01*
X13291299Y-17271530D02*
X13281776Y-17262006D01*
X13643680Y-17566768D02*
X13634157Y-17557244D01*
X13634157Y-17557244D02*
X13615109Y-17528673D01*
X13615109Y-17528673D02*
X13605585Y-17509625D01*
X13605585Y-17509625D02*
X13596061Y-17481054D01*
X13596061Y-17481054D02*
X13586538Y-17433435D01*
X13586538Y-17433435D02*
X13586538Y-17395340D01*
X13586538Y-17395340D02*
X13596061Y-17347721D01*
X13596061Y-17347721D02*
X13605585Y-17319149D01*
X13605585Y-17319149D02*
X13615109Y-17300102D01*
X13615109Y-17300102D02*
X13634157Y-17271530D01*
X13634157Y-17271530D02*
X13643680Y-17262006D01*
X13719871Y-17357244D02*
X13719871Y-17490578D01*
X13719871Y-17376292D02*
X13729395Y-17366768D01*
X13729395Y-17366768D02*
X13748442Y-17357244D01*
X13748442Y-17357244D02*
X13777014Y-17357244D01*
X13777014Y-17357244D02*
X13796061Y-17366768D01*
X13796061Y-17366768D02*
X13805585Y-17385816D01*
X13805585Y-17385816D02*
X13805585Y-17490578D01*
X13929395Y-17490578D02*
X13910347Y-17481054D01*
X13910347Y-17481054D02*
X13900823Y-17471530D01*
X13900823Y-17471530D02*
X13891299Y-17452482D01*
X13891299Y-17452482D02*
X13891299Y-17395340D01*
X13891299Y-17395340D02*
X13900823Y-17376292D01*
X13900823Y-17376292D02*
X13910347Y-17366768D01*
X13910347Y-17366768D02*
X13929395Y-17357244D01*
X13929395Y-17357244D02*
X13957966Y-17357244D01*
X13957966Y-17357244D02*
X13977014Y-17366768D01*
X13977014Y-17366768D02*
X13986538Y-17376292D01*
X13986538Y-17376292D02*
X13996061Y-17395340D01*
X13996061Y-17395340D02*
X13996061Y-17452482D01*
X13996061Y-17452482D02*
X13986538Y-17471530D01*
X13986538Y-17471530D02*
X13977014Y-17481054D01*
X13977014Y-17481054D02*
X13957966Y-17490578D01*
X13957966Y-17490578D02*
X13929395Y-17490578D01*
X14053204Y-17357244D02*
X14129395Y-17357244D01*
X14081776Y-17290578D02*
X14081776Y-17462006D01*
X14081776Y-17462006D02*
X14091299Y-17481054D01*
X14091299Y-17481054D02*
X14110347Y-17490578D01*
X14110347Y-17490578D02*
X14129395Y-17490578D01*
X14348442Y-17357244D02*
X14348442Y-17557244D01*
X14348442Y-17366768D02*
X14367490Y-17357244D01*
X14367490Y-17357244D02*
X14405585Y-17357244D01*
X14405585Y-17357244D02*
X14424633Y-17366768D01*
X14424633Y-17366768D02*
X14434157Y-17376292D01*
X14434157Y-17376292D02*
X14443680Y-17395340D01*
X14443680Y-17395340D02*
X14443680Y-17452482D01*
X14443680Y-17452482D02*
X14434157Y-17471530D01*
X14434157Y-17471530D02*
X14424633Y-17481054D01*
X14424633Y-17481054D02*
X14405585Y-17490578D01*
X14405585Y-17490578D02*
X14367490Y-17490578D01*
X14367490Y-17490578D02*
X14348442Y-17481054D01*
X14557966Y-17490578D02*
X14538919Y-17481054D01*
X14538919Y-17481054D02*
X14529395Y-17462006D01*
X14529395Y-17462006D02*
X14529395Y-17290578D01*
X14719871Y-17490578D02*
X14719871Y-17385816D01*
X14719871Y-17385816D02*
X14710347Y-17366768D01*
X14710347Y-17366768D02*
X14691300Y-17357244D01*
X14691300Y-17357244D02*
X14653204Y-17357244D01*
X14653204Y-17357244D02*
X14634157Y-17366768D01*
X14719871Y-17481054D02*
X14700823Y-17490578D01*
X14700823Y-17490578D02*
X14653204Y-17490578D01*
X14653204Y-17490578D02*
X14634157Y-17481054D01*
X14634157Y-17481054D02*
X14624633Y-17462006D01*
X14624633Y-17462006D02*
X14624633Y-17442959D01*
X14624633Y-17442959D02*
X14634157Y-17423911D01*
X14634157Y-17423911D02*
X14653204Y-17414387D01*
X14653204Y-17414387D02*
X14700823Y-17414387D01*
X14700823Y-17414387D02*
X14719871Y-17404863D01*
X14786538Y-17357244D02*
X14862728Y-17357244D01*
X14815109Y-17290578D02*
X14815109Y-17462006D01*
X14815109Y-17462006D02*
X14824633Y-17481054D01*
X14824633Y-17481054D02*
X14843680Y-17490578D01*
X14843680Y-17490578D02*
X14862728Y-17490578D01*
X15005585Y-17481054D02*
X14986538Y-17490578D01*
X14986538Y-17490578D02*
X14948442Y-17490578D01*
X14948442Y-17490578D02*
X14929395Y-17481054D01*
X14929395Y-17481054D02*
X14919871Y-17462006D01*
X14919871Y-17462006D02*
X14919871Y-17385816D01*
X14919871Y-17385816D02*
X14929395Y-17366768D01*
X14929395Y-17366768D02*
X14948442Y-17357244D01*
X14948442Y-17357244D02*
X14986538Y-17357244D01*
X14986538Y-17357244D02*
X15005585Y-17366768D01*
X15005585Y-17366768D02*
X15015109Y-17385816D01*
X15015109Y-17385816D02*
X15015109Y-17404863D01*
X15015109Y-17404863D02*
X14919871Y-17423911D01*
X15186538Y-17490578D02*
X15186538Y-17290578D01*
X15186538Y-17481054D02*
X15167490Y-17490578D01*
X15167490Y-17490578D02*
X15129395Y-17490578D01*
X15129395Y-17490578D02*
X15110347Y-17481054D01*
X15110347Y-17481054D02*
X15100823Y-17471530D01*
X15100823Y-17471530D02*
X15091300Y-17452482D01*
X15091300Y-17452482D02*
X15091300Y-17395340D01*
X15091300Y-17395340D02*
X15100823Y-17376292D01*
X15100823Y-17376292D02*
X15110347Y-17366768D01*
X15110347Y-17366768D02*
X15129395Y-17357244D01*
X15129395Y-17357244D02*
X15167490Y-17357244D01*
X15167490Y-17357244D02*
X15186538Y-17366768D01*
X15262728Y-17566768D02*
X15272252Y-17557244D01*
X15272252Y-17557244D02*
X15291300Y-17528673D01*
X15291300Y-17528673D02*
X15300823Y-17509625D01*
X15300823Y-17509625D02*
X15310347Y-17481054D01*
X15310347Y-17481054D02*
X15319871Y-17433435D01*
X15319871Y-17433435D02*
X15319871Y-17395340D01*
X15319871Y-17395340D02*
X15310347Y-17347721D01*
X15310347Y-17347721D02*
X15300823Y-17319149D01*
X15300823Y-17319149D02*
X15291300Y-17300102D01*
X15291300Y-17300102D02*
X15272252Y-17271530D01*
X15272252Y-17271530D02*
X15262728Y-17262006D01*
X8329394Y-17662054D02*
G75*
G03*
X8329394Y-17662054I-100000J0D01*
G01*
X8567490Y-17573625D02*
X8577013Y-17564102D01*
X8577013Y-17564102D02*
X8596061Y-17554578D01*
X8596061Y-17554578D02*
X8643680Y-17554578D01*
X8643680Y-17554578D02*
X8662728Y-17564102D01*
X8662728Y-17564102D02*
X8672251Y-17573625D01*
X8672251Y-17573625D02*
X8681775Y-17592673D01*
X8681775Y-17592673D02*
X8681775Y-17611721D01*
X8681775Y-17611721D02*
X8672251Y-17640292D01*
X8672251Y-17640292D02*
X8557966Y-17754578D01*
X8557966Y-17754578D02*
X8681775Y-17754578D01*
X8767490Y-17735530D02*
X8777013Y-17745054D01*
X8777013Y-17745054D02*
X8767490Y-17754578D01*
X8767490Y-17754578D02*
X8757966Y-17745054D01*
X8757966Y-17745054D02*
X8767490Y-17735530D01*
X8767490Y-17735530D02*
X8767490Y-17754578D01*
X8853204Y-17573625D02*
X8862728Y-17564102D01*
X8862728Y-17564102D02*
X8881775Y-17554578D01*
X8881775Y-17554578D02*
X8929394Y-17554578D01*
X8929394Y-17554578D02*
X8948442Y-17564102D01*
X8948442Y-17564102D02*
X8957966Y-17573625D01*
X8957966Y-17573625D02*
X8967490Y-17592673D01*
X8967490Y-17592673D02*
X8967490Y-17611721D01*
X8967490Y-17611721D02*
X8957966Y-17640292D01*
X8957966Y-17640292D02*
X8843680Y-17754578D01*
X8843680Y-17754578D02*
X8967490Y-17754578D01*
X9091299Y-17554578D02*
X9110347Y-17554578D01*
X9110347Y-17554578D02*
X9129394Y-17564102D01*
X9129394Y-17564102D02*
X9138918Y-17573625D01*
X9138918Y-17573625D02*
X9148442Y-17592673D01*
X9148442Y-17592673D02*
X9157966Y-17630768D01*
X9157966Y-17630768D02*
X9157966Y-17678387D01*
X9157966Y-17678387D02*
X9148442Y-17716482D01*
X9148442Y-17716482D02*
X9138918Y-17735530D01*
X9138918Y-17735530D02*
X9129394Y-17745054D01*
X9129394Y-17745054D02*
X9110347Y-17754578D01*
X9110347Y-17754578D02*
X9091299Y-17754578D01*
X9091299Y-17754578D02*
X9072251Y-17745054D01*
X9072251Y-17745054D02*
X9062728Y-17735530D01*
X9062728Y-17735530D02*
X9053204Y-17716482D01*
X9053204Y-17716482D02*
X9043680Y-17678387D01*
X9043680Y-17678387D02*
X9043680Y-17630768D01*
X9043680Y-17630768D02*
X9053204Y-17592673D01*
X9053204Y-17592673D02*
X9062728Y-17573625D01*
X9062728Y-17573625D02*
X9072251Y-17564102D01*
X9072251Y-17564102D02*
X9091299Y-17554578D01*
X9281775Y-17554578D02*
X9300823Y-17554578D01*
X9300823Y-17554578D02*
X9319871Y-17564102D01*
X9319871Y-17564102D02*
X9329394Y-17573625D01*
X9329394Y-17573625D02*
X9338918Y-17592673D01*
X9338918Y-17592673D02*
X9348442Y-17630768D01*
X9348442Y-17630768D02*
X9348442Y-17678387D01*
X9348442Y-17678387D02*
X9338918Y-17716482D01*
X9338918Y-17716482D02*
X9329394Y-17735530D01*
X9329394Y-17735530D02*
X9319871Y-17745054D01*
X9319871Y-17745054D02*
X9300823Y-17754578D01*
X9300823Y-17754578D02*
X9281775Y-17754578D01*
X9281775Y-17754578D02*
X9262728Y-17745054D01*
X9262728Y-17745054D02*
X9253204Y-17735530D01*
X9253204Y-17735530D02*
X9243680Y-17716482D01*
X9243680Y-17716482D02*
X9234156Y-17678387D01*
X9234156Y-17678387D02*
X9234156Y-17630768D01*
X9234156Y-17630768D02*
X9243680Y-17592673D01*
X9243680Y-17592673D02*
X9253204Y-17573625D01*
X9253204Y-17573625D02*
X9262728Y-17564102D01*
X9262728Y-17564102D02*
X9281775Y-17554578D01*
X9434156Y-17754578D02*
X9434156Y-17621244D01*
X9434156Y-17640292D02*
X9443680Y-17630768D01*
X9443680Y-17630768D02*
X9462728Y-17621244D01*
X9462728Y-17621244D02*
X9491299Y-17621244D01*
X9491299Y-17621244D02*
X9510347Y-17630768D01*
X9510347Y-17630768D02*
X9519871Y-17649816D01*
X9519871Y-17649816D02*
X9519871Y-17754578D01*
X9519871Y-17649816D02*
X9529394Y-17630768D01*
X9529394Y-17630768D02*
X9548442Y-17621244D01*
X9548442Y-17621244D02*
X9577013Y-17621244D01*
X9577013Y-17621244D02*
X9596061Y-17630768D01*
X9596061Y-17630768D02*
X9605585Y-17649816D01*
X9605585Y-17649816D02*
X9605585Y-17754578D01*
X9700823Y-17754578D02*
X9700823Y-17621244D01*
X9700823Y-17640292D02*
X9710347Y-17630768D01*
X9710347Y-17630768D02*
X9729394Y-17621244D01*
X9729394Y-17621244D02*
X9757966Y-17621244D01*
X9757966Y-17621244D02*
X9777013Y-17630768D01*
X9777013Y-17630768D02*
X9786537Y-17649816D01*
X9786537Y-17649816D02*
X9786537Y-17754578D01*
X9786537Y-17649816D02*
X9796061Y-17630768D01*
X9796061Y-17630768D02*
X9815109Y-17621244D01*
X9815109Y-17621244D02*
X9843680Y-17621244D01*
X9843680Y-17621244D02*
X9862728Y-17630768D01*
X9862728Y-17630768D02*
X9872252Y-17649816D01*
X9872252Y-17649816D02*
X9872252Y-17754578D01*
X10262728Y-17545054D02*
X10091299Y-17802197D01*
X10519871Y-17554578D02*
X10538918Y-17554578D01*
X10538918Y-17554578D02*
X10557966Y-17564102D01*
X10557966Y-17564102D02*
X10567490Y-17573625D01*
X10567490Y-17573625D02*
X10577014Y-17592673D01*
X10577014Y-17592673D02*
X10586537Y-17630768D01*
X10586537Y-17630768D02*
X10586537Y-17678387D01*
X10586537Y-17678387D02*
X10577014Y-17716482D01*
X10577014Y-17716482D02*
X10567490Y-17735530D01*
X10567490Y-17735530D02*
X10557966Y-17745054D01*
X10557966Y-17745054D02*
X10538918Y-17754578D01*
X10538918Y-17754578D02*
X10519871Y-17754578D01*
X10519871Y-17754578D02*
X10500823Y-17745054D01*
X10500823Y-17745054D02*
X10491299Y-17735530D01*
X10491299Y-17735530D02*
X10481775Y-17716482D01*
X10481775Y-17716482D02*
X10472252Y-17678387D01*
X10472252Y-17678387D02*
X10472252Y-17630768D01*
X10472252Y-17630768D02*
X10481775Y-17592673D01*
X10481775Y-17592673D02*
X10491299Y-17573625D01*
X10491299Y-17573625D02*
X10500823Y-17564102D01*
X10500823Y-17564102D02*
X10519871Y-17554578D01*
X10672252Y-17735530D02*
X10681775Y-17745054D01*
X10681775Y-17745054D02*
X10672252Y-17754578D01*
X10672252Y-17754578D02*
X10662728Y-17745054D01*
X10662728Y-17745054D02*
X10672252Y-17735530D01*
X10672252Y-17735530D02*
X10672252Y-17754578D01*
X10805585Y-17554578D02*
X10824633Y-17554578D01*
X10824633Y-17554578D02*
X10843680Y-17564102D01*
X10843680Y-17564102D02*
X10853204Y-17573625D01*
X10853204Y-17573625D02*
X10862728Y-17592673D01*
X10862728Y-17592673D02*
X10872252Y-17630768D01*
X10872252Y-17630768D02*
X10872252Y-17678387D01*
X10872252Y-17678387D02*
X10862728Y-17716482D01*
X10862728Y-17716482D02*
X10853204Y-17735530D01*
X10853204Y-17735530D02*
X10843680Y-17745054D01*
X10843680Y-17745054D02*
X10824633Y-17754578D01*
X10824633Y-17754578D02*
X10805585Y-17754578D01*
X10805585Y-17754578D02*
X10786537Y-17745054D01*
X10786537Y-17745054D02*
X10777014Y-17735530D01*
X10777014Y-17735530D02*
X10767490Y-17716482D01*
X10767490Y-17716482D02*
X10757966Y-17678387D01*
X10757966Y-17678387D02*
X10757966Y-17630768D01*
X10757966Y-17630768D02*
X10767490Y-17592673D01*
X10767490Y-17592673D02*
X10777014Y-17573625D01*
X10777014Y-17573625D02*
X10786537Y-17564102D01*
X10786537Y-17564102D02*
X10805585Y-17554578D01*
X10986537Y-17640292D02*
X10967490Y-17630768D01*
X10967490Y-17630768D02*
X10957966Y-17621244D01*
X10957966Y-17621244D02*
X10948442Y-17602197D01*
X10948442Y-17602197D02*
X10948442Y-17592673D01*
X10948442Y-17592673D02*
X10957966Y-17573625D01*
X10957966Y-17573625D02*
X10967490Y-17564102D01*
X10967490Y-17564102D02*
X10986537Y-17554578D01*
X10986537Y-17554578D02*
X11024633Y-17554578D01*
X11024633Y-17554578D02*
X11043680Y-17564102D01*
X11043680Y-17564102D02*
X11053204Y-17573625D01*
X11053204Y-17573625D02*
X11062728Y-17592673D01*
X11062728Y-17592673D02*
X11062728Y-17602197D01*
X11062728Y-17602197D02*
X11053204Y-17621244D01*
X11053204Y-17621244D02*
X11043680Y-17630768D01*
X11043680Y-17630768D02*
X11024633Y-17640292D01*
X11024633Y-17640292D02*
X10986537Y-17640292D01*
X10986537Y-17640292D02*
X10967490Y-17649816D01*
X10967490Y-17649816D02*
X10957966Y-17659340D01*
X10957966Y-17659340D02*
X10948442Y-17678387D01*
X10948442Y-17678387D02*
X10948442Y-17716482D01*
X10948442Y-17716482D02*
X10957966Y-17735530D01*
X10957966Y-17735530D02*
X10967490Y-17745054D01*
X10967490Y-17745054D02*
X10986537Y-17754578D01*
X10986537Y-17754578D02*
X11024633Y-17754578D01*
X11024633Y-17754578D02*
X11043680Y-17745054D01*
X11043680Y-17745054D02*
X11053204Y-17735530D01*
X11053204Y-17735530D02*
X11062728Y-17716482D01*
X11062728Y-17716482D02*
X11062728Y-17678387D01*
X11062728Y-17678387D02*
X11053204Y-17659340D01*
X11053204Y-17659340D02*
X11043680Y-17649816D01*
X11043680Y-17649816D02*
X11024633Y-17640292D01*
X11234156Y-17554578D02*
X11196061Y-17554578D01*
X11196061Y-17554578D02*
X11177014Y-17564102D01*
X11177014Y-17564102D02*
X11167490Y-17573625D01*
X11167490Y-17573625D02*
X11148442Y-17602197D01*
X11148442Y-17602197D02*
X11138918Y-17640292D01*
X11138918Y-17640292D02*
X11138918Y-17716482D01*
X11138918Y-17716482D02*
X11148442Y-17735530D01*
X11148442Y-17735530D02*
X11157966Y-17745054D01*
X11157966Y-17745054D02*
X11177014Y-17754578D01*
X11177014Y-17754578D02*
X11215109Y-17754578D01*
X11215109Y-17754578D02*
X11234156Y-17745054D01*
X11234156Y-17745054D02*
X11243680Y-17735530D01*
X11243680Y-17735530D02*
X11253204Y-17716482D01*
X11253204Y-17716482D02*
X11253204Y-17668863D01*
X11253204Y-17668863D02*
X11243680Y-17649816D01*
X11243680Y-17649816D02*
X11234156Y-17640292D01*
X11234156Y-17640292D02*
X11215109Y-17630768D01*
X11215109Y-17630768D02*
X11177014Y-17630768D01*
X11177014Y-17630768D02*
X11157966Y-17640292D01*
X11157966Y-17640292D02*
X11148442Y-17649816D01*
X11148442Y-17649816D02*
X11138918Y-17668863D01*
X11424633Y-17554578D02*
X11386537Y-17554578D01*
X11386537Y-17554578D02*
X11367490Y-17564102D01*
X11367490Y-17564102D02*
X11357966Y-17573625D01*
X11357966Y-17573625D02*
X11338918Y-17602197D01*
X11338918Y-17602197D02*
X11329394Y-17640292D01*
X11329394Y-17640292D02*
X11329394Y-17716482D01*
X11329394Y-17716482D02*
X11338918Y-17735530D01*
X11338918Y-17735530D02*
X11348442Y-17745054D01*
X11348442Y-17745054D02*
X11367490Y-17754578D01*
X11367490Y-17754578D02*
X11405585Y-17754578D01*
X11405585Y-17754578D02*
X11424633Y-17745054D01*
X11424633Y-17745054D02*
X11434156Y-17735530D01*
X11434156Y-17735530D02*
X11443680Y-17716482D01*
X11443680Y-17716482D02*
X11443680Y-17668863D01*
X11443680Y-17668863D02*
X11434156Y-17649816D01*
X11434156Y-17649816D02*
X11424633Y-17640292D01*
X11424633Y-17640292D02*
X11405585Y-17630768D01*
X11405585Y-17630768D02*
X11367490Y-17630768D01*
X11367490Y-17630768D02*
X11348442Y-17640292D01*
X11348442Y-17640292D02*
X11338918Y-17649816D01*
X11338918Y-17649816D02*
X11329394Y-17668863D01*
X11519871Y-17554578D02*
X11519871Y-17592673D01*
X11596061Y-17554578D02*
X11596061Y-17592673D01*
X11891299Y-17830768D02*
X11881775Y-17821244D01*
X11881775Y-17821244D02*
X11862728Y-17792673D01*
X11862728Y-17792673D02*
X11853204Y-17773625D01*
X11853204Y-17773625D02*
X11843680Y-17745054D01*
X11843680Y-17745054D02*
X11834156Y-17697435D01*
X11834156Y-17697435D02*
X11834156Y-17659340D01*
X11834156Y-17659340D02*
X11843680Y-17611721D01*
X11843680Y-17611721D02*
X11853204Y-17583149D01*
X11853204Y-17583149D02*
X11862728Y-17564102D01*
X11862728Y-17564102D02*
X11881775Y-17535530D01*
X11881775Y-17535530D02*
X11891299Y-17526006D01*
X12072252Y-17754578D02*
X11957966Y-17754578D01*
X12015109Y-17754578D02*
X12015109Y-17554578D01*
X12015109Y-17554578D02*
X11996061Y-17583149D01*
X11996061Y-17583149D02*
X11977014Y-17602197D01*
X11977014Y-17602197D02*
X11957966Y-17611721D01*
X12196061Y-17554578D02*
X12215109Y-17554578D01*
X12215109Y-17554578D02*
X12234156Y-17564102D01*
X12234156Y-17564102D02*
X12243680Y-17573625D01*
X12243680Y-17573625D02*
X12253204Y-17592673D01*
X12253204Y-17592673D02*
X12262728Y-17630768D01*
X12262728Y-17630768D02*
X12262728Y-17678387D01*
X12262728Y-17678387D02*
X12253204Y-17716482D01*
X12253204Y-17716482D02*
X12243680Y-17735530D01*
X12243680Y-17735530D02*
X12234156Y-17745054D01*
X12234156Y-17745054D02*
X12215109Y-17754578D01*
X12215109Y-17754578D02*
X12196061Y-17754578D01*
X12196061Y-17754578D02*
X12177014Y-17745054D01*
X12177014Y-17745054D02*
X12167490Y-17735530D01*
X12167490Y-17735530D02*
X12157966Y-17716482D01*
X12157966Y-17716482D02*
X12148442Y-17678387D01*
X12148442Y-17678387D02*
X12148442Y-17630768D01*
X12148442Y-17630768D02*
X12157966Y-17592673D01*
X12157966Y-17592673D02*
X12167490Y-17573625D01*
X12167490Y-17573625D02*
X12177014Y-17564102D01*
X12177014Y-17564102D02*
X12196061Y-17554578D01*
X12500823Y-17754578D02*
X12500823Y-17554578D01*
X12586537Y-17754578D02*
X12586537Y-17649816D01*
X12586537Y-17649816D02*
X12577014Y-17630768D01*
X12577014Y-17630768D02*
X12557966Y-17621244D01*
X12557966Y-17621244D02*
X12529395Y-17621244D01*
X12529395Y-17621244D02*
X12510347Y-17630768D01*
X12510347Y-17630768D02*
X12500823Y-17640292D01*
X12710347Y-17754578D02*
X12691299Y-17745054D01*
X12691299Y-17745054D02*
X12681776Y-17735530D01*
X12681776Y-17735530D02*
X12672252Y-17716482D01*
X12672252Y-17716482D02*
X12672252Y-17659340D01*
X12672252Y-17659340D02*
X12681776Y-17640292D01*
X12681776Y-17640292D02*
X12691299Y-17630768D01*
X12691299Y-17630768D02*
X12710347Y-17621244D01*
X12710347Y-17621244D02*
X12738918Y-17621244D01*
X12738918Y-17621244D02*
X12757966Y-17630768D01*
X12757966Y-17630768D02*
X12767490Y-17640292D01*
X12767490Y-17640292D02*
X12777014Y-17659340D01*
X12777014Y-17659340D02*
X12777014Y-17716482D01*
X12777014Y-17716482D02*
X12767490Y-17735530D01*
X12767490Y-17735530D02*
X12757966Y-17745054D01*
X12757966Y-17745054D02*
X12738918Y-17754578D01*
X12738918Y-17754578D02*
X12710347Y-17754578D01*
X12891299Y-17754578D02*
X12872252Y-17745054D01*
X12872252Y-17745054D02*
X12862728Y-17726006D01*
X12862728Y-17726006D02*
X12862728Y-17554578D01*
X13043680Y-17745054D02*
X13024633Y-17754578D01*
X13024633Y-17754578D02*
X12986537Y-17754578D01*
X12986537Y-17754578D02*
X12967490Y-17745054D01*
X12967490Y-17745054D02*
X12957966Y-17726006D01*
X12957966Y-17726006D02*
X12957966Y-17649816D01*
X12957966Y-17649816D02*
X12967490Y-17630768D01*
X12967490Y-17630768D02*
X12986537Y-17621244D01*
X12986537Y-17621244D02*
X13024633Y-17621244D01*
X13024633Y-17621244D02*
X13043680Y-17630768D01*
X13043680Y-17630768D02*
X13053204Y-17649816D01*
X13053204Y-17649816D02*
X13053204Y-17668863D01*
X13053204Y-17668863D02*
X12957966Y-17687911D01*
X13129395Y-17745054D02*
X13148442Y-17754578D01*
X13148442Y-17754578D02*
X13186537Y-17754578D01*
X13186537Y-17754578D02*
X13205585Y-17745054D01*
X13205585Y-17745054D02*
X13215109Y-17726006D01*
X13215109Y-17726006D02*
X13215109Y-17716482D01*
X13215109Y-17716482D02*
X13205585Y-17697435D01*
X13205585Y-17697435D02*
X13186537Y-17687911D01*
X13186537Y-17687911D02*
X13157966Y-17687911D01*
X13157966Y-17687911D02*
X13138918Y-17678387D01*
X13138918Y-17678387D02*
X13129395Y-17659340D01*
X13129395Y-17659340D02*
X13129395Y-17649816D01*
X13129395Y-17649816D02*
X13138918Y-17630768D01*
X13138918Y-17630768D02*
X13157966Y-17621244D01*
X13157966Y-17621244D02*
X13186537Y-17621244D01*
X13186537Y-17621244D02*
X13205585Y-17630768D01*
X13281776Y-17830768D02*
X13291299Y-17821244D01*
X13291299Y-17821244D02*
X13310347Y-17792673D01*
X13310347Y-17792673D02*
X13319871Y-17773625D01*
X13319871Y-17773625D02*
X13329395Y-17745054D01*
X13329395Y-17745054D02*
X13338918Y-17697435D01*
X13338918Y-17697435D02*
X13338918Y-17659340D01*
X13338918Y-17659340D02*
X13329395Y-17611721D01*
X13329395Y-17611721D02*
X13319871Y-17583149D01*
X13319871Y-17583149D02*
X13310347Y-17564102D01*
X13310347Y-17564102D02*
X13291299Y-17535530D01*
X13291299Y-17535530D02*
X13281776Y-17526006D01*
X13643680Y-17830768D02*
X13634157Y-17821244D01*
X13634157Y-17821244D02*
X13615109Y-17792673D01*
X13615109Y-17792673D02*
X13605585Y-17773625D01*
X13605585Y-17773625D02*
X13596061Y-17745054D01*
X13596061Y-17745054D02*
X13586538Y-17697435D01*
X13586538Y-17697435D02*
X13586538Y-17659340D01*
X13586538Y-17659340D02*
X13596061Y-17611721D01*
X13596061Y-17611721D02*
X13605585Y-17583149D01*
X13605585Y-17583149D02*
X13615109Y-17564102D01*
X13615109Y-17564102D02*
X13634157Y-17535530D01*
X13634157Y-17535530D02*
X13643680Y-17526006D01*
X13719871Y-17621244D02*
X13719871Y-17754578D01*
X13719871Y-17640292D02*
X13729395Y-17630768D01*
X13729395Y-17630768D02*
X13748442Y-17621244D01*
X13748442Y-17621244D02*
X13777014Y-17621244D01*
X13777014Y-17621244D02*
X13796061Y-17630768D01*
X13796061Y-17630768D02*
X13805585Y-17649816D01*
X13805585Y-17649816D02*
X13805585Y-17754578D01*
X13929395Y-17754578D02*
X13910347Y-17745054D01*
X13910347Y-17745054D02*
X13900823Y-17735530D01*
X13900823Y-17735530D02*
X13891299Y-17716482D01*
X13891299Y-17716482D02*
X13891299Y-17659340D01*
X13891299Y-17659340D02*
X13900823Y-17640292D01*
X13900823Y-17640292D02*
X13910347Y-17630768D01*
X13910347Y-17630768D02*
X13929395Y-17621244D01*
X13929395Y-17621244D02*
X13957966Y-17621244D01*
X13957966Y-17621244D02*
X13977014Y-17630768D01*
X13977014Y-17630768D02*
X13986538Y-17640292D01*
X13986538Y-17640292D02*
X13996061Y-17659340D01*
X13996061Y-17659340D02*
X13996061Y-17716482D01*
X13996061Y-17716482D02*
X13986538Y-17735530D01*
X13986538Y-17735530D02*
X13977014Y-17745054D01*
X13977014Y-17745054D02*
X13957966Y-17754578D01*
X13957966Y-17754578D02*
X13929395Y-17754578D01*
X14053204Y-17621244D02*
X14129395Y-17621244D01*
X14081776Y-17554578D02*
X14081776Y-17726006D01*
X14081776Y-17726006D02*
X14091299Y-17745054D01*
X14091299Y-17745054D02*
X14110347Y-17754578D01*
X14110347Y-17754578D02*
X14129395Y-17754578D01*
X14348442Y-17621244D02*
X14348442Y-17821244D01*
X14348442Y-17630768D02*
X14367490Y-17621244D01*
X14367490Y-17621244D02*
X14405585Y-17621244D01*
X14405585Y-17621244D02*
X14424633Y-17630768D01*
X14424633Y-17630768D02*
X14434157Y-17640292D01*
X14434157Y-17640292D02*
X14443680Y-17659340D01*
X14443680Y-17659340D02*
X14443680Y-17716482D01*
X14443680Y-17716482D02*
X14434157Y-17735530D01*
X14434157Y-17735530D02*
X14424633Y-17745054D01*
X14424633Y-17745054D02*
X14405585Y-17754578D01*
X14405585Y-17754578D02*
X14367490Y-17754578D01*
X14367490Y-17754578D02*
X14348442Y-17745054D01*
X14557966Y-17754578D02*
X14538919Y-17745054D01*
X14538919Y-17745054D02*
X14529395Y-17726006D01*
X14529395Y-17726006D02*
X14529395Y-17554578D01*
X14719871Y-17754578D02*
X14719871Y-17649816D01*
X14719871Y-17649816D02*
X14710347Y-17630768D01*
X14710347Y-17630768D02*
X14691300Y-17621244D01*
X14691300Y-17621244D02*
X14653204Y-17621244D01*
X14653204Y-17621244D02*
X14634157Y-17630768D01*
X14719871Y-17745054D02*
X14700823Y-17754578D01*
X14700823Y-17754578D02*
X14653204Y-17754578D01*
X14653204Y-17754578D02*
X14634157Y-17745054D01*
X14634157Y-17745054D02*
X14624633Y-17726006D01*
X14624633Y-17726006D02*
X14624633Y-17706959D01*
X14624633Y-17706959D02*
X14634157Y-17687911D01*
X14634157Y-17687911D02*
X14653204Y-17678387D01*
X14653204Y-17678387D02*
X14700823Y-17678387D01*
X14700823Y-17678387D02*
X14719871Y-17668863D01*
X14786538Y-17621244D02*
X14862728Y-17621244D01*
X14815109Y-17554578D02*
X14815109Y-17726006D01*
X14815109Y-17726006D02*
X14824633Y-17745054D01*
X14824633Y-17745054D02*
X14843680Y-17754578D01*
X14843680Y-17754578D02*
X14862728Y-17754578D01*
X15005585Y-17745054D02*
X14986538Y-17754578D01*
X14986538Y-17754578D02*
X14948442Y-17754578D01*
X14948442Y-17754578D02*
X14929395Y-17745054D01*
X14929395Y-17745054D02*
X14919871Y-17726006D01*
X14919871Y-17726006D02*
X14919871Y-17649816D01*
X14919871Y-17649816D02*
X14929395Y-17630768D01*
X14929395Y-17630768D02*
X14948442Y-17621244D01*
X14948442Y-17621244D02*
X14986538Y-17621244D01*
X14986538Y-17621244D02*
X15005585Y-17630768D01*
X15005585Y-17630768D02*
X15015109Y-17649816D01*
X15015109Y-17649816D02*
X15015109Y-17668863D01*
X15015109Y-17668863D02*
X14919871Y-17687911D01*
X15186538Y-17754578D02*
X15186538Y-17554578D01*
X15186538Y-17745054D02*
X15167490Y-17754578D01*
X15167490Y-17754578D02*
X15129395Y-17754578D01*
X15129395Y-17754578D02*
X15110347Y-17745054D01*
X15110347Y-17745054D02*
X15100823Y-17735530D01*
X15100823Y-17735530D02*
X15091300Y-17716482D01*
X15091300Y-17716482D02*
X15091300Y-17659340D01*
X15091300Y-17659340D02*
X15100823Y-17640292D01*
X15100823Y-17640292D02*
X15110347Y-17630768D01*
X15110347Y-17630768D02*
X15129395Y-17621244D01*
X15129395Y-17621244D02*
X15167490Y-17621244D01*
X15167490Y-17621244D02*
X15186538Y-17630768D01*
X15262728Y-17830768D02*
X15272252Y-17821244D01*
X15272252Y-17821244D02*
X15291300Y-17792673D01*
X15291300Y-17792673D02*
X15300823Y-17773625D01*
X15300823Y-17773625D02*
X15310347Y-17745054D01*
X15310347Y-17745054D02*
X15319871Y-17697435D01*
X15319871Y-17697435D02*
X15319871Y-17659340D01*
X15319871Y-17659340D02*
X15310347Y-17611721D01*
X15310347Y-17611721D02*
X15300823Y-17583149D01*
X15300823Y-17583149D02*
X15291300Y-17564102D01*
X15291300Y-17564102D02*
X15272252Y-17535530D01*
X15272252Y-17535530D02*
X15262728Y-17526006D01*
M02*
