%TF.GenerationSoftware,KiCad,Pcbnew,7.0.2-6a45011f42~172~ubuntu22.04.1*%
%TF.CreationDate,2023-05-03T16:23:02+02:00*%
%TF.ProjectId,plate,706c6174-652e-46b6-9963-61645f706362,rev?*%
%TF.SameCoordinates,Original*%
%TF.FileFunction,Profile,NP*%
%FSLAX46Y46*%
G04 Gerber Fmt 4.6, Leading zero omitted, Abs format (unit mm)*
G04 Created by KiCad (PCBNEW 7.0.2-6a45011f42~172~ubuntu22.04.1) date 2023-05-03 16:23:02*
%MOMM*%
%LPD*%
G01*
G04 APERTURE LIST*
%TA.AperFunction,Profile*%
%ADD10C,0.100000*%
%TD*%
%TA.AperFunction,Profile*%
%ADD11C,0.050000*%
%TD*%
G04 APERTURE END LIST*
D10*
X256287218Y-75834004D02*
G75*
G03*
X255691904Y-76429313I-118J-595196D01*
G01*
X197492723Y-124420417D02*
X198088036Y-124420413D01*
X159544073Y-68690240D02*
G75*
G03*
X158948692Y-68094927I-595273J40D01*
G01*
X312095328Y-68094926D02*
X294235936Y-68094929D01*
X331740658Y-84763692D02*
X331740655Y-73452745D01*
X312690621Y-129412165D02*
G75*
G03*
X313285955Y-130007479I595479J165D01*
G01*
X294235936Y-68094923D02*
G75*
G03*
X293640623Y-68690240I-136J-595177D01*
G01*
X255691904Y-76429313D02*
X255691905Y-82748509D01*
X293640623Y-68690240D02*
X293640621Y-72857433D01*
X196897410Y-75833996D02*
X178594023Y-75833998D01*
X291259369Y-152629373D02*
X291259370Y-130007481D01*
X197492723Y-136326677D02*
X197492724Y-130373547D01*
X159544007Y-125244976D02*
X159544006Y-129412165D01*
X331740665Y-73452745D02*
G75*
G03*
X331145344Y-72857435I-595265J45D01*
G01*
X312690641Y-72857431D02*
X312690637Y-68690242D01*
X234704634Y-167337840D02*
G75*
G03*
X235299951Y-167512199I446566J421240D01*
G01*
X312690639Y-125244973D02*
X312690637Y-129412165D01*
X248548149Y-138707931D02*
X227204062Y-150999028D01*
X197492724Y-88930884D02*
X198088037Y-88930880D01*
X122039285Y-72857474D02*
G75*
G03*
X121443974Y-73452746I-85J-595226D01*
G01*
X235299951Y-167512199D02*
X251373401Y-158582505D01*
X369840709Y-85359002D02*
G75*
G03*
X369245374Y-84763691I-595309J2D01*
G01*
X159544019Y-129412165D02*
G75*
G03*
X160139321Y-130007481I595281J-35D01*
G01*
X255096596Y-80367257D02*
X198088032Y-80367255D01*
X197492723Y-82748507D02*
X197492724Y-76429311D01*
X293045310Y-130007424D02*
G75*
G03*
X293640624Y-129412166I-110J595424D01*
G01*
X227204047Y-150999018D02*
G75*
G03*
X227116882Y-151804817I730953J-486682D01*
G01*
X198088032Y-80367255D02*
X198088036Y-82748503D01*
X161925258Y-130007481D02*
X161925258Y-152629372D01*
X161925314Y-152629372D02*
G75*
G03*
X162520571Y-153224686I595386J72D01*
G01*
X178594070Y-73452746D02*
G75*
G03*
X177998711Y-72857430I-595270J46D01*
G01*
X121443974Y-84763694D02*
X83939254Y-84763692D01*
X293640624Y-129412166D02*
X293640623Y-125244975D01*
X312690674Y-68690242D02*
G75*
G03*
X312095328Y-68094926I-595374J-58D01*
G01*
X369245374Y-84763691D02*
X331740658Y-84763692D01*
X140493991Y-72857433D02*
X122039285Y-72857431D01*
X159544008Y-72857436D02*
X159544006Y-68690240D01*
X291259370Y-130007481D02*
X293045310Y-130007477D01*
X140493992Y-125244975D02*
X159544007Y-125244976D01*
X158948692Y-68094927D02*
X141089302Y-68094929D01*
X293640623Y-125244975D02*
X312690639Y-125244973D01*
X198088037Y-135136051D02*
X198088037Y-130373543D01*
X290664058Y-153224669D02*
G75*
G03*
X291259369Y-152629373I42J595269D01*
G01*
X271018733Y-153224689D02*
X290664058Y-153224687D01*
X197492723Y-82748507D02*
X198088036Y-82748503D01*
X218479991Y-167337835D02*
X226067747Y-151804815D01*
X225980566Y-150999026D02*
X204636479Y-138707929D01*
X182165900Y-153224684D02*
X201811229Y-158582505D01*
X177998711Y-72857430D02*
X159544008Y-72857436D01*
X227116881Y-151804817D02*
X234704637Y-167337837D01*
X197492804Y-76429311D02*
G75*
G03*
X196897410Y-75833996I-595304J11D01*
G01*
X255096592Y-82748505D02*
X255096596Y-80367257D01*
X201811229Y-158582505D02*
X217884680Y-167512200D01*
X120848663Y-141913775D02*
G75*
G03*
X121443975Y-141318425I37J595275D01*
G01*
X251373401Y-158582505D02*
X271018733Y-153224689D01*
X226067727Y-151804807D02*
G75*
G03*
X225980565Y-150999026I-818127J319107D01*
G01*
X255091620Y-124420419D02*
X255686933Y-124420415D01*
X140493990Y-68690242D02*
X140493991Y-72857433D01*
X83343944Y-85359007D02*
X83343943Y-141318423D01*
X160139321Y-130007481D02*
X161925258Y-130007481D01*
X83343958Y-141318423D02*
G75*
G03*
X83939256Y-141913742I595242J-77D01*
G01*
X141089302Y-68094890D02*
G75*
G03*
X140493990Y-68690242I98J-595410D01*
G01*
X274590608Y-75833996D02*
X256287221Y-75833994D01*
X121443972Y-130007479D02*
X139898680Y-130007477D01*
X198088037Y-135136051D02*
X255091620Y-135136055D01*
X121443975Y-141318425D02*
X121443972Y-130007479D01*
X83939256Y-141913742D02*
X120848663Y-141913739D01*
X255686933Y-130373543D02*
X255691905Y-136326679D01*
X332335969Y-141913740D02*
X369245373Y-141913739D01*
X313285955Y-130007479D02*
X331740659Y-130007480D01*
X369840686Y-141318429D02*
X369840687Y-85359002D01*
X331740659Y-130007480D02*
X331740656Y-141318429D01*
X255091620Y-130373547D02*
X255686933Y-130373543D01*
X198088036Y-124420413D02*
X198088037Y-88930880D01*
X274590611Y-73452746D02*
X274590608Y-75833996D01*
X204636479Y-138707929D02*
X197492723Y-136326677D01*
X197492723Y-124420417D02*
X197492724Y-88930884D01*
X162520571Y-153224686D02*
X182165900Y-153224684D01*
X275185925Y-72857411D02*
G75*
G03*
X274590611Y-73452746I75J-595389D01*
G01*
X83939254Y-84763744D02*
G75*
G03*
X83343944Y-85359007I46J-595356D01*
G01*
X293640621Y-72857433D02*
X275185925Y-72857429D01*
X255091620Y-135136055D02*
X255091620Y-130373547D01*
X255091620Y-124420419D02*
X255091621Y-88930886D01*
X197492724Y-130373547D02*
X198088037Y-130373543D01*
X255091621Y-88930886D02*
X255686934Y-88930882D01*
X255096592Y-82748505D02*
X255691905Y-82748509D01*
X217884668Y-167512247D02*
G75*
G03*
X218479990Y-167337834I148732J595547D01*
G01*
X178594023Y-75833998D02*
X178594019Y-73452746D01*
X140493992Y-129412168D02*
X140493992Y-125244975D01*
X139898680Y-130007492D02*
G75*
G03*
X140493992Y-129412168I20J595292D01*
G01*
X255691905Y-136326679D02*
X248548149Y-138707931D01*
X121443974Y-73452746D02*
X121443974Y-84763694D01*
X331740660Y-141318429D02*
G75*
G03*
X332335969Y-141913740I595340J29D01*
G01*
X331145344Y-72857435D02*
X312690641Y-72857431D01*
X255686933Y-124420415D02*
X255686934Y-88930882D01*
X369245373Y-141913686D02*
G75*
G03*
X369840686Y-141318429I127J595186D01*
G01*
D11*
%TO.C,SW24*%
X189289753Y-138398392D02*
X185925105Y-150955428D01*
X186278659Y-151567800D02*
X198835695Y-154932448D01*
X202459161Y-141409486D02*
X189902125Y-138044838D01*
X199448067Y-154578894D02*
X202812715Y-142021858D01*
X189902125Y-138044839D02*
G75*
G03*
X189289754Y-138398392I-129409J-482962D01*
G01*
X185928065Y-150955065D02*
G75*
G03*
X186281617Y-151567437I482963J-129409D01*
G01*
X202812714Y-142021858D02*
G75*
G03*
X202459161Y-141409487I-482962J129409D01*
G01*
X198835695Y-154932447D02*
G75*
G03*
X199448066Y-154578894I129409J482962D01*
G01*
%TO.C,SW8*%
X104918911Y-106813645D02*
X104918911Y-119813645D01*
X105418911Y-120313645D02*
X118418911Y-120313645D01*
X118418911Y-106313645D02*
X105418911Y-106313645D01*
X118918911Y-119813645D02*
X118918911Y-106813645D01*
X105418911Y-106313645D02*
G75*
G03*
X104918911Y-106813645I1J-500001D01*
G01*
X104921675Y-119812529D02*
G75*
G03*
X105421675Y-120312529I500001J1D01*
G01*
X118918911Y-106813645D02*
G75*
G03*
X118418911Y-106313645I-500000J0D01*
G01*
X118418911Y-120313645D02*
G75*
G03*
X118918911Y-119813645I0J500000D01*
G01*
%TO.C,SW28*%
X296165603Y-71138690D02*
X296165603Y-84138690D01*
X296665603Y-84638690D02*
X309665603Y-84638690D01*
X309665603Y-70638690D02*
X296665603Y-70638690D01*
X310165603Y-84138690D02*
X310165603Y-71138690D01*
X296665603Y-70638690D02*
G75*
G03*
X296165603Y-71138690I1J-500001D01*
G01*
X296168367Y-84137574D02*
G75*
G03*
X296668367Y-84637574I500001J1D01*
G01*
X310165603Y-71138690D02*
G75*
G03*
X309665603Y-70638690I-500000J0D01*
G01*
X309665603Y-84638690D02*
G75*
G03*
X310165603Y-84138690I0J500000D01*
G01*
%TO.C,SW47*%
X353315599Y-125863727D02*
X353315599Y-138863727D01*
X353815599Y-139363727D02*
X366815599Y-139363727D01*
X366815599Y-125363727D02*
X353815599Y-125363727D01*
X367315599Y-138863727D02*
X367315599Y-125863727D01*
X353815599Y-125363727D02*
G75*
G03*
X353315599Y-125863727I1J-500001D01*
G01*
X353318363Y-138862611D02*
G75*
G03*
X353818363Y-139362611I500001J1D01*
G01*
X367315599Y-125863727D02*
G75*
G03*
X366815599Y-125363727I-500000J0D01*
G01*
X366815599Y-139363727D02*
G75*
G03*
X367315599Y-138863727I0J500000D01*
G01*
%TO.C,SW38*%
X353315599Y-106813706D02*
X353315599Y-119813706D01*
X353815599Y-120313706D02*
X366815599Y-120313706D01*
X366815599Y-106313706D02*
X353815599Y-106313706D01*
X367315599Y-119813706D02*
X367315599Y-106813706D01*
X353815599Y-106313706D02*
G75*
G03*
X353315599Y-106813706I1J-500001D01*
G01*
X353318363Y-119812590D02*
G75*
G03*
X353818363Y-120312590I500001J1D01*
G01*
X367315599Y-106813706D02*
G75*
G03*
X366815599Y-106313706I-500000J0D01*
G01*
X366815599Y-120313706D02*
G75*
G03*
X367315599Y-119813706I0J500000D01*
G01*
%TO.C,SW37*%
X334265599Y-106813707D02*
X334265599Y-119813707D01*
X334765599Y-120313707D02*
X347765599Y-120313707D01*
X347765599Y-106313707D02*
X334765599Y-106313707D01*
X348265599Y-119813707D02*
X348265599Y-106813707D01*
X334765599Y-106313707D02*
G75*
G03*
X334265599Y-106813707I1J-500001D01*
G01*
X334268363Y-119812591D02*
G75*
G03*
X334768363Y-120312591I500001J1D01*
G01*
X348265599Y-106813707D02*
G75*
G03*
X347765599Y-106313707I-500000J0D01*
G01*
X347765599Y-120313707D02*
G75*
G03*
X348265599Y-119813707I0J500000D01*
G01*
%TO.C,SW50*%
X273815601Y-136988722D02*
X273815601Y-149988722D01*
X274315601Y-150488722D02*
X287315601Y-150488722D01*
X287315601Y-136488722D02*
X274315601Y-136488722D01*
X287815601Y-149988722D02*
X287815601Y-136988722D01*
X274315601Y-136488722D02*
G75*
G03*
X273815601Y-136988722I1J-500001D01*
G01*
X273818365Y-149987606D02*
G75*
G03*
X274318365Y-150487606I500001J1D01*
G01*
X287815601Y-136988722D02*
G75*
G03*
X287315601Y-136488722I-500000J0D01*
G01*
X287315601Y-150488722D02*
G75*
G03*
X287815601Y-149988722I0J500000D01*
G01*
%TO.C,SW46*%
X334265600Y-125863723D02*
X334265600Y-138863723D01*
X334765600Y-139363723D02*
X347765600Y-139363723D01*
X347765600Y-125363723D02*
X334765600Y-125363723D01*
X348265600Y-138863723D02*
X348265600Y-125863723D01*
X334765600Y-125363723D02*
G75*
G03*
X334265600Y-125863723I1J-500001D01*
G01*
X334268364Y-138862607D02*
G75*
G03*
X334768364Y-139362607I500001J1D01*
G01*
X348265600Y-125863723D02*
G75*
G03*
X347765600Y-125363723I-500000J0D01*
G01*
X347765600Y-139363723D02*
G75*
G03*
X348265600Y-138863723I0J500000D01*
G01*
%TO.C,SW17*%
X143018909Y-109238642D02*
X143018909Y-122238642D01*
X143518909Y-122738642D02*
X156518909Y-122738642D01*
X156518909Y-108738642D02*
X143518909Y-108738642D01*
X157018909Y-122238642D02*
X157018909Y-109238642D01*
X143518909Y-108738642D02*
G75*
G03*
X143018909Y-109238642I1J-500001D01*
G01*
X143021673Y-122237526D02*
G75*
G03*
X143521673Y-122737526I500001J1D01*
G01*
X157018909Y-109238642D02*
G75*
G03*
X156518909Y-108738642I-500000J0D01*
G01*
X156518909Y-122738642D02*
G75*
G03*
X157018909Y-122238642I0J500000D01*
G01*
%TO.C,SW33*%
X258065598Y-97313709D02*
X258065598Y-110313709D01*
X258565598Y-110813709D02*
X271565598Y-110813709D01*
X271565598Y-96813709D02*
X258565598Y-96813709D01*
X272065598Y-110313709D02*
X272065598Y-97313709D01*
X258565598Y-96813709D02*
G75*
G03*
X258065598Y-97313709I1J-500001D01*
G01*
X258068362Y-110312593D02*
G75*
G03*
X258568362Y-110812593I500001J1D01*
G01*
X272065598Y-97313709D02*
G75*
G03*
X271565598Y-96813709I-500000J0D01*
G01*
X271565598Y-110813709D02*
G75*
G03*
X272065598Y-110313709I0J500000D01*
G01*
%TO.C,SW34*%
X277115599Y-94938709D02*
X277115599Y-107938709D01*
X277615599Y-108438709D02*
X290615599Y-108438709D01*
X290615599Y-94438709D02*
X277615599Y-94438709D01*
X291115599Y-107938709D02*
X291115599Y-94938709D01*
X277615599Y-94438709D02*
G75*
G03*
X277115599Y-94938709I1J-500001D01*
G01*
X277118363Y-107937593D02*
G75*
G03*
X277618363Y-108437593I500001J1D01*
G01*
X291115599Y-94938709D02*
G75*
G03*
X290615599Y-94438709I-500000J0D01*
G01*
X290615599Y-108438709D02*
G75*
G03*
X291115599Y-107938709I0J500000D01*
G01*
%TO.C,SW4*%
X143018910Y-71138643D02*
X143018910Y-84138643D01*
X143518910Y-84638643D02*
X156518910Y-84638643D01*
X156518910Y-70638643D02*
X143518910Y-70638643D01*
X157018910Y-84138643D02*
X157018910Y-71138643D01*
X143518910Y-70638643D02*
G75*
G03*
X143018910Y-71138643I1J-500001D01*
G01*
X143021674Y-84137527D02*
G75*
G03*
X143521674Y-84637527I500001J1D01*
G01*
X157018910Y-71138643D02*
G75*
G03*
X156518910Y-70638643I-500000J0D01*
G01*
X156518910Y-84638643D02*
G75*
G03*
X157018910Y-84138643I0J500000D01*
G01*
%TO.C,SW16*%
X123968907Y-113988648D02*
X123968907Y-126988648D01*
X124468907Y-127488648D02*
X137468907Y-127488648D01*
X137468907Y-113488648D02*
X124468907Y-113488648D01*
X137968907Y-126988648D02*
X137968907Y-113988648D01*
X124468907Y-113488648D02*
G75*
G03*
X123968907Y-113988648I1J-500001D01*
G01*
X123971671Y-126987532D02*
G75*
G03*
X124471671Y-127487532I500001J1D01*
G01*
X137968907Y-113988648D02*
G75*
G03*
X137468907Y-113488648I-500000J0D01*
G01*
X137468907Y-127488648D02*
G75*
G03*
X137968907Y-126988648I0J500000D01*
G01*
%TO.C,SW2*%
X104918911Y-87763644D02*
X104918911Y-100763644D01*
X105418911Y-101263644D02*
X118418911Y-101263644D01*
X118418911Y-87263644D02*
X105418911Y-87263644D01*
X118918911Y-100763644D02*
X118918911Y-87763644D01*
X105418911Y-87263644D02*
G75*
G03*
X104918911Y-87763644I1J-500001D01*
G01*
X104921675Y-100762528D02*
G75*
G03*
X105421675Y-101262528I500001J1D01*
G01*
X118918911Y-87763644D02*
G75*
G03*
X118418911Y-87263644I-500000J0D01*
G01*
X118418911Y-101263644D02*
G75*
G03*
X118918911Y-100763644I0J500000D01*
G01*
%TO.C,SW30*%
X334265597Y-87763692D02*
X334265597Y-100763692D01*
X334765597Y-101263692D02*
X347765597Y-101263692D01*
X347765597Y-87263692D02*
X334765597Y-87263692D01*
X348265597Y-100763692D02*
X348265597Y-87763692D01*
X334765597Y-87263692D02*
G75*
G03*
X334265597Y-87763692I1J-500001D01*
G01*
X334268361Y-100762576D02*
G75*
G03*
X334768361Y-101262576I500001J1D01*
G01*
X348265597Y-87763692D02*
G75*
G03*
X347765597Y-87263692I-500000J0D01*
G01*
X347765597Y-101263692D02*
G75*
G03*
X348265597Y-100763692I0J500000D01*
G01*
%TO.C,SW18*%
X162068911Y-113988643D02*
X162068911Y-126988643D01*
X162568911Y-127488643D02*
X175568911Y-127488643D01*
X175568911Y-113488643D02*
X162568911Y-113488643D01*
X176068911Y-126988643D02*
X176068911Y-113988643D01*
X162568911Y-113488643D02*
G75*
G03*
X162068911Y-113988643I1J-500001D01*
G01*
X162071675Y-126987527D02*
G75*
G03*
X162571675Y-127487527I500001J1D01*
G01*
X176068911Y-113988643D02*
G75*
G03*
X175568911Y-113488643I-500000J0D01*
G01*
X175568911Y-127488643D02*
G75*
G03*
X176068911Y-126988643I0J500000D01*
G01*
%TO.C,SW1*%
X85868911Y-87763643D02*
X85868911Y-100763643D01*
X86368911Y-101263643D02*
X99368911Y-101263643D01*
X99368911Y-87263643D02*
X86368911Y-87263643D01*
X99868911Y-100763643D02*
X99868911Y-87763643D01*
X86368911Y-87263643D02*
G75*
G03*
X85868911Y-87763643I1J-500001D01*
G01*
X85871675Y-100762527D02*
G75*
G03*
X86371675Y-101262527I500001J1D01*
G01*
X99868911Y-87763643D02*
G75*
G03*
X99368911Y-87263643I-500000J0D01*
G01*
X99368911Y-101263643D02*
G75*
G03*
X99868911Y-100763643I0J500000D01*
G01*
%TO.C,SW14*%
X85868907Y-125863645D02*
X85868907Y-138863645D01*
X86368907Y-139363645D02*
X99368907Y-139363645D01*
X99368907Y-125363645D02*
X86368907Y-125363645D01*
X99868907Y-138863645D02*
X99868907Y-125863645D01*
X86368907Y-125363645D02*
G75*
G03*
X85868907Y-125863645I1J-500001D01*
G01*
X85871671Y-138862529D02*
G75*
G03*
X86371671Y-139362529I500001J1D01*
G01*
X99868907Y-125863645D02*
G75*
G03*
X99368907Y-125363645I-500000J0D01*
G01*
X99368907Y-139363645D02*
G75*
G03*
X99868907Y-138863645I0J500000D01*
G01*
%TO.C,SW29*%
X315215594Y-75888691D02*
X315215594Y-88888691D01*
X315715594Y-89388691D02*
X328715594Y-89388691D01*
X328715594Y-75388691D02*
X315715594Y-75388691D01*
X329215594Y-88888691D02*
X329215594Y-75888691D01*
X315715594Y-75388691D02*
G75*
G03*
X315215594Y-75888691I1J-500001D01*
G01*
X315218358Y-88887575D02*
G75*
G03*
X315718358Y-89387575I500001J1D01*
G01*
X329215594Y-75888691D02*
G75*
G03*
X328715594Y-75388691I-500000J0D01*
G01*
X328715594Y-89388691D02*
G75*
G03*
X329215594Y-88888691I0J500000D01*
G01*
%TO.C,SW31*%
X353315598Y-87763691D02*
X353315598Y-100763691D01*
X353815598Y-101263691D02*
X366815598Y-101263691D01*
X366815598Y-87263691D02*
X353815598Y-87263691D01*
X367315598Y-100763691D02*
X367315598Y-87763691D01*
X353815598Y-87263691D02*
G75*
G03*
X353315598Y-87763691I1J-500001D01*
G01*
X353318362Y-100762575D02*
G75*
G03*
X353818362Y-101262575I500001J1D01*
G01*
X367315598Y-87763691D02*
G75*
G03*
X366815598Y-87263691I-500000J0D01*
G01*
X366815598Y-101263691D02*
G75*
G03*
X367315598Y-100763691I0J500000D01*
G01*
%TO.C,SW12*%
X181118910Y-97313647D02*
X181118910Y-110313647D01*
X181618910Y-110813647D02*
X194618910Y-110813647D01*
X194618910Y-96813647D02*
X181618910Y-96813647D01*
X195118910Y-110313647D02*
X195118910Y-97313647D01*
X181618910Y-96813647D02*
G75*
G03*
X181118910Y-97313647I1J-500001D01*
G01*
X181121674Y-110312531D02*
G75*
G03*
X181621674Y-110812531I500001J1D01*
G01*
X195118910Y-97313647D02*
G75*
G03*
X194618910Y-96813647I-500000J0D01*
G01*
X194618910Y-110813647D02*
G75*
G03*
X195118910Y-110313647I0J500000D01*
G01*
%TO.C,SW45*%
X315215598Y-113988726D02*
X315215598Y-126988726D01*
X315715598Y-127488726D02*
X328715598Y-127488726D01*
X328715598Y-113488726D02*
X315715598Y-113488726D01*
X329215598Y-126988726D02*
X329215598Y-113988726D01*
X315715598Y-113488726D02*
G75*
G03*
X315215598Y-113988726I1J-500001D01*
G01*
X315218362Y-126987610D02*
G75*
G03*
X315718362Y-127487610I500001J1D01*
G01*
X329215598Y-113988726D02*
G75*
G03*
X328715598Y-113488726I-500000J0D01*
G01*
X328715598Y-127488726D02*
G75*
G03*
X329215598Y-126988726I0J500000D01*
G01*
%TO.C,SW42*%
X258065597Y-116363723D02*
X258065597Y-129363723D01*
X258565597Y-129863723D02*
X271565597Y-129863723D01*
X271565597Y-115863723D02*
X258565597Y-115863723D01*
X272065597Y-129363723D02*
X272065597Y-116363723D01*
X258565597Y-115863723D02*
G75*
G03*
X258065597Y-116363723I1J-500001D01*
G01*
X258068361Y-129362607D02*
G75*
G03*
X258568361Y-129862607I500001J1D01*
G01*
X272065597Y-116363723D02*
G75*
G03*
X271565597Y-115863723I-500000J0D01*
G01*
X271565597Y-129863723D02*
G75*
G03*
X272065597Y-129363723I0J500000D01*
G01*
%TO.C,SW11*%
X162068911Y-94938643D02*
X162068911Y-107938643D01*
X162568911Y-108438643D02*
X175568911Y-108438643D01*
X175568911Y-94438643D02*
X162568911Y-94438643D01*
X176068911Y-107938643D02*
X176068911Y-94938643D01*
X162568911Y-94438643D02*
G75*
G03*
X162068911Y-94938643I1J-500001D01*
G01*
X162071675Y-107937527D02*
G75*
G03*
X162571675Y-108437527I500001J1D01*
G01*
X176068911Y-94938643D02*
G75*
G03*
X175568911Y-94438643I-500000J0D01*
G01*
X175568911Y-108438643D02*
G75*
G03*
X176068911Y-107938643I0J500000D01*
G01*
%TO.C,SW15*%
X104918909Y-125863644D02*
X104918909Y-138863644D01*
X105418909Y-139363644D02*
X118418909Y-139363644D01*
X118418909Y-125363644D02*
X105418909Y-125363644D01*
X118918909Y-138863644D02*
X118918909Y-125863644D01*
X105418909Y-125363644D02*
G75*
G03*
X104918909Y-125863644I1J-500001D01*
G01*
X104921673Y-138862528D02*
G75*
G03*
X105421673Y-139362528I500001J1D01*
G01*
X118918909Y-125863644D02*
G75*
G03*
X118418909Y-125363644I-500000J0D01*
G01*
X118418909Y-139363644D02*
G75*
G03*
X118918909Y-138863644I0J500000D01*
G01*
%TO.C,SW35*%
X296165600Y-90188706D02*
X296165600Y-103188706D01*
X296665600Y-103688706D02*
X309665600Y-103688706D01*
X309665600Y-89688706D02*
X296665600Y-89688706D01*
X310165600Y-103188706D02*
X310165600Y-90188706D01*
X296665600Y-89688706D02*
G75*
G03*
X296165600Y-90188706I1J-500001D01*
G01*
X296168364Y-103187590D02*
G75*
G03*
X296668364Y-103687590I500001J1D01*
G01*
X310165600Y-90188706D02*
G75*
G03*
X309665600Y-89688706I-500000J0D01*
G01*
X309665600Y-103688706D02*
G75*
G03*
X310165600Y-103188706I0J500000D01*
G01*
%TO.C,SW19*%
X181118909Y-116363643D02*
X181118909Y-129363643D01*
X181618909Y-129863643D02*
X194618909Y-129863643D01*
X194618909Y-115863643D02*
X181618909Y-115863643D01*
X195118909Y-129363643D02*
X195118909Y-116363643D01*
X181618909Y-115863643D02*
G75*
G03*
X181118909Y-116363643I1J-500001D01*
G01*
X181121673Y-129362527D02*
G75*
G03*
X181621673Y-129862527I500001J1D01*
G01*
X195118909Y-116363643D02*
G75*
G03*
X194618909Y-115863643I-500000J0D01*
G01*
X194618909Y-129863643D02*
G75*
G03*
X195118909Y-129363643I0J500000D01*
G01*
%TO.C,SW25*%
X212056733Y-145859480D02*
X205556733Y-157117810D01*
X205739746Y-157800823D02*
X216998076Y-164300823D01*
X223998076Y-152176467D02*
X212739746Y-145676467D01*
X217681089Y-164117810D02*
X224181089Y-152859480D01*
X212739745Y-145676468D02*
G75*
G03*
X212056734Y-145859480I-249999J-433013D01*
G01*
X205559686Y-157118226D02*
G75*
G03*
X205742698Y-157801237I433013J-249999D01*
G01*
X224181089Y-152859480D02*
G75*
G03*
X223998076Y-152176467I-433013J250000D01*
G01*
X216998076Y-164300823D02*
G75*
G03*
X217681089Y-164117810I250000J433013D01*
G01*
%TO.C,SW9*%
X123968909Y-94938643D02*
X123968909Y-107938643D01*
X124468909Y-108438643D02*
X137468909Y-108438643D01*
X137468909Y-94438643D02*
X124468909Y-94438643D01*
X137968909Y-107938643D02*
X137968909Y-94938643D01*
X124468909Y-94438643D02*
G75*
G03*
X123968909Y-94938643I1J-500001D01*
G01*
X123971673Y-107937527D02*
G75*
G03*
X124471673Y-108437527I500001J1D01*
G01*
X137968909Y-94938643D02*
G75*
G03*
X137468909Y-94438643I-500000J0D01*
G01*
X137468909Y-108438643D02*
G75*
G03*
X137968909Y-107938643I0J500000D01*
G01*
%TO.C,SW48*%
X229003421Y-152859560D02*
X235503421Y-164117890D01*
X236186434Y-164300903D02*
X247444764Y-157800903D01*
X240444764Y-145676547D02*
X229186434Y-152176547D01*
X247627777Y-157117890D02*
X241127777Y-145859560D01*
X229186434Y-152176547D02*
G75*
G03*
X229003421Y-152859560I250001J-433013D01*
G01*
X235505257Y-164115542D02*
G75*
G03*
X236188270Y-164298554I433013J250002D01*
G01*
X241127777Y-145859560D02*
G75*
G03*
X240444764Y-145676547I-433013J-250000D01*
G01*
X247444764Y-157800903D02*
G75*
G03*
X247627777Y-157117890I-250000J433013D01*
G01*
%TO.C,SW43*%
X277115601Y-113988723D02*
X277115601Y-126988723D01*
X277615601Y-127488723D02*
X290615601Y-127488723D01*
X290615601Y-113488723D02*
X277615601Y-113488723D01*
X291115601Y-126988723D02*
X291115601Y-113988723D01*
X277615601Y-113488723D02*
G75*
G03*
X277115601Y-113988723I1J-500001D01*
G01*
X277118365Y-126987607D02*
G75*
G03*
X277618365Y-127487607I500001J1D01*
G01*
X291115601Y-113988723D02*
G75*
G03*
X290615601Y-113488723I-500000J0D01*
G01*
X290615601Y-127488723D02*
G75*
G03*
X291115601Y-126988723I0J500000D01*
G01*
%TO.C,SW7*%
X85868911Y-106813642D02*
X85868911Y-119813642D01*
X86368911Y-120313642D02*
X99368911Y-120313642D01*
X99368911Y-106313642D02*
X86368911Y-106313642D01*
X99868911Y-119813642D02*
X99868911Y-106813642D01*
X86368911Y-106313642D02*
G75*
G03*
X85868911Y-106813642I1J-500001D01*
G01*
X85871675Y-119812526D02*
G75*
G03*
X86371675Y-120312526I500001J1D01*
G01*
X99868911Y-106813642D02*
G75*
G03*
X99368911Y-106313642I-500000J0D01*
G01*
X99368911Y-120313642D02*
G75*
G03*
X99868911Y-119813642I0J500000D01*
G01*
%TO.C,SW44*%
X296165601Y-109238727D02*
X296165601Y-122238727D01*
X296665601Y-122738727D02*
X309665601Y-122738727D01*
X309665601Y-108738727D02*
X296665601Y-108738727D01*
X310165601Y-122238727D02*
X310165601Y-109238727D01*
X296665601Y-108738727D02*
G75*
G03*
X296165601Y-109238727I1J-500001D01*
G01*
X296168365Y-122237611D02*
G75*
G03*
X296668365Y-122737611I500001J1D01*
G01*
X310165601Y-109238727D02*
G75*
G03*
X309665601Y-108738727I-500000J0D01*
G01*
X309665601Y-122738727D02*
G75*
G03*
X310165601Y-122238727I0J500000D01*
G01*
%TO.C,SW10*%
X143018910Y-90188646D02*
X143018910Y-103188646D01*
X143518910Y-103688646D02*
X156518910Y-103688646D01*
X156518910Y-89688646D02*
X143518910Y-89688646D01*
X157018910Y-103188646D02*
X157018910Y-90188646D01*
X143518910Y-89688646D02*
G75*
G03*
X143018910Y-90188646I1J-500001D01*
G01*
X143021674Y-103187530D02*
G75*
G03*
X143521674Y-103687530I500001J1D01*
G01*
X157018910Y-90188646D02*
G75*
G03*
X156518910Y-89688646I-500000J0D01*
G01*
X156518910Y-103688646D02*
G75*
G03*
X157018910Y-103188646I0J500000D01*
G01*
%TO.C,SW27*%
X277115600Y-75888691D02*
X277115600Y-88888691D01*
X277615600Y-89388691D02*
X290615600Y-89388691D01*
X290615600Y-75388691D02*
X277615600Y-75388691D01*
X291115600Y-88888691D02*
X291115600Y-75888691D01*
X277615600Y-75388691D02*
G75*
G03*
X277115600Y-75888691I1J-500001D01*
G01*
X277118364Y-88887575D02*
G75*
G03*
X277618364Y-89387575I500001J1D01*
G01*
X291115600Y-75888691D02*
G75*
G03*
X290615600Y-75388691I-500000J0D01*
G01*
X290615600Y-89388691D02*
G75*
G03*
X291115600Y-88888691I0J500000D01*
G01*
%TO.C,SW6*%
X181118908Y-78263642D02*
X181118908Y-91263642D01*
X181618908Y-91763642D02*
X194618908Y-91763642D01*
X194618908Y-77763642D02*
X181618908Y-77763642D01*
X195118908Y-91263642D02*
X195118908Y-78263642D01*
X181618908Y-77763642D02*
G75*
G03*
X181118908Y-78263642I1J-500001D01*
G01*
X181121672Y-91262526D02*
G75*
G03*
X181621672Y-91762526I500001J1D01*
G01*
X195118908Y-78263642D02*
G75*
G03*
X194618908Y-77763642I-500000J0D01*
G01*
X194618908Y-91763642D02*
G75*
G03*
X195118908Y-91263642I0J500000D01*
G01*
%TO.C,SW36*%
X315215600Y-94938706D02*
X315215600Y-107938706D01*
X315715600Y-108438706D02*
X328715600Y-108438706D01*
X328715600Y-94438706D02*
X315715600Y-94438706D01*
X329215600Y-107938706D02*
X329215600Y-94938706D01*
X315715600Y-94438706D02*
G75*
G03*
X315215600Y-94938706I1J-500001D01*
G01*
X315218364Y-107937590D02*
G75*
G03*
X315718364Y-108437590I500001J1D01*
G01*
X329215600Y-94938706D02*
G75*
G03*
X328715600Y-94438706I-500000J0D01*
G01*
X328715600Y-108438706D02*
G75*
G03*
X329215600Y-107938706I0J500000D01*
G01*
%TO.C,SW26*%
X258065599Y-78263691D02*
X258065599Y-91263691D01*
X258565599Y-91763691D02*
X271565599Y-91763691D01*
X271565599Y-77763691D02*
X258565599Y-77763691D01*
X272065599Y-91263691D02*
X272065599Y-78263691D01*
X258565599Y-77763691D02*
G75*
G03*
X258065599Y-78263691I1J-500001D01*
G01*
X258068363Y-91262575D02*
G75*
G03*
X258568363Y-91762575I500001J1D01*
G01*
X272065599Y-78263691D02*
G75*
G03*
X271565599Y-77763691I-500000J0D01*
G01*
X271565599Y-91763691D02*
G75*
G03*
X272065599Y-91263691I0J500000D01*
G01*
%TO.C,SW49*%
X250371795Y-142021938D02*
X253736443Y-154578974D01*
X254348815Y-154932528D02*
X266905851Y-151567880D01*
X263282385Y-138044918D02*
X250725349Y-141409566D01*
X267259405Y-150955508D02*
X263894757Y-138398472D01*
X250725349Y-141409567D02*
G75*
G03*
X250371796Y-142021938I129409J-482962D01*
G01*
X253738825Y-154577181D02*
G75*
G03*
X254351196Y-154930733I482963J129411D01*
G01*
X263894756Y-138398472D02*
G75*
G03*
X263282385Y-138044919I-482962J-129409D01*
G01*
X266905851Y-151567879D02*
G75*
G03*
X267259404Y-150955508I-129409J482962D01*
G01*
%TO.C,SW5*%
X162068907Y-75888643D02*
X162068907Y-88888643D01*
X162568907Y-89388643D02*
X175568907Y-89388643D01*
X175568907Y-75388643D02*
X162568907Y-75388643D01*
X176068907Y-88888643D02*
X176068907Y-75888643D01*
X162568907Y-75388643D02*
G75*
G03*
X162068907Y-75888643I1J-500001D01*
G01*
X162071671Y-88887527D02*
G75*
G03*
X162571671Y-89387527I500001J1D01*
G01*
X176068907Y-75888643D02*
G75*
G03*
X175568907Y-75388643I-500000J0D01*
G01*
X175568907Y-89388643D02*
G75*
G03*
X176068907Y-88888643I0J500000D01*
G01*
%TO.C,SW23*%
X165368907Y-136988644D02*
X165368907Y-149988644D01*
X165868907Y-150488644D02*
X178868907Y-150488644D01*
X178868907Y-136488644D02*
X165868907Y-136488644D01*
X179368907Y-149988644D02*
X179368907Y-136988644D01*
X165868907Y-136488644D02*
G75*
G03*
X165368907Y-136988644I1J-500001D01*
G01*
X165371671Y-149987528D02*
G75*
G03*
X165871671Y-150487528I500001J1D01*
G01*
X179368907Y-136988644D02*
G75*
G03*
X178868907Y-136488644I-500000J0D01*
G01*
X178868907Y-150488644D02*
G75*
G03*
X179368907Y-149988644I0J500000D01*
G01*
%TO.C,SW3*%
X123968909Y-75888644D02*
X123968909Y-88888644D01*
X124468909Y-89388644D02*
X137468909Y-89388644D01*
X137468909Y-75388644D02*
X124468909Y-75388644D01*
X137968909Y-88888644D02*
X137968909Y-75888644D01*
X124468909Y-75388644D02*
G75*
G03*
X123968909Y-75888644I1J-500001D01*
G01*
X123971673Y-88887528D02*
G75*
G03*
X124471673Y-89387528I500001J1D01*
G01*
X137968909Y-75888644D02*
G75*
G03*
X137468909Y-75388644I-500000J0D01*
G01*
X137468909Y-89388644D02*
G75*
G03*
X137968909Y-88888644I0J500000D01*
G01*
%TD*%
M02*
