M48
; DRILL file {KiCad 7.0.2-6a45011f42~172~ubuntu22.04.1} date Mi 03 Mai 2023 16:23:00 CEST
; FORMAT={-:-/ absolute / inch / decimal}
; #@! TF.CreationDate,2023-05-03T16:23:00+02:00
; #@! TF.GenerationSoftware,Kicad,Pcbnew,7.0.2-6a45011f42~172~ubuntu22.04.1
; #@! TF.FileFunction,NonPlated,1,2,NPTH
FMAT,2
INCH
; #@! TA.AperFunction,NonPlated,NPTH,ComponentDrill
T1C0.0310
; #@! TA.AperFunction,NonPlated,NPTH,ComponentDrill
T2C0.0866
%
G90
G05
T1
X7.7913Y-4.9146
X7.7913Y-4.9646
X7.7913Y-5.0146
X7.7913Y-5.0646
X7.7913Y-5.1146
X7.7923Y-3.2795
X7.7923Y-3.3295
X7.7923Y-3.3795
X7.7923Y-3.4295
X7.7923Y-3.4795
X10.0522Y-4.9154
X10.0522Y-4.9654
X10.0522Y-5.0154
X10.0522Y-5.0654
X10.0522Y-5.1154
X10.0531Y-3.2787
X10.0531Y-3.3287
X10.0531Y-3.3787
X10.0531Y-3.4287
X10.0531Y-3.4787
T2
X4.0214Y-3.5029
X4.0242Y-5.1608
X5.5348Y-3.0643
X6.2994Y-4.3623
X8.1352Y-5.7194
X9.7067Y-5.7194
X11.5425Y-4.3624
X12.2872Y-3.4309
X13.801Y-5.1551
X13.8107Y-3.6653
T0
M30
