%TF.GenerationSoftware,KiCad,Pcbnew,7.0.2-6a45011f42~172~ubuntu22.04.1*%
%TF.CreationDate,2023-05-03T16:23:01+02:00*%
%TF.ProjectId,plate,706c6174-652e-46b6-9963-61645f706362,rev?*%
%TF.SameCoordinates,Original*%
%TF.FileFunction,Legend,Top*%
%TF.FilePolarity,Positive*%
%FSLAX46Y46*%
G04 Gerber Fmt 4.6, Leading zero omitted, Abs format (unit mm)*
G04 Created by KiCad (PCBNEW 7.0.2-6a45011f42~172~ubuntu22.04.1) date 2023-05-03 16:23:01*
%MOMM*%
%LPD*%
G01*
G04 APERTURE LIST*
%ADD10C,0.150000*%
G04 APERTURE END LIST*
D10*
X220805951Y-88612619D02*
X220805951Y-89326904D01*
X220805951Y-89326904D02*
X220758332Y-89469761D01*
X220758332Y-89469761D02*
X220663094Y-89565000D01*
X220663094Y-89565000D02*
X220520237Y-89612619D01*
X220520237Y-89612619D02*
X220424999Y-89612619D01*
X221758332Y-89612619D02*
X221282142Y-89612619D01*
X221282142Y-89612619D02*
X221282142Y-88612619D01*
X222663094Y-89517380D02*
X222615475Y-89565000D01*
X222615475Y-89565000D02*
X222472618Y-89612619D01*
X222472618Y-89612619D02*
X222377380Y-89612619D01*
X222377380Y-89612619D02*
X222234523Y-89565000D01*
X222234523Y-89565000D02*
X222139285Y-89469761D01*
X222139285Y-89469761D02*
X222091666Y-89374523D01*
X222091666Y-89374523D02*
X222044047Y-89184047D01*
X222044047Y-89184047D02*
X222044047Y-89041190D01*
X222044047Y-89041190D02*
X222091666Y-88850714D01*
X222091666Y-88850714D02*
X222139285Y-88755476D01*
X222139285Y-88755476D02*
X222234523Y-88660238D01*
X222234523Y-88660238D02*
X222377380Y-88612619D01*
X222377380Y-88612619D02*
X222472618Y-88612619D01*
X222472618Y-88612619D02*
X222615475Y-88660238D01*
X222615475Y-88660238D02*
X222663094Y-88707857D01*
X223377380Y-88612619D02*
X223377380Y-89326904D01*
X223377380Y-89326904D02*
X223329761Y-89469761D01*
X223329761Y-89469761D02*
X223234523Y-89565000D01*
X223234523Y-89565000D02*
X223091666Y-89612619D01*
X223091666Y-89612619D02*
X222996428Y-89612619D01*
X224329761Y-89612619D02*
X223853571Y-89612619D01*
X223853571Y-89612619D02*
X223853571Y-88612619D01*
X225234523Y-89517380D02*
X225186904Y-89565000D01*
X225186904Y-89565000D02*
X225044047Y-89612619D01*
X225044047Y-89612619D02*
X224948809Y-89612619D01*
X224948809Y-89612619D02*
X224805952Y-89565000D01*
X224805952Y-89565000D02*
X224710714Y-89469761D01*
X224710714Y-89469761D02*
X224663095Y-89374523D01*
X224663095Y-89374523D02*
X224615476Y-89184047D01*
X224615476Y-89184047D02*
X224615476Y-89041190D01*
X224615476Y-89041190D02*
X224663095Y-88850714D01*
X224663095Y-88850714D02*
X224710714Y-88755476D01*
X224710714Y-88755476D02*
X224805952Y-88660238D01*
X224805952Y-88660238D02*
X224948809Y-88612619D01*
X224948809Y-88612619D02*
X225044047Y-88612619D01*
X225044047Y-88612619D02*
X225186904Y-88660238D01*
X225186904Y-88660238D02*
X225234523Y-88707857D01*
X225948809Y-88612619D02*
X225948809Y-89326904D01*
X225948809Y-89326904D02*
X225901190Y-89469761D01*
X225901190Y-89469761D02*
X225805952Y-89565000D01*
X225805952Y-89565000D02*
X225663095Y-89612619D01*
X225663095Y-89612619D02*
X225567857Y-89612619D01*
X226901190Y-89612619D02*
X226425000Y-89612619D01*
X226425000Y-89612619D02*
X226425000Y-88612619D01*
X227805952Y-89517380D02*
X227758333Y-89565000D01*
X227758333Y-89565000D02*
X227615476Y-89612619D01*
X227615476Y-89612619D02*
X227520238Y-89612619D01*
X227520238Y-89612619D02*
X227377381Y-89565000D01*
X227377381Y-89565000D02*
X227282143Y-89469761D01*
X227282143Y-89469761D02*
X227234524Y-89374523D01*
X227234524Y-89374523D02*
X227186905Y-89184047D01*
X227186905Y-89184047D02*
X227186905Y-89041190D01*
X227186905Y-89041190D02*
X227234524Y-88850714D01*
X227234524Y-88850714D02*
X227282143Y-88755476D01*
X227282143Y-88755476D02*
X227377381Y-88660238D01*
X227377381Y-88660238D02*
X227520238Y-88612619D01*
X227520238Y-88612619D02*
X227615476Y-88612619D01*
X227615476Y-88612619D02*
X227758333Y-88660238D01*
X227758333Y-88660238D02*
X227805952Y-88707857D01*
X228520238Y-88612619D02*
X228520238Y-89326904D01*
X228520238Y-89326904D02*
X228472619Y-89469761D01*
X228472619Y-89469761D02*
X228377381Y-89565000D01*
X228377381Y-89565000D02*
X228234524Y-89612619D01*
X228234524Y-89612619D02*
X228139286Y-89612619D01*
X229472619Y-89612619D02*
X228996429Y-89612619D01*
X228996429Y-89612619D02*
X228996429Y-88612619D01*
X230377381Y-89517380D02*
X230329762Y-89565000D01*
X230329762Y-89565000D02*
X230186905Y-89612619D01*
X230186905Y-89612619D02*
X230091667Y-89612619D01*
X230091667Y-89612619D02*
X229948810Y-89565000D01*
X229948810Y-89565000D02*
X229853572Y-89469761D01*
X229853572Y-89469761D02*
X229805953Y-89374523D01*
X229805953Y-89374523D02*
X229758334Y-89184047D01*
X229758334Y-89184047D02*
X229758334Y-89041190D01*
X229758334Y-89041190D02*
X229805953Y-88850714D01*
X229805953Y-88850714D02*
X229853572Y-88755476D01*
X229853572Y-88755476D02*
X229948810Y-88660238D01*
X229948810Y-88660238D02*
X230091667Y-88612619D01*
X230091667Y-88612619D02*
X230186905Y-88612619D01*
X230186905Y-88612619D02*
X230329762Y-88660238D01*
X230329762Y-88660238D02*
X230377381Y-88707857D01*
M02*
