%TF.GenerationSoftware,KiCad,Pcbnew,7.0.2-6a45011f42~172~ubuntu22.04.1*%
%TF.CreationDate,2023-05-03T16:23:02+02:00*%
%TF.ProjectId,plate,706c6174-652e-46b6-9963-61645f706362,rev?*%
%TF.SameCoordinates,Original*%
%TF.FileFunction,Soldermask,Bot*%
%TF.FilePolarity,Negative*%
%FSLAX46Y46*%
G04 Gerber Fmt 4.6, Leading zero omitted, Abs format (unit mm)*
G04 Created by KiCad (PCBNEW 7.0.2-6a45011f42~172~ubuntu22.04.1) date 2023-05-03 16:23:02*
%MOMM*%
%LPD*%
G01*
G04 APERTURE LIST*
%ADD10C,1.100000*%
%ADD11C,2.200000*%
%ADD12C,0.787400*%
G04 APERTURE END LIST*
D10*
%TO.C,SW24*%
X185925105Y-150955428D02*
X189289753Y-138398392D01*
X189902125Y-138044838D02*
X202459161Y-141409486D01*
X198835695Y-154932448D02*
X186278659Y-151567800D01*
X202812715Y-142021858D02*
X199448067Y-154578894D01*
X189902125Y-138044839D02*
G75*
G03*
X189289754Y-138398392I-129409J-482962D01*
G01*
X185925106Y-150955428D02*
G75*
G03*
X186278659Y-151567799I482962J-129409D01*
G01*
X202812714Y-142021858D02*
G75*
G03*
X202459161Y-141409487I-482962J129409D01*
G01*
X198833314Y-154930655D02*
G75*
G03*
X199445685Y-154577101I129447J482896D01*
G01*
%TO.C,SW8*%
X104918911Y-119813645D02*
X104918911Y-106813645D01*
X105418911Y-106313645D02*
X118418911Y-106313645D01*
X118418911Y-120313645D02*
X105418911Y-120313645D01*
X118918911Y-106813645D02*
X118918911Y-119813645D01*
X105418911Y-106313645D02*
G75*
G03*
X104918911Y-106813645I1J-500001D01*
G01*
X104918911Y-119813645D02*
G75*
G03*
X105418911Y-120313645I500001J1D01*
G01*
X118918911Y-106813645D02*
G75*
G03*
X118418911Y-106313645I-500000J0D01*
G01*
X118416147Y-120312531D02*
G75*
G03*
X118916147Y-119812529I54J499946D01*
G01*
%TO.C,SW28*%
X296165603Y-84138690D02*
X296165603Y-71138690D01*
X296665603Y-70638690D02*
X309665603Y-70638690D01*
X309665603Y-84638690D02*
X296665603Y-84638690D01*
X310165603Y-71138690D02*
X310165603Y-84138690D01*
X296665603Y-70638690D02*
G75*
G03*
X296165603Y-71138690I1J-500001D01*
G01*
X296165603Y-84138690D02*
G75*
G03*
X296665603Y-84638690I500001J1D01*
G01*
X310165603Y-71138690D02*
G75*
G03*
X309665603Y-70638690I-500000J0D01*
G01*
X309662839Y-84637576D02*
G75*
G03*
X310162839Y-84137574I54J499946D01*
G01*
%TO.C,SW47*%
X353315599Y-138863727D02*
X353315599Y-125863727D01*
X353815599Y-125363727D02*
X366815599Y-125363727D01*
X366815599Y-139363727D02*
X353815599Y-139363727D01*
X367315599Y-125863727D02*
X367315599Y-138863727D01*
X353815599Y-125363727D02*
G75*
G03*
X353315599Y-125863727I1J-500001D01*
G01*
X353315599Y-138863727D02*
G75*
G03*
X353815599Y-139363727I500001J1D01*
G01*
X367315599Y-125863727D02*
G75*
G03*
X366815599Y-125363727I-500000J0D01*
G01*
X366812835Y-139362613D02*
G75*
G03*
X367312835Y-138862611I54J499946D01*
G01*
%TO.C,SW38*%
X353315599Y-119813706D02*
X353315599Y-106813706D01*
X353815599Y-106313706D02*
X366815599Y-106313706D01*
X366815599Y-120313706D02*
X353815599Y-120313706D01*
X367315599Y-106813706D02*
X367315599Y-119813706D01*
X353815599Y-106313706D02*
G75*
G03*
X353315599Y-106813706I1J-500001D01*
G01*
X353315599Y-119813706D02*
G75*
G03*
X353815599Y-120313706I500001J1D01*
G01*
X367315599Y-106813706D02*
G75*
G03*
X366815599Y-106313706I-500000J0D01*
G01*
X366812835Y-120312592D02*
G75*
G03*
X367312835Y-119812590I54J499946D01*
G01*
%TO.C,SW37*%
X334265599Y-119813707D02*
X334265599Y-106813707D01*
X334765599Y-106313707D02*
X347765599Y-106313707D01*
X347765599Y-120313707D02*
X334765599Y-120313707D01*
X348265599Y-106813707D02*
X348265599Y-119813707D01*
X334765599Y-106313707D02*
G75*
G03*
X334265599Y-106813707I1J-500001D01*
G01*
X334265599Y-119813707D02*
G75*
G03*
X334765599Y-120313707I500001J1D01*
G01*
X348265599Y-106813707D02*
G75*
G03*
X347765599Y-106313707I-500000J0D01*
G01*
X347762835Y-120312593D02*
G75*
G03*
X348262835Y-119812591I54J499946D01*
G01*
%TO.C,SW50*%
X273815601Y-149988722D02*
X273815601Y-136988722D01*
X274315601Y-136488722D02*
X287315601Y-136488722D01*
X287315601Y-150488722D02*
X274315601Y-150488722D01*
X287815601Y-136988722D02*
X287815601Y-149988722D01*
X274315601Y-136488722D02*
G75*
G03*
X273815601Y-136988722I1J-500001D01*
G01*
X273815601Y-149988722D02*
G75*
G03*
X274315601Y-150488722I500001J1D01*
G01*
X287815601Y-136988722D02*
G75*
G03*
X287315601Y-136488722I-500000J0D01*
G01*
X287312837Y-150487608D02*
G75*
G03*
X287812837Y-149987606I54J499946D01*
G01*
%TO.C,SW46*%
X334265600Y-138863723D02*
X334265600Y-125863723D01*
X334765600Y-125363723D02*
X347765600Y-125363723D01*
X347765600Y-139363723D02*
X334765600Y-139363723D01*
X348265600Y-125863723D02*
X348265600Y-138863723D01*
X334765600Y-125363723D02*
G75*
G03*
X334265600Y-125863723I1J-500001D01*
G01*
X334265600Y-138863723D02*
G75*
G03*
X334765600Y-139363723I500001J1D01*
G01*
X348265600Y-125863723D02*
G75*
G03*
X347765600Y-125363723I-500000J0D01*
G01*
X347762836Y-139362609D02*
G75*
G03*
X348262836Y-138862607I54J499946D01*
G01*
%TO.C,SW17*%
X143018909Y-122238642D02*
X143018909Y-109238642D01*
X143518909Y-108738642D02*
X156518909Y-108738642D01*
X156518909Y-122738642D02*
X143518909Y-122738642D01*
X157018909Y-109238642D02*
X157018909Y-122238642D01*
X143518909Y-108738642D02*
G75*
G03*
X143018909Y-109238642I1J-500001D01*
G01*
X143018909Y-122238642D02*
G75*
G03*
X143518909Y-122738642I500001J1D01*
G01*
X157018909Y-109238642D02*
G75*
G03*
X156518909Y-108738642I-500000J0D01*
G01*
X156516145Y-122737528D02*
G75*
G03*
X157016145Y-122237526I54J499946D01*
G01*
%TO.C,SW33*%
X258065598Y-110313709D02*
X258065598Y-97313709D01*
X258565598Y-96813709D02*
X271565598Y-96813709D01*
X271565598Y-110813709D02*
X258565598Y-110813709D01*
X272065598Y-97313709D02*
X272065598Y-110313709D01*
X258565598Y-96813709D02*
G75*
G03*
X258065598Y-97313709I1J-500001D01*
G01*
X258065598Y-110313709D02*
G75*
G03*
X258565598Y-110813709I500001J1D01*
G01*
X272065598Y-97313709D02*
G75*
G03*
X271565598Y-96813709I-500000J0D01*
G01*
X271562834Y-110812595D02*
G75*
G03*
X272062834Y-110312593I54J499946D01*
G01*
%TO.C,SW34*%
X277115599Y-107938709D02*
X277115599Y-94938709D01*
X277615599Y-94438709D02*
X290615599Y-94438709D01*
X290615599Y-108438709D02*
X277615599Y-108438709D01*
X291115599Y-94938709D02*
X291115599Y-107938709D01*
X277615599Y-94438709D02*
G75*
G03*
X277115599Y-94938709I1J-500001D01*
G01*
X277115599Y-107938709D02*
G75*
G03*
X277615599Y-108438709I500001J1D01*
G01*
X291115599Y-94938709D02*
G75*
G03*
X290615599Y-94438709I-500000J0D01*
G01*
X290612835Y-108437595D02*
G75*
G03*
X291112835Y-107937593I54J499946D01*
G01*
%TO.C,SW4*%
X143018910Y-84138643D02*
X143018910Y-71138643D01*
X143518910Y-70638643D02*
X156518910Y-70638643D01*
X156518910Y-84638643D02*
X143518910Y-84638643D01*
X157018910Y-71138643D02*
X157018910Y-84138643D01*
X143518910Y-70638643D02*
G75*
G03*
X143018910Y-71138643I1J-500001D01*
G01*
X143018910Y-84138643D02*
G75*
G03*
X143518910Y-84638643I500001J1D01*
G01*
X157018910Y-71138643D02*
G75*
G03*
X156518910Y-70638643I-500000J0D01*
G01*
X156516146Y-84637529D02*
G75*
G03*
X157016146Y-84137527I54J499946D01*
G01*
%TO.C,SW16*%
X123968907Y-126988648D02*
X123968907Y-113988648D01*
X124468907Y-113488648D02*
X137468907Y-113488648D01*
X137468907Y-127488648D02*
X124468907Y-127488648D01*
X137968907Y-113988648D02*
X137968907Y-126988648D01*
X124468907Y-113488648D02*
G75*
G03*
X123968907Y-113988648I1J-500001D01*
G01*
X123968907Y-126988648D02*
G75*
G03*
X124468907Y-127488648I500001J1D01*
G01*
X137968907Y-113988648D02*
G75*
G03*
X137468907Y-113488648I-500000J0D01*
G01*
X137466143Y-127487534D02*
G75*
G03*
X137966143Y-126987532I54J499946D01*
G01*
%TO.C,SW2*%
X104918911Y-100763644D02*
X104918911Y-87763644D01*
X105418911Y-87263644D02*
X118418911Y-87263644D01*
X118418911Y-101263644D02*
X105418911Y-101263644D01*
X118918911Y-87763644D02*
X118918911Y-100763644D01*
X105418911Y-87263644D02*
G75*
G03*
X104918911Y-87763644I1J-500001D01*
G01*
X104918911Y-100763644D02*
G75*
G03*
X105418911Y-101263644I500001J1D01*
G01*
X118918911Y-87763644D02*
G75*
G03*
X118418911Y-87263644I-500000J0D01*
G01*
X118416147Y-101262530D02*
G75*
G03*
X118916147Y-100762528I54J499946D01*
G01*
%TO.C,SW30*%
X334265597Y-100763692D02*
X334265597Y-87763692D01*
X334765597Y-87263692D02*
X347765597Y-87263692D01*
X347765597Y-101263692D02*
X334765597Y-101263692D01*
X348265597Y-87763692D02*
X348265597Y-100763692D01*
X334765597Y-87263692D02*
G75*
G03*
X334265597Y-87763692I1J-500001D01*
G01*
X334265597Y-100763692D02*
G75*
G03*
X334765597Y-101263692I500001J1D01*
G01*
X348265597Y-87763692D02*
G75*
G03*
X347765597Y-87263692I-500000J0D01*
G01*
X347762833Y-101262578D02*
G75*
G03*
X348262833Y-100762576I54J499946D01*
G01*
%TO.C,SW18*%
X162068911Y-126988643D02*
X162068911Y-113988643D01*
X162568911Y-113488643D02*
X175568911Y-113488643D01*
X175568911Y-127488643D02*
X162568911Y-127488643D01*
X176068911Y-113988643D02*
X176068911Y-126988643D01*
X162568911Y-113488643D02*
G75*
G03*
X162068911Y-113988643I1J-500001D01*
G01*
X162068911Y-126988643D02*
G75*
G03*
X162568911Y-127488643I500001J1D01*
G01*
X176068911Y-113988643D02*
G75*
G03*
X175568911Y-113488643I-500000J0D01*
G01*
X175566147Y-127487529D02*
G75*
G03*
X176066147Y-126987527I54J499946D01*
G01*
%TO.C,SW1*%
X85868911Y-100763643D02*
X85868911Y-87763643D01*
X86368911Y-87263643D02*
X99368911Y-87263643D01*
X99368911Y-101263643D02*
X86368911Y-101263643D01*
X99868911Y-87763643D02*
X99868911Y-100763643D01*
X86368911Y-87263643D02*
G75*
G03*
X85868911Y-87763643I1J-500001D01*
G01*
X85868911Y-100763643D02*
G75*
G03*
X86368911Y-101263643I500001J1D01*
G01*
X99868911Y-87763643D02*
G75*
G03*
X99368911Y-87263643I-500000J0D01*
G01*
X99366147Y-101262529D02*
G75*
G03*
X99866147Y-100762527I54J499946D01*
G01*
%TO.C,SW14*%
X85868907Y-138863645D02*
X85868907Y-125863645D01*
X86368907Y-125363645D02*
X99368907Y-125363645D01*
X99368907Y-139363645D02*
X86368907Y-139363645D01*
X99868907Y-125863645D02*
X99868907Y-138863645D01*
X86368907Y-125363645D02*
G75*
G03*
X85868907Y-125863645I1J-500001D01*
G01*
X85868907Y-138863645D02*
G75*
G03*
X86368907Y-139363645I500001J1D01*
G01*
X99868907Y-125863645D02*
G75*
G03*
X99368907Y-125363645I-500000J0D01*
G01*
X99366143Y-139362531D02*
G75*
G03*
X99866143Y-138862529I54J499946D01*
G01*
%TO.C,SW29*%
X315215594Y-88888691D02*
X315215594Y-75888691D01*
X315715594Y-75388691D02*
X328715594Y-75388691D01*
X328715594Y-89388691D02*
X315715594Y-89388691D01*
X329215594Y-75888691D02*
X329215594Y-88888691D01*
X315715594Y-75388691D02*
G75*
G03*
X315215594Y-75888691I1J-500001D01*
G01*
X315215594Y-88888691D02*
G75*
G03*
X315715594Y-89388691I500001J1D01*
G01*
X329215594Y-75888691D02*
G75*
G03*
X328715594Y-75388691I-500000J0D01*
G01*
X328712830Y-89387577D02*
G75*
G03*
X329212830Y-88887575I54J499946D01*
G01*
%TO.C,SW31*%
X353315598Y-100763691D02*
X353315598Y-87763691D01*
X353815598Y-87263691D02*
X366815598Y-87263691D01*
X366815598Y-101263691D02*
X353815598Y-101263691D01*
X367315598Y-87763691D02*
X367315598Y-100763691D01*
X353815598Y-87263691D02*
G75*
G03*
X353315598Y-87763691I1J-500001D01*
G01*
X353315598Y-100763691D02*
G75*
G03*
X353815598Y-101263691I500001J1D01*
G01*
X367315598Y-87763691D02*
G75*
G03*
X366815598Y-87263691I-500000J0D01*
G01*
X366812834Y-101262577D02*
G75*
G03*
X367312834Y-100762575I54J499946D01*
G01*
%TO.C,SW12*%
X181118910Y-110313647D02*
X181118910Y-97313647D01*
X181618910Y-96813647D02*
X194618910Y-96813647D01*
X194618910Y-110813647D02*
X181618910Y-110813647D01*
X195118910Y-97313647D02*
X195118910Y-110313647D01*
X181618910Y-96813647D02*
G75*
G03*
X181118910Y-97313647I1J-500001D01*
G01*
X181118910Y-110313647D02*
G75*
G03*
X181618910Y-110813647I500001J1D01*
G01*
X195118910Y-97313647D02*
G75*
G03*
X194618910Y-96813647I-500000J0D01*
G01*
X194616146Y-110812533D02*
G75*
G03*
X195116146Y-110312531I54J499946D01*
G01*
%TO.C,SW45*%
X315215598Y-126988726D02*
X315215598Y-113988726D01*
X315715598Y-113488726D02*
X328715598Y-113488726D01*
X328715598Y-127488726D02*
X315715598Y-127488726D01*
X329215598Y-113988726D02*
X329215598Y-126988726D01*
X315715598Y-113488726D02*
G75*
G03*
X315215598Y-113988726I1J-500001D01*
G01*
X315215598Y-126988726D02*
G75*
G03*
X315715598Y-127488726I500001J1D01*
G01*
X329215598Y-113988726D02*
G75*
G03*
X328715598Y-113488726I-500000J0D01*
G01*
X328712834Y-127487612D02*
G75*
G03*
X329212834Y-126987610I54J499946D01*
G01*
%TO.C,SW42*%
X258065597Y-129363723D02*
X258065597Y-116363723D01*
X258565597Y-115863723D02*
X271565597Y-115863723D01*
X271565597Y-129863723D02*
X258565597Y-129863723D01*
X272065597Y-116363723D02*
X272065597Y-129363723D01*
X258565597Y-115863723D02*
G75*
G03*
X258065597Y-116363723I1J-500001D01*
G01*
X258065597Y-129363723D02*
G75*
G03*
X258565597Y-129863723I500001J1D01*
G01*
X272065597Y-116363723D02*
G75*
G03*
X271565597Y-115863723I-500000J0D01*
G01*
X271562833Y-129862609D02*
G75*
G03*
X272062833Y-129362607I54J499946D01*
G01*
%TO.C,SW11*%
X162068911Y-107938643D02*
X162068911Y-94938643D01*
X162568911Y-94438643D02*
X175568911Y-94438643D01*
X175568911Y-108438643D02*
X162568911Y-108438643D01*
X176068911Y-94938643D02*
X176068911Y-107938643D01*
X162568911Y-94438643D02*
G75*
G03*
X162068911Y-94938643I1J-500001D01*
G01*
X162068911Y-107938643D02*
G75*
G03*
X162568911Y-108438643I500001J1D01*
G01*
X176068911Y-94938643D02*
G75*
G03*
X175568911Y-94438643I-500000J0D01*
G01*
X175566147Y-108437529D02*
G75*
G03*
X176066147Y-107937527I54J499946D01*
G01*
%TO.C,SW15*%
X104918909Y-138863644D02*
X104918909Y-125863644D01*
X105418909Y-125363644D02*
X118418909Y-125363644D01*
X118418909Y-139363644D02*
X105418909Y-139363644D01*
X118918909Y-125863644D02*
X118918909Y-138863644D01*
X105418909Y-125363644D02*
G75*
G03*
X104918909Y-125863644I1J-500001D01*
G01*
X104918909Y-138863644D02*
G75*
G03*
X105418909Y-139363644I500001J1D01*
G01*
X118918909Y-125863644D02*
G75*
G03*
X118418909Y-125363644I-500000J0D01*
G01*
X118416145Y-139362530D02*
G75*
G03*
X118916145Y-138862528I54J499946D01*
G01*
%TO.C,SW35*%
X296165600Y-103188706D02*
X296165600Y-90188706D01*
X296665600Y-89688706D02*
X309665600Y-89688706D01*
X309665600Y-103688706D02*
X296665600Y-103688706D01*
X310165600Y-90188706D02*
X310165600Y-103188706D01*
X296665600Y-89688706D02*
G75*
G03*
X296165600Y-90188706I1J-500001D01*
G01*
X296165600Y-103188706D02*
G75*
G03*
X296665600Y-103688706I500001J1D01*
G01*
X310165600Y-90188706D02*
G75*
G03*
X309665600Y-89688706I-500000J0D01*
G01*
X309662836Y-103687592D02*
G75*
G03*
X310162836Y-103187590I54J499946D01*
G01*
%TO.C,SW19*%
X181118909Y-129363643D02*
X181118909Y-116363643D01*
X181618909Y-115863643D02*
X194618909Y-115863643D01*
X194618909Y-129863643D02*
X181618909Y-129863643D01*
X195118909Y-116363643D02*
X195118909Y-129363643D01*
X181618909Y-115863643D02*
G75*
G03*
X181118909Y-116363643I1J-500001D01*
G01*
X181118909Y-129363643D02*
G75*
G03*
X181618909Y-129863643I500001J1D01*
G01*
X195118909Y-116363643D02*
G75*
G03*
X194618909Y-115863643I-500000J0D01*
G01*
X194616145Y-129862529D02*
G75*
G03*
X195116145Y-129362527I54J499946D01*
G01*
%TO.C,SW25*%
X205556733Y-157117810D02*
X212056733Y-145859480D01*
X212739746Y-145676467D02*
X223998076Y-152176467D01*
X216998076Y-164300823D02*
X205739746Y-157800823D01*
X224181089Y-152859480D02*
X217681089Y-164117810D01*
X212739745Y-145676468D02*
G75*
G03*
X212056734Y-145859480I-249999J-433013D01*
G01*
X205556734Y-157117811D02*
G75*
G03*
X205739746Y-157800822I433013J-249999D01*
G01*
X224181089Y-152859480D02*
G75*
G03*
X223998076Y-152176467I-433013J250000D01*
G01*
X216996239Y-164298476D02*
G75*
G03*
X217679253Y-164115462I250020J432939D01*
G01*
%TO.C,SW9*%
X123968909Y-107938643D02*
X123968909Y-94938643D01*
X124468909Y-94438643D02*
X137468909Y-94438643D01*
X137468909Y-108438643D02*
X124468909Y-108438643D01*
X137968909Y-94938643D02*
X137968909Y-107938643D01*
X124468909Y-94438643D02*
G75*
G03*
X123968909Y-94938643I1J-500001D01*
G01*
X123968909Y-107938643D02*
G75*
G03*
X124468909Y-108438643I500001J1D01*
G01*
X137968909Y-94938643D02*
G75*
G03*
X137468909Y-94438643I-500000J0D01*
G01*
X137466145Y-108437529D02*
G75*
G03*
X137966145Y-107937527I54J499946D01*
G01*
%TO.C,SW48*%
X235503421Y-164117890D02*
X229003421Y-152859560D01*
X229186434Y-152176547D02*
X240444764Y-145676547D01*
X247444764Y-157800903D02*
X236186434Y-164300903D01*
X241127777Y-145859560D02*
X247627777Y-157117890D01*
X229186434Y-152176547D02*
G75*
G03*
X229003421Y-152859560I250001J-433013D01*
G01*
X235503421Y-164117890D02*
G75*
G03*
X236186434Y-164300903I433013J250001D01*
G01*
X241127777Y-145859560D02*
G75*
G03*
X240444764Y-145676547I-433013J-250000D01*
G01*
X247441813Y-157801319D02*
G75*
G03*
X247624824Y-157118306I-249926J432992D01*
G01*
%TO.C,SW43*%
X277115601Y-126988723D02*
X277115601Y-113988723D01*
X277615601Y-113488723D02*
X290615601Y-113488723D01*
X290615601Y-127488723D02*
X277615601Y-127488723D01*
X291115601Y-113988723D02*
X291115601Y-126988723D01*
X277615601Y-113488723D02*
G75*
G03*
X277115601Y-113988723I1J-500001D01*
G01*
X277115601Y-126988723D02*
G75*
G03*
X277615601Y-127488723I500001J1D01*
G01*
X291115601Y-113988723D02*
G75*
G03*
X290615601Y-113488723I-500000J0D01*
G01*
X290612837Y-127487609D02*
G75*
G03*
X291112837Y-126987607I54J499946D01*
G01*
%TO.C,SW7*%
X85868911Y-119813642D02*
X85868911Y-106813642D01*
X86368911Y-106313642D02*
X99368911Y-106313642D01*
X99368911Y-120313642D02*
X86368911Y-120313642D01*
X99868911Y-106813642D02*
X99868911Y-119813642D01*
X86368911Y-106313642D02*
G75*
G03*
X85868911Y-106813642I1J-500001D01*
G01*
X85868911Y-119813642D02*
G75*
G03*
X86368911Y-120313642I500001J1D01*
G01*
X99868911Y-106813642D02*
G75*
G03*
X99368911Y-106313642I-500000J0D01*
G01*
X99366147Y-120312528D02*
G75*
G03*
X99866147Y-119812526I54J499946D01*
G01*
%TO.C,SW44*%
X296165601Y-122238727D02*
X296165601Y-109238727D01*
X296665601Y-108738727D02*
X309665601Y-108738727D01*
X309665601Y-122738727D02*
X296665601Y-122738727D01*
X310165601Y-109238727D02*
X310165601Y-122238727D01*
X296665601Y-108738727D02*
G75*
G03*
X296165601Y-109238727I1J-500001D01*
G01*
X296165601Y-122238727D02*
G75*
G03*
X296665601Y-122738727I500001J1D01*
G01*
X310165601Y-109238727D02*
G75*
G03*
X309665601Y-108738727I-500000J0D01*
G01*
X309662837Y-122737613D02*
G75*
G03*
X310162837Y-122237611I54J499946D01*
G01*
%TO.C,SW10*%
X143018910Y-103188646D02*
X143018910Y-90188646D01*
X143518910Y-89688646D02*
X156518910Y-89688646D01*
X156518910Y-103688646D02*
X143518910Y-103688646D01*
X157018910Y-90188646D02*
X157018910Y-103188646D01*
X143518910Y-89688646D02*
G75*
G03*
X143018910Y-90188646I1J-500001D01*
G01*
X143018910Y-103188646D02*
G75*
G03*
X143518910Y-103688646I500001J1D01*
G01*
X157018910Y-90188646D02*
G75*
G03*
X156518910Y-89688646I-500000J0D01*
G01*
X156516146Y-103687532D02*
G75*
G03*
X157016146Y-103187530I54J499946D01*
G01*
%TO.C,SW27*%
X277115600Y-88888691D02*
X277115600Y-75888691D01*
X277615600Y-75388691D02*
X290615600Y-75388691D01*
X290615600Y-89388691D02*
X277615600Y-89388691D01*
X291115600Y-75888691D02*
X291115600Y-88888691D01*
X277615600Y-75388691D02*
G75*
G03*
X277115600Y-75888691I1J-500001D01*
G01*
X277115600Y-88888691D02*
G75*
G03*
X277615600Y-89388691I500001J1D01*
G01*
X291115600Y-75888691D02*
G75*
G03*
X290615600Y-75388691I-500000J0D01*
G01*
X290612836Y-89387577D02*
G75*
G03*
X291112836Y-88887575I54J499946D01*
G01*
%TO.C,SW6*%
X181118908Y-91263642D02*
X181118908Y-78263642D01*
X181618908Y-77763642D02*
X194618908Y-77763642D01*
X194618908Y-91763642D02*
X181618908Y-91763642D01*
X195118908Y-78263642D02*
X195118908Y-91263642D01*
X181618908Y-77763642D02*
G75*
G03*
X181118908Y-78263642I1J-500001D01*
G01*
X181118908Y-91263642D02*
G75*
G03*
X181618908Y-91763642I500001J1D01*
G01*
X195118908Y-78263642D02*
G75*
G03*
X194618908Y-77763642I-500000J0D01*
G01*
X194616144Y-91762528D02*
G75*
G03*
X195116144Y-91262526I54J499946D01*
G01*
%TO.C,SW36*%
X315215600Y-107938706D02*
X315215600Y-94938706D01*
X315715600Y-94438706D02*
X328715600Y-94438706D01*
X328715600Y-108438706D02*
X315715600Y-108438706D01*
X329215600Y-94938706D02*
X329215600Y-107938706D01*
X315715600Y-94438706D02*
G75*
G03*
X315215600Y-94938706I1J-500001D01*
G01*
X315215600Y-107938706D02*
G75*
G03*
X315715600Y-108438706I500001J1D01*
G01*
X329215600Y-94938706D02*
G75*
G03*
X328715600Y-94438706I-500000J0D01*
G01*
X328712836Y-108437592D02*
G75*
G03*
X329212836Y-107937590I54J499946D01*
G01*
%TO.C,SW26*%
X258065599Y-91263691D02*
X258065599Y-78263691D01*
X258565599Y-77763691D02*
X271565599Y-77763691D01*
X271565599Y-91763691D02*
X258565599Y-91763691D01*
X272065599Y-78263691D02*
X272065599Y-91263691D01*
X258565599Y-77763691D02*
G75*
G03*
X258065599Y-78263691I1J-500001D01*
G01*
X258065599Y-91263691D02*
G75*
G03*
X258565599Y-91763691I500001J1D01*
G01*
X272065599Y-78263691D02*
G75*
G03*
X271565599Y-77763691I-500000J0D01*
G01*
X271562835Y-91762577D02*
G75*
G03*
X272062835Y-91262575I54J499946D01*
G01*
%TO.C,SW49*%
X253736443Y-154578974D02*
X250371795Y-142021938D01*
X250725349Y-141409566D02*
X263282385Y-138044918D01*
X266905851Y-151567880D02*
X254348815Y-154932528D01*
X263894757Y-138398472D02*
X267259405Y-150955508D01*
X250725349Y-141409567D02*
G75*
G03*
X250371796Y-142021938I129409J-482962D01*
G01*
X253736444Y-154578974D02*
G75*
G03*
X254348815Y-154932527I482962J129409D01*
G01*
X263894756Y-138398472D02*
G75*
G03*
X263282385Y-138044919I-482962J-129409D01*
G01*
X266902893Y-151567519D02*
G75*
G03*
X267256445Y-150955145I-129343J482924D01*
G01*
%TO.C,SW5*%
X162068907Y-88888643D02*
X162068907Y-75888643D01*
X162568907Y-75388643D02*
X175568907Y-75388643D01*
X175568907Y-89388643D02*
X162568907Y-89388643D01*
X176068907Y-75888643D02*
X176068907Y-88888643D01*
X162568907Y-75388643D02*
G75*
G03*
X162068907Y-75888643I1J-500001D01*
G01*
X162068907Y-88888643D02*
G75*
G03*
X162568907Y-89388643I500001J1D01*
G01*
X176068907Y-75888643D02*
G75*
G03*
X175568907Y-75388643I-500000J0D01*
G01*
X175566143Y-89387529D02*
G75*
G03*
X176066143Y-88887527I54J499946D01*
G01*
%TO.C,SW23*%
X165368907Y-149988644D02*
X165368907Y-136988644D01*
X165868907Y-136488644D02*
X178868907Y-136488644D01*
X178868907Y-150488644D02*
X165868907Y-150488644D01*
X179368907Y-136988644D02*
X179368907Y-149988644D01*
X165868907Y-136488644D02*
G75*
G03*
X165368907Y-136988644I1J-500001D01*
G01*
X165368907Y-149988644D02*
G75*
G03*
X165868907Y-150488644I500001J1D01*
G01*
X179368907Y-136988644D02*
G75*
G03*
X178868907Y-136488644I-500000J0D01*
G01*
X178866143Y-150487530D02*
G75*
G03*
X179366143Y-149987528I54J499946D01*
G01*
%TO.C,SW3*%
X123968909Y-88888644D02*
X123968909Y-75888644D01*
X124468909Y-75388644D02*
X137468909Y-75388644D01*
X137468909Y-89388644D02*
X124468909Y-89388644D01*
X137968909Y-75888644D02*
X137968909Y-88888644D01*
X124468909Y-75388644D02*
G75*
G03*
X123968909Y-75888644I1J-500001D01*
G01*
X123968909Y-88888644D02*
G75*
G03*
X124468909Y-89388644I500001J1D01*
G01*
X137968909Y-75888644D02*
G75*
G03*
X137468909Y-75388644I-500000J0D01*
G01*
X137466145Y-89387530D02*
G75*
G03*
X137966145Y-88887528I54J499946D01*
G01*
%TD*%
D11*
%TO.C,H7*%
X350790673Y-93098077D03*
%TD*%
D12*
%TO.C,H15*%
X197900000Y-129910000D03*
X197900000Y-128640000D03*
X197900000Y-127370000D03*
X197900000Y-126100000D03*
X197900000Y-124830000D03*
%TD*%
D11*
%TO.C,H12*%
X293180597Y-110803709D03*
%TD*%
%TO.C,H3*%
X246550600Y-145273723D03*
%TD*%
D12*
%TO.C,H13*%
X197925000Y-88380000D03*
X197925000Y-87110000D03*
X197925000Y-85840000D03*
X197925000Y-84570000D03*
X197925000Y-83300000D03*
%TD*%
D11*
%TO.C,H10*%
X206633910Y-145273640D03*
%TD*%
%TO.C,H2*%
X102213909Y-131083641D03*
%TD*%
%TO.C,H1*%
X102143912Y-88973643D03*
%TD*%
D12*
%TO.C,H16*%
X255325000Y-129930000D03*
X255325000Y-128660000D03*
X255325000Y-127390000D03*
X255325000Y-126120000D03*
X255325000Y-124850000D03*
%TD*%
%TO.C,H14*%
X255350000Y-88360000D03*
X255350000Y-87090000D03*
X255350000Y-85820000D03*
X255350000Y-84550000D03*
X255350000Y-83280000D03*
%TD*%
D11*
%TO.C,H6*%
X160003912Y-110803644D03*
%TD*%
%TO.C,H5*%
X140583909Y-77833643D03*
%TD*%
%TO.C,H11*%
X350546651Y-130938644D03*
%TD*%
%TO.C,H8*%
X312095327Y-87144945D03*
%TD*%
M02*
