M48
; DRILL file {KiCad 7.0.2-6a45011f42~172~ubuntu22.04.1} date Mi 03 Mai 2023 16:22:17 CEST
; FORMAT={-:-/ absolute / inch / decimal}
; #@! TF.CreationDate,2023-05-03T16:22:17+02:00
; #@! TF.GenerationSoftware,Kicad,Pcbnew,7.0.2-6a45011f42~172~ubuntu22.04.1
; #@! TF.FileFunction,NonPlated,1,2,NPTH
FMAT,2
INCH
; #@! TA.AperFunction,NonPlated,NPTH,ComponentDrill
T1C0.0310
%
G90
G05
T1
X7.3872Y-3.2768
X7.3872Y-3.3268
X7.3872Y-3.3768
X7.3872Y-3.4268
X7.3872Y-3.4768
X7.3872Y-4.9185
X7.3872Y-4.9685
X7.3872Y-5.0185
X7.3872Y-5.0685
X7.3872Y-5.1185
X8.6242Y-3.2772
X8.6242Y-3.3272
X8.6242Y-3.3772
X8.6242Y-3.4272
X8.6242Y-3.4772
X8.6252Y-4.9179
X8.6252Y-4.9679
X8.6252Y-5.0179
X8.6252Y-5.0679
X8.6252Y-5.1179
T0
M30
