%TF.GenerationSoftware,KiCad,Pcbnew,7.0.2-6a45011f42~172~ubuntu22.04.1*%
%TF.CreationDate,2023-05-03T16:22:16+02:00*%
%TF.ProjectId,bottom,626f7474-6f6d-42e6-9b69-6361645f7063,rev?*%
%TF.SameCoordinates,Original*%
%TF.FileFunction,Drillmap*%
%TF.FilePolarity,Positive*%
%FSLAX45Y45*%
G04 Gerber Fmt 4.5, Leading zero omitted, Abs format (unit mm)*
G04 Created by KiCad (PCBNEW 7.0.2-6a45011f42~172~ubuntu22.04.1) date 2023-05-03 16:22:16*
%MOMM*%
%LPD*%
G01*
G04 APERTURE LIST*
%ADD10C,0.100000*%
%ADD11C,0.200000*%
%ADD12C,0.220000*%
G04 APERTURE END LIST*
D10*
X18727093Y-8283243D02*
X18786625Y-8283243D01*
X21941784Y-17195502D02*
G75*
G03*
X22001315Y-17212938I44656J42122D01*
G01*
X18667562Y-8045118D02*
X14738496Y-8045118D01*
X20411407Y-14432404D02*
G75*
G03*
X20393970Y-14474498I42143J-42116D01*
G01*
X18727093Y-8878556D02*
X18786625Y-8878556D01*
X18727093Y-13045747D02*
X18786624Y-13045747D01*
X18727093Y-8938087D02*
X18727093Y-8878556D01*
X5273019Y-8938088D02*
G75*
G03*
X5213488Y-8997619I11J-59542D01*
G01*
X27894913Y-7271212D02*
G75*
G03*
X27835382Y-7330742I-13J-59518D01*
G01*
X21941783Y-13521997D02*
X20411406Y-14432403D01*
X12833494Y-13402935D02*
G75*
G03*
X12893026Y-13462466I59526J-5D01*
G01*
X10928493Y-7330742D02*
X10928493Y-7747461D01*
X18727093Y-8104649D02*
X18727093Y-8283243D01*
X14738499Y-7806993D02*
G75*
G03*
X14678965Y-7747461I-59529J3D01*
G01*
X25930380Y-8045118D02*
X22001315Y-8045118D01*
X20257471Y-14432403D02*
X18727093Y-13521998D01*
X13071623Y-15724655D02*
G75*
G03*
X13131151Y-15784187I59537J5D01*
G01*
X14678965Y-7747461D02*
X12833495Y-7747462D01*
X21882252Y-12450434D02*
X21882252Y-8878556D01*
X12833489Y-7330742D02*
G75*
G03*
X12773963Y-7271211I-59519J12D01*
G01*
X9083022Y-7747461D02*
G75*
G03*
X9023491Y-7806993I-2J-59529D01*
G01*
X18786624Y-8045118D02*
X18786625Y-8283243D01*
X31645386Y-13462466D02*
X31645385Y-14593561D01*
X10928493Y-7747461D02*
X9083022Y-7747461D01*
X9023491Y-7806993D02*
X9023491Y-8938088D01*
X25573193Y-15784187D02*
X27537725Y-15784187D01*
X9023491Y-13462466D02*
X10868962Y-13462466D01*
X29740384Y-7747461D02*
X29740383Y-7330742D01*
X31645378Y-7806993D02*
G75*
G03*
X31585854Y-7747462I-59518J13D01*
G01*
X27775851Y-13462472D02*
G75*
G03*
X27835382Y-13402935I-31J59562D01*
G01*
X27835382Y-7330742D02*
X27835382Y-7747461D01*
X18786625Y-13462466D02*
X21882252Y-13462466D01*
X10928493Y-12986216D02*
X12833495Y-12986216D01*
X27597257Y-15724655D02*
X27597257Y-13462466D01*
X18727093Y-17195502D02*
X20274907Y-14474498D01*
X21882252Y-8045118D02*
X18786624Y-8045118D01*
X12833495Y-7747462D02*
X12833494Y-7330742D01*
X13071620Y-13462466D02*
X13071620Y-15724655D01*
X18727093Y-12450434D02*
X18727093Y-8938087D01*
X21882252Y-13462466D02*
X21882252Y-13045747D01*
X15095684Y-15784186D02*
X17060217Y-16319969D01*
X18667563Y-17212935D02*
G75*
G03*
X18727093Y-17195502I14877J59555D01*
G01*
X27537725Y-15784187D02*
G75*
G03*
X27597257Y-15724655I5J59527D01*
G01*
X21941783Y-12450434D02*
X21882252Y-12450434D01*
X29680852Y-7271211D02*
X27894913Y-7271211D01*
X9023491Y-8938088D02*
X5273019Y-8938087D01*
X10988024Y-7271203D02*
G75*
G03*
X10928493Y-7330742I6J-59537D01*
G01*
X20393970Y-14474498D02*
X21941783Y-17195502D01*
X12833495Y-12986216D02*
X12833494Y-13402935D01*
X13131151Y-15784187D02*
X15095684Y-15784186D01*
X29799915Y-13462466D02*
X31645386Y-13462466D01*
X29740384Y-13402935D02*
G75*
G03*
X29799915Y-13462466I59546J15D01*
G01*
X5213488Y-8997619D02*
X5213488Y-14593560D01*
X5213488Y-14593560D02*
G75*
G03*
X5273020Y-14653092I59522J-10D01*
G01*
X17060217Y-16319969D02*
X18667562Y-17212938D01*
X14738496Y-8045118D02*
X14738496Y-7806993D01*
X10868962Y-13462463D02*
G75*
G03*
X10928493Y-13402935I8J59523D01*
G01*
X22001315Y-8045123D02*
G75*
G03*
X21941783Y-8104649I5J-59537D01*
G01*
X18727092Y-8104649D02*
G75*
G03*
X18667562Y-8045118I-59522J9D01*
G01*
X31645385Y-8938087D02*
X31645385Y-7806993D01*
X21882252Y-8283243D02*
X21882252Y-8045118D01*
X8963960Y-14653101D02*
G75*
G03*
X9023491Y-14593561I0J59531D01*
G01*
X12893026Y-13462466D02*
X13071620Y-13462466D01*
X9023491Y-14593561D02*
X9023491Y-13462466D01*
X21941784Y-8283243D02*
X21941783Y-8104649D01*
X21941783Y-13045747D02*
X21941783Y-13521997D01*
X12773963Y-7271211D02*
X10988024Y-7271211D01*
X18786624Y-13045747D02*
X18786625Y-13462466D01*
X20274907Y-14474498D02*
G75*
G03*
X20257471Y-14432403I-59487J18D01*
G01*
X21882252Y-13045747D02*
X21941783Y-13045747D01*
X10928493Y-13402935D02*
X10928493Y-12986216D01*
X18786625Y-8878556D02*
X18786625Y-8938087D01*
X27835382Y-12986216D02*
X29740384Y-12986215D01*
X21882252Y-8878556D02*
X21941783Y-8878556D01*
X35395857Y-14653098D02*
G75*
G03*
X35455388Y-14593561I-7J59538D01*
G01*
X21941783Y-8878556D02*
X21941783Y-12450434D01*
X18786625Y-8938087D02*
X18786624Y-12450434D01*
X31645388Y-14593561D02*
G75*
G03*
X31704917Y-14653092I59532J1D01*
G01*
X35455388Y-14593561D02*
X35455388Y-8997618D01*
X18786624Y-12450434D02*
X18727093Y-12450434D01*
X27597257Y-13462466D02*
X27775851Y-13462466D01*
X31704917Y-14653092D02*
X35395857Y-14653092D01*
X25930381Y-7806993D02*
X25930380Y-8045118D01*
X35455393Y-8997618D02*
G75*
G03*
X35395857Y-8938087I-59533J-2D01*
G01*
X27835382Y-7747461D02*
X25989912Y-7747461D01*
X27835382Y-13402935D02*
X27835382Y-12986216D01*
X35395857Y-8938087D02*
X31645385Y-8938087D01*
X31585854Y-7747462D02*
X29740384Y-7747461D01*
X5273020Y-14653092D02*
X8963960Y-14653092D01*
X29740389Y-7330742D02*
G75*
G03*
X29680852Y-7271211I-59539J-8D01*
G01*
X29740384Y-12986215D02*
X29740383Y-13402935D01*
X21882252Y-8283243D02*
X21941784Y-8283243D01*
X23608660Y-16319969D02*
X25573193Y-15784187D01*
X18727093Y-13521998D02*
X18727093Y-13045747D01*
X22001315Y-17212938D02*
X23608660Y-16319969D01*
X25989912Y-7747461D02*
G75*
G03*
X25930381Y-7806993I8J-59539D01*
G01*
D11*
D12*
X6983485Y-9249082D02*
X7203485Y-9469082D01*
X7203485Y-9249082D02*
X6983485Y-9469082D01*
X6990485Y-13460082D02*
X7210485Y-13680082D01*
X7210485Y-13460082D02*
X6990485Y-13680082D01*
X10827485Y-8135082D02*
X11047485Y-8355082D01*
X11047485Y-8135082D02*
X10827485Y-8355082D01*
X12769485Y-11432082D02*
X12989485Y-11652082D01*
X12989485Y-11432082D02*
X12769485Y-11652082D01*
X17064557Y-11156468D02*
X17284557Y-11376468D01*
X17284557Y-11156468D02*
X17064557Y-11376468D01*
X17432485Y-14879082D02*
X17652485Y-15099082D01*
X17652485Y-14879082D02*
X17432485Y-15099082D01*
X23016380Y-14879090D02*
X23236380Y-15099090D01*
X23236380Y-14879090D02*
X23016380Y-15099090D01*
X23647445Y-11154113D02*
X23867445Y-11374113D01*
X23867445Y-11154113D02*
X23647445Y-11374113D01*
X27679379Y-11432089D02*
X27899379Y-11652089D01*
X27899379Y-11432089D02*
X27679379Y-11652089D01*
X29570852Y-9066213D02*
X29790852Y-9286213D01*
X29790852Y-9066213D02*
X29570852Y-9286213D01*
X33415985Y-13445582D02*
X33635985Y-13665582D01*
X33635985Y-13445582D02*
X33415985Y-13665582D01*
X33440387Y-9661526D02*
X33660387Y-9881526D01*
X33660387Y-9661526D02*
X33440387Y-9881526D01*
D11*
X5456107Y-17532291D02*
X5456107Y-17332291D01*
X5456107Y-17332291D02*
X5503726Y-17332291D01*
X5503726Y-17332291D02*
X5532297Y-17341815D01*
X5532297Y-17341815D02*
X5551345Y-17360863D01*
X5551345Y-17360863D02*
X5560869Y-17379910D01*
X5560869Y-17379910D02*
X5570392Y-17418005D01*
X5570392Y-17418005D02*
X5570392Y-17446577D01*
X5570392Y-17446577D02*
X5560869Y-17484672D01*
X5560869Y-17484672D02*
X5551345Y-17503720D01*
X5551345Y-17503720D02*
X5532297Y-17522767D01*
X5532297Y-17522767D02*
X5503726Y-17532291D01*
X5503726Y-17532291D02*
X5456107Y-17532291D01*
X5656107Y-17532291D02*
X5656107Y-17398958D01*
X5656107Y-17437053D02*
X5665630Y-17418005D01*
X5665630Y-17418005D02*
X5675154Y-17408482D01*
X5675154Y-17408482D02*
X5694202Y-17398958D01*
X5694202Y-17398958D02*
X5713250Y-17398958D01*
X5779916Y-17532291D02*
X5779916Y-17398958D01*
X5779916Y-17332291D02*
X5770392Y-17341815D01*
X5770392Y-17341815D02*
X5779916Y-17351339D01*
X5779916Y-17351339D02*
X5789440Y-17341815D01*
X5789440Y-17341815D02*
X5779916Y-17332291D01*
X5779916Y-17332291D02*
X5779916Y-17351339D01*
X5903726Y-17532291D02*
X5884678Y-17522767D01*
X5884678Y-17522767D02*
X5875154Y-17503720D01*
X5875154Y-17503720D02*
X5875154Y-17332291D01*
X6008488Y-17532291D02*
X5989440Y-17522767D01*
X5989440Y-17522767D02*
X5979916Y-17503720D01*
X5979916Y-17503720D02*
X5979916Y-17332291D01*
X6237059Y-17532291D02*
X6237059Y-17332291D01*
X6237059Y-17332291D02*
X6303726Y-17475148D01*
X6303726Y-17475148D02*
X6370392Y-17332291D01*
X6370392Y-17332291D02*
X6370392Y-17532291D01*
X6551345Y-17532291D02*
X6551345Y-17427529D01*
X6551345Y-17427529D02*
X6541821Y-17408482D01*
X6541821Y-17408482D02*
X6522773Y-17398958D01*
X6522773Y-17398958D02*
X6484678Y-17398958D01*
X6484678Y-17398958D02*
X6465630Y-17408482D01*
X6551345Y-17522767D02*
X6532297Y-17532291D01*
X6532297Y-17532291D02*
X6484678Y-17532291D01*
X6484678Y-17532291D02*
X6465630Y-17522767D01*
X6465630Y-17522767D02*
X6456107Y-17503720D01*
X6456107Y-17503720D02*
X6456107Y-17484672D01*
X6456107Y-17484672D02*
X6465630Y-17465625D01*
X6465630Y-17465625D02*
X6484678Y-17456101D01*
X6484678Y-17456101D02*
X6532297Y-17456101D01*
X6532297Y-17456101D02*
X6551345Y-17446577D01*
X6646583Y-17398958D02*
X6646583Y-17598958D01*
X6646583Y-17408482D02*
X6665630Y-17398958D01*
X6665630Y-17398958D02*
X6703726Y-17398958D01*
X6703726Y-17398958D02*
X6722773Y-17408482D01*
X6722773Y-17408482D02*
X6732297Y-17418005D01*
X6732297Y-17418005D02*
X6741821Y-17437053D01*
X6741821Y-17437053D02*
X6741821Y-17494196D01*
X6741821Y-17494196D02*
X6732297Y-17513244D01*
X6732297Y-17513244D02*
X6722773Y-17522767D01*
X6722773Y-17522767D02*
X6703726Y-17532291D01*
X6703726Y-17532291D02*
X6665630Y-17532291D01*
X6665630Y-17532291D02*
X6646583Y-17522767D01*
X6827535Y-17513244D02*
X6837059Y-17522767D01*
X6837059Y-17522767D02*
X6827535Y-17532291D01*
X6827535Y-17532291D02*
X6818011Y-17522767D01*
X6818011Y-17522767D02*
X6827535Y-17513244D01*
X6827535Y-17513244D02*
X6827535Y-17532291D01*
X6827535Y-17408482D02*
X6837059Y-17418005D01*
X6837059Y-17418005D02*
X6827535Y-17427529D01*
X6827535Y-17427529D02*
X6818011Y-17418005D01*
X6818011Y-17418005D02*
X6827535Y-17408482D01*
X6827535Y-17408482D02*
X6827535Y-17427529D01*
X5008488Y-17759767D02*
X5208488Y-17959767D01*
X5208488Y-17759767D02*
X5008488Y-17959767D01*
X5446583Y-17771339D02*
X5456107Y-17761815D01*
X5456107Y-17761815D02*
X5475154Y-17752291D01*
X5475154Y-17752291D02*
X5522773Y-17752291D01*
X5522773Y-17752291D02*
X5541821Y-17761815D01*
X5541821Y-17761815D02*
X5551345Y-17771339D01*
X5551345Y-17771339D02*
X5560869Y-17790386D01*
X5560869Y-17790386D02*
X5560869Y-17809434D01*
X5560869Y-17809434D02*
X5551345Y-17838005D01*
X5551345Y-17838005D02*
X5437059Y-17952291D01*
X5437059Y-17952291D02*
X5560869Y-17952291D01*
X5646583Y-17933244D02*
X5656107Y-17942767D01*
X5656107Y-17942767D02*
X5646583Y-17952291D01*
X5646583Y-17952291D02*
X5637059Y-17942767D01*
X5637059Y-17942767D02*
X5646583Y-17933244D01*
X5646583Y-17933244D02*
X5646583Y-17952291D01*
X5732297Y-17771339D02*
X5741821Y-17761815D01*
X5741821Y-17761815D02*
X5760869Y-17752291D01*
X5760869Y-17752291D02*
X5808488Y-17752291D01*
X5808488Y-17752291D02*
X5827535Y-17761815D01*
X5827535Y-17761815D02*
X5837059Y-17771339D01*
X5837059Y-17771339D02*
X5846583Y-17790386D01*
X5846583Y-17790386D02*
X5846583Y-17809434D01*
X5846583Y-17809434D02*
X5837059Y-17838005D01*
X5837059Y-17838005D02*
X5722773Y-17952291D01*
X5722773Y-17952291D02*
X5846583Y-17952291D01*
X5970392Y-17752291D02*
X5989440Y-17752291D01*
X5989440Y-17752291D02*
X6008488Y-17761815D01*
X6008488Y-17761815D02*
X6018011Y-17771339D01*
X6018011Y-17771339D02*
X6027535Y-17790386D01*
X6027535Y-17790386D02*
X6037059Y-17828482D01*
X6037059Y-17828482D02*
X6037059Y-17876101D01*
X6037059Y-17876101D02*
X6027535Y-17914196D01*
X6027535Y-17914196D02*
X6018011Y-17933244D01*
X6018011Y-17933244D02*
X6008488Y-17942767D01*
X6008488Y-17942767D02*
X5989440Y-17952291D01*
X5989440Y-17952291D02*
X5970392Y-17952291D01*
X5970392Y-17952291D02*
X5951345Y-17942767D01*
X5951345Y-17942767D02*
X5941821Y-17933244D01*
X5941821Y-17933244D02*
X5932297Y-17914196D01*
X5932297Y-17914196D02*
X5922773Y-17876101D01*
X5922773Y-17876101D02*
X5922773Y-17828482D01*
X5922773Y-17828482D02*
X5932297Y-17790386D01*
X5932297Y-17790386D02*
X5941821Y-17771339D01*
X5941821Y-17771339D02*
X5951345Y-17761815D01*
X5951345Y-17761815D02*
X5970392Y-17752291D01*
X6160869Y-17752291D02*
X6179916Y-17752291D01*
X6179916Y-17752291D02*
X6198964Y-17761815D01*
X6198964Y-17761815D02*
X6208488Y-17771339D01*
X6208488Y-17771339D02*
X6218011Y-17790386D01*
X6218011Y-17790386D02*
X6227535Y-17828482D01*
X6227535Y-17828482D02*
X6227535Y-17876101D01*
X6227535Y-17876101D02*
X6218011Y-17914196D01*
X6218011Y-17914196D02*
X6208488Y-17933244D01*
X6208488Y-17933244D02*
X6198964Y-17942767D01*
X6198964Y-17942767D02*
X6179916Y-17952291D01*
X6179916Y-17952291D02*
X6160869Y-17952291D01*
X6160869Y-17952291D02*
X6141821Y-17942767D01*
X6141821Y-17942767D02*
X6132297Y-17933244D01*
X6132297Y-17933244D02*
X6122773Y-17914196D01*
X6122773Y-17914196D02*
X6113250Y-17876101D01*
X6113250Y-17876101D02*
X6113250Y-17828482D01*
X6113250Y-17828482D02*
X6122773Y-17790386D01*
X6122773Y-17790386D02*
X6132297Y-17771339D01*
X6132297Y-17771339D02*
X6141821Y-17761815D01*
X6141821Y-17761815D02*
X6160869Y-17752291D01*
X6313250Y-17952291D02*
X6313250Y-17818958D01*
X6313250Y-17838005D02*
X6322773Y-17828482D01*
X6322773Y-17828482D02*
X6341821Y-17818958D01*
X6341821Y-17818958D02*
X6370392Y-17818958D01*
X6370392Y-17818958D02*
X6389440Y-17828482D01*
X6389440Y-17828482D02*
X6398964Y-17847529D01*
X6398964Y-17847529D02*
X6398964Y-17952291D01*
X6398964Y-17847529D02*
X6408488Y-17828482D01*
X6408488Y-17828482D02*
X6427535Y-17818958D01*
X6427535Y-17818958D02*
X6456107Y-17818958D01*
X6456107Y-17818958D02*
X6475154Y-17828482D01*
X6475154Y-17828482D02*
X6484678Y-17847529D01*
X6484678Y-17847529D02*
X6484678Y-17952291D01*
X6579916Y-17952291D02*
X6579916Y-17818958D01*
X6579916Y-17838005D02*
X6589440Y-17828482D01*
X6589440Y-17828482D02*
X6608488Y-17818958D01*
X6608488Y-17818958D02*
X6637059Y-17818958D01*
X6637059Y-17818958D02*
X6656107Y-17828482D01*
X6656107Y-17828482D02*
X6665631Y-17847529D01*
X6665631Y-17847529D02*
X6665631Y-17952291D01*
X6665631Y-17847529D02*
X6675154Y-17828482D01*
X6675154Y-17828482D02*
X6694202Y-17818958D01*
X6694202Y-17818958D02*
X6722773Y-17818958D01*
X6722773Y-17818958D02*
X6741821Y-17828482D01*
X6741821Y-17828482D02*
X6751345Y-17847529D01*
X6751345Y-17847529D02*
X6751345Y-17952291D01*
X7141821Y-17742767D02*
X6970393Y-17999910D01*
X7398964Y-17752291D02*
X7418012Y-17752291D01*
X7418012Y-17752291D02*
X7437059Y-17761815D01*
X7437059Y-17761815D02*
X7446583Y-17771339D01*
X7446583Y-17771339D02*
X7456107Y-17790386D01*
X7456107Y-17790386D02*
X7465631Y-17828482D01*
X7465631Y-17828482D02*
X7465631Y-17876101D01*
X7465631Y-17876101D02*
X7456107Y-17914196D01*
X7456107Y-17914196D02*
X7446583Y-17933244D01*
X7446583Y-17933244D02*
X7437059Y-17942767D01*
X7437059Y-17942767D02*
X7418012Y-17952291D01*
X7418012Y-17952291D02*
X7398964Y-17952291D01*
X7398964Y-17952291D02*
X7379916Y-17942767D01*
X7379916Y-17942767D02*
X7370393Y-17933244D01*
X7370393Y-17933244D02*
X7360869Y-17914196D01*
X7360869Y-17914196D02*
X7351345Y-17876101D01*
X7351345Y-17876101D02*
X7351345Y-17828482D01*
X7351345Y-17828482D02*
X7360869Y-17790386D01*
X7360869Y-17790386D02*
X7370393Y-17771339D01*
X7370393Y-17771339D02*
X7379916Y-17761815D01*
X7379916Y-17761815D02*
X7398964Y-17752291D01*
X7551345Y-17933244D02*
X7560869Y-17942767D01*
X7560869Y-17942767D02*
X7551345Y-17952291D01*
X7551345Y-17952291D02*
X7541821Y-17942767D01*
X7541821Y-17942767D02*
X7551345Y-17933244D01*
X7551345Y-17933244D02*
X7551345Y-17952291D01*
X7684678Y-17752291D02*
X7703726Y-17752291D01*
X7703726Y-17752291D02*
X7722774Y-17761815D01*
X7722774Y-17761815D02*
X7732297Y-17771339D01*
X7732297Y-17771339D02*
X7741821Y-17790386D01*
X7741821Y-17790386D02*
X7751345Y-17828482D01*
X7751345Y-17828482D02*
X7751345Y-17876101D01*
X7751345Y-17876101D02*
X7741821Y-17914196D01*
X7741821Y-17914196D02*
X7732297Y-17933244D01*
X7732297Y-17933244D02*
X7722774Y-17942767D01*
X7722774Y-17942767D02*
X7703726Y-17952291D01*
X7703726Y-17952291D02*
X7684678Y-17952291D01*
X7684678Y-17952291D02*
X7665631Y-17942767D01*
X7665631Y-17942767D02*
X7656107Y-17933244D01*
X7656107Y-17933244D02*
X7646583Y-17914196D01*
X7646583Y-17914196D02*
X7637059Y-17876101D01*
X7637059Y-17876101D02*
X7637059Y-17828482D01*
X7637059Y-17828482D02*
X7646583Y-17790386D01*
X7646583Y-17790386D02*
X7656107Y-17771339D01*
X7656107Y-17771339D02*
X7665631Y-17761815D01*
X7665631Y-17761815D02*
X7684678Y-17752291D01*
X7865631Y-17838005D02*
X7846583Y-17828482D01*
X7846583Y-17828482D02*
X7837059Y-17818958D01*
X7837059Y-17818958D02*
X7827535Y-17799910D01*
X7827535Y-17799910D02*
X7827535Y-17790386D01*
X7827535Y-17790386D02*
X7837059Y-17771339D01*
X7837059Y-17771339D02*
X7846583Y-17761815D01*
X7846583Y-17761815D02*
X7865631Y-17752291D01*
X7865631Y-17752291D02*
X7903726Y-17752291D01*
X7903726Y-17752291D02*
X7922774Y-17761815D01*
X7922774Y-17761815D02*
X7932297Y-17771339D01*
X7932297Y-17771339D02*
X7941821Y-17790386D01*
X7941821Y-17790386D02*
X7941821Y-17799910D01*
X7941821Y-17799910D02*
X7932297Y-17818958D01*
X7932297Y-17818958D02*
X7922774Y-17828482D01*
X7922774Y-17828482D02*
X7903726Y-17838005D01*
X7903726Y-17838005D02*
X7865631Y-17838005D01*
X7865631Y-17838005D02*
X7846583Y-17847529D01*
X7846583Y-17847529D02*
X7837059Y-17857053D01*
X7837059Y-17857053D02*
X7827535Y-17876101D01*
X7827535Y-17876101D02*
X7827535Y-17914196D01*
X7827535Y-17914196D02*
X7837059Y-17933244D01*
X7837059Y-17933244D02*
X7846583Y-17942767D01*
X7846583Y-17942767D02*
X7865631Y-17952291D01*
X7865631Y-17952291D02*
X7903726Y-17952291D01*
X7903726Y-17952291D02*
X7922774Y-17942767D01*
X7922774Y-17942767D02*
X7932297Y-17933244D01*
X7932297Y-17933244D02*
X7941821Y-17914196D01*
X7941821Y-17914196D02*
X7941821Y-17876101D01*
X7941821Y-17876101D02*
X7932297Y-17857053D01*
X7932297Y-17857053D02*
X7922774Y-17847529D01*
X7922774Y-17847529D02*
X7903726Y-17838005D01*
X8113250Y-17752291D02*
X8075154Y-17752291D01*
X8075154Y-17752291D02*
X8056107Y-17761815D01*
X8056107Y-17761815D02*
X8046583Y-17771339D01*
X8046583Y-17771339D02*
X8027535Y-17799910D01*
X8027535Y-17799910D02*
X8018012Y-17838005D01*
X8018012Y-17838005D02*
X8018012Y-17914196D01*
X8018012Y-17914196D02*
X8027535Y-17933244D01*
X8027535Y-17933244D02*
X8037059Y-17942767D01*
X8037059Y-17942767D02*
X8056107Y-17952291D01*
X8056107Y-17952291D02*
X8094202Y-17952291D01*
X8094202Y-17952291D02*
X8113250Y-17942767D01*
X8113250Y-17942767D02*
X8122774Y-17933244D01*
X8122774Y-17933244D02*
X8132297Y-17914196D01*
X8132297Y-17914196D02*
X8132297Y-17866577D01*
X8132297Y-17866577D02*
X8122774Y-17847529D01*
X8122774Y-17847529D02*
X8113250Y-17838005D01*
X8113250Y-17838005D02*
X8094202Y-17828482D01*
X8094202Y-17828482D02*
X8056107Y-17828482D01*
X8056107Y-17828482D02*
X8037059Y-17838005D01*
X8037059Y-17838005D02*
X8027535Y-17847529D01*
X8027535Y-17847529D02*
X8018012Y-17866577D01*
X8303726Y-17752291D02*
X8265631Y-17752291D01*
X8265631Y-17752291D02*
X8246583Y-17761815D01*
X8246583Y-17761815D02*
X8237059Y-17771339D01*
X8237059Y-17771339D02*
X8218012Y-17799910D01*
X8218012Y-17799910D02*
X8208488Y-17838005D01*
X8208488Y-17838005D02*
X8208488Y-17914196D01*
X8208488Y-17914196D02*
X8218012Y-17933244D01*
X8218012Y-17933244D02*
X8227535Y-17942767D01*
X8227535Y-17942767D02*
X8246583Y-17952291D01*
X8246583Y-17952291D02*
X8284678Y-17952291D01*
X8284678Y-17952291D02*
X8303726Y-17942767D01*
X8303726Y-17942767D02*
X8313250Y-17933244D01*
X8313250Y-17933244D02*
X8322774Y-17914196D01*
X8322774Y-17914196D02*
X8322774Y-17866577D01*
X8322774Y-17866577D02*
X8313250Y-17847529D01*
X8313250Y-17847529D02*
X8303726Y-17838005D01*
X8303726Y-17838005D02*
X8284678Y-17828482D01*
X8284678Y-17828482D02*
X8246583Y-17828482D01*
X8246583Y-17828482D02*
X8227535Y-17838005D01*
X8227535Y-17838005D02*
X8218012Y-17847529D01*
X8218012Y-17847529D02*
X8208488Y-17866577D01*
X8398964Y-17752291D02*
X8398964Y-17790386D01*
X8475155Y-17752291D02*
X8475155Y-17790386D01*
X8770393Y-18028482D02*
X8760869Y-18018958D01*
X8760869Y-18018958D02*
X8741821Y-17990386D01*
X8741821Y-17990386D02*
X8732298Y-17971339D01*
X8732298Y-17971339D02*
X8722774Y-17942767D01*
X8722774Y-17942767D02*
X8713250Y-17895148D01*
X8713250Y-17895148D02*
X8713250Y-17857053D01*
X8713250Y-17857053D02*
X8722774Y-17809434D01*
X8722774Y-17809434D02*
X8732298Y-17780863D01*
X8732298Y-17780863D02*
X8741821Y-17761815D01*
X8741821Y-17761815D02*
X8760869Y-17733244D01*
X8760869Y-17733244D02*
X8770393Y-17723720D01*
X8951345Y-17952291D02*
X8837059Y-17952291D01*
X8894202Y-17952291D02*
X8894202Y-17752291D01*
X8894202Y-17752291D02*
X8875155Y-17780863D01*
X8875155Y-17780863D02*
X8856107Y-17799910D01*
X8856107Y-17799910D02*
X8837059Y-17809434D01*
X9027536Y-17771339D02*
X9037059Y-17761815D01*
X9037059Y-17761815D02*
X9056107Y-17752291D01*
X9056107Y-17752291D02*
X9103726Y-17752291D01*
X9103726Y-17752291D02*
X9122774Y-17761815D01*
X9122774Y-17761815D02*
X9132298Y-17771339D01*
X9132298Y-17771339D02*
X9141821Y-17790386D01*
X9141821Y-17790386D02*
X9141821Y-17809434D01*
X9141821Y-17809434D02*
X9132298Y-17838005D01*
X9132298Y-17838005D02*
X9018012Y-17952291D01*
X9018012Y-17952291D02*
X9141821Y-17952291D01*
X9379917Y-17952291D02*
X9379917Y-17752291D01*
X9465631Y-17952291D02*
X9465631Y-17847529D01*
X9465631Y-17847529D02*
X9456107Y-17828482D01*
X9456107Y-17828482D02*
X9437060Y-17818958D01*
X9437060Y-17818958D02*
X9408488Y-17818958D01*
X9408488Y-17818958D02*
X9389440Y-17828482D01*
X9389440Y-17828482D02*
X9379917Y-17838005D01*
X9589440Y-17952291D02*
X9570393Y-17942767D01*
X9570393Y-17942767D02*
X9560869Y-17933244D01*
X9560869Y-17933244D02*
X9551345Y-17914196D01*
X9551345Y-17914196D02*
X9551345Y-17857053D01*
X9551345Y-17857053D02*
X9560869Y-17838005D01*
X9560869Y-17838005D02*
X9570393Y-17828482D01*
X9570393Y-17828482D02*
X9589440Y-17818958D01*
X9589440Y-17818958D02*
X9618012Y-17818958D01*
X9618012Y-17818958D02*
X9637060Y-17828482D01*
X9637060Y-17828482D02*
X9646583Y-17838005D01*
X9646583Y-17838005D02*
X9656107Y-17857053D01*
X9656107Y-17857053D02*
X9656107Y-17914196D01*
X9656107Y-17914196D02*
X9646583Y-17933244D01*
X9646583Y-17933244D02*
X9637060Y-17942767D01*
X9637060Y-17942767D02*
X9618012Y-17952291D01*
X9618012Y-17952291D02*
X9589440Y-17952291D01*
X9770393Y-17952291D02*
X9751345Y-17942767D01*
X9751345Y-17942767D02*
X9741821Y-17923720D01*
X9741821Y-17923720D02*
X9741821Y-17752291D01*
X9922774Y-17942767D02*
X9903726Y-17952291D01*
X9903726Y-17952291D02*
X9865631Y-17952291D01*
X9865631Y-17952291D02*
X9846583Y-17942767D01*
X9846583Y-17942767D02*
X9837060Y-17923720D01*
X9837060Y-17923720D02*
X9837060Y-17847529D01*
X9837060Y-17847529D02*
X9846583Y-17828482D01*
X9846583Y-17828482D02*
X9865631Y-17818958D01*
X9865631Y-17818958D02*
X9903726Y-17818958D01*
X9903726Y-17818958D02*
X9922774Y-17828482D01*
X9922774Y-17828482D02*
X9932298Y-17847529D01*
X9932298Y-17847529D02*
X9932298Y-17866577D01*
X9932298Y-17866577D02*
X9837060Y-17885625D01*
X10008488Y-17942767D02*
X10027536Y-17952291D01*
X10027536Y-17952291D02*
X10065631Y-17952291D01*
X10065631Y-17952291D02*
X10084679Y-17942767D01*
X10084679Y-17942767D02*
X10094202Y-17923720D01*
X10094202Y-17923720D02*
X10094202Y-17914196D01*
X10094202Y-17914196D02*
X10084679Y-17895148D01*
X10084679Y-17895148D02*
X10065631Y-17885625D01*
X10065631Y-17885625D02*
X10037060Y-17885625D01*
X10037060Y-17885625D02*
X10018012Y-17876101D01*
X10018012Y-17876101D02*
X10008488Y-17857053D01*
X10008488Y-17857053D02*
X10008488Y-17847529D01*
X10008488Y-17847529D02*
X10018012Y-17828482D01*
X10018012Y-17828482D02*
X10037060Y-17818958D01*
X10037060Y-17818958D02*
X10065631Y-17818958D01*
X10065631Y-17818958D02*
X10084679Y-17828482D01*
X10160869Y-18028482D02*
X10170393Y-18018958D01*
X10170393Y-18018958D02*
X10189441Y-17990386D01*
X10189441Y-17990386D02*
X10198964Y-17971339D01*
X10198964Y-17971339D02*
X10208488Y-17942767D01*
X10208488Y-17942767D02*
X10218012Y-17895148D01*
X10218012Y-17895148D02*
X10218012Y-17857053D01*
X10218012Y-17857053D02*
X10208488Y-17809434D01*
X10208488Y-17809434D02*
X10198964Y-17780863D01*
X10198964Y-17780863D02*
X10189441Y-17761815D01*
X10189441Y-17761815D02*
X10170393Y-17733244D01*
X10170393Y-17733244D02*
X10160869Y-17723720D01*
M02*
