%TF.GenerationSoftware,KiCad,Pcbnew,7.0.2-6a45011f42~172~ubuntu22.04.1*%
%TF.CreationDate,2023-05-03T16:22:18+02:00*%
%TF.ProjectId,bottom,626f7474-6f6d-42e6-9b69-6361645f7063,rev?*%
%TF.SameCoordinates,Original*%
%TF.FileFunction,Legend,Top*%
%TF.FilePolarity,Positive*%
%FSLAX46Y46*%
G04 Gerber Fmt 4.6, Leading zero omitted, Abs format (unit mm)*
G04 Created by KiCad (PCBNEW 7.0.2-6a45011f42~172~ubuntu22.04.1) date 2023-05-03 16:22:18*
%MOMM*%
%LPD*%
G01*
G04 APERTURE LIST*
%ADD10C,0.150000*%
G04 APERTURE END LIST*
D10*
X198115800Y-84268444D02*
X198115800Y-84982729D01*
X198115800Y-84982729D02*
X198068181Y-85125586D01*
X198068181Y-85125586D02*
X197972943Y-85220825D01*
X197972943Y-85220825D02*
X197830086Y-85268444D01*
X197830086Y-85268444D02*
X197734848Y-85268444D01*
X199068181Y-85268444D02*
X198591991Y-85268444D01*
X198591991Y-85268444D02*
X198591991Y-84268444D01*
X199972943Y-85173205D02*
X199925324Y-85220825D01*
X199925324Y-85220825D02*
X199782467Y-85268444D01*
X199782467Y-85268444D02*
X199687229Y-85268444D01*
X199687229Y-85268444D02*
X199544372Y-85220825D01*
X199544372Y-85220825D02*
X199449134Y-85125586D01*
X199449134Y-85125586D02*
X199401515Y-85030348D01*
X199401515Y-85030348D02*
X199353896Y-84839872D01*
X199353896Y-84839872D02*
X199353896Y-84697015D01*
X199353896Y-84697015D02*
X199401515Y-84506539D01*
X199401515Y-84506539D02*
X199449134Y-84411301D01*
X199449134Y-84411301D02*
X199544372Y-84316063D01*
X199544372Y-84316063D02*
X199687229Y-84268444D01*
X199687229Y-84268444D02*
X199782467Y-84268444D01*
X199782467Y-84268444D02*
X199925324Y-84316063D01*
X199925324Y-84316063D02*
X199972943Y-84363682D01*
X200687229Y-84268444D02*
X200687229Y-84982729D01*
X200687229Y-84982729D02*
X200639610Y-85125586D01*
X200639610Y-85125586D02*
X200544372Y-85220825D01*
X200544372Y-85220825D02*
X200401515Y-85268444D01*
X200401515Y-85268444D02*
X200306277Y-85268444D01*
X201639610Y-85268444D02*
X201163420Y-85268444D01*
X201163420Y-85268444D02*
X201163420Y-84268444D01*
X202544372Y-85173205D02*
X202496753Y-85220825D01*
X202496753Y-85220825D02*
X202353896Y-85268444D01*
X202353896Y-85268444D02*
X202258658Y-85268444D01*
X202258658Y-85268444D02*
X202115801Y-85220825D01*
X202115801Y-85220825D02*
X202020563Y-85125586D01*
X202020563Y-85125586D02*
X201972944Y-85030348D01*
X201972944Y-85030348D02*
X201925325Y-84839872D01*
X201925325Y-84839872D02*
X201925325Y-84697015D01*
X201925325Y-84697015D02*
X201972944Y-84506539D01*
X201972944Y-84506539D02*
X202020563Y-84411301D01*
X202020563Y-84411301D02*
X202115801Y-84316063D01*
X202115801Y-84316063D02*
X202258658Y-84268444D01*
X202258658Y-84268444D02*
X202353896Y-84268444D01*
X202353896Y-84268444D02*
X202496753Y-84316063D01*
X202496753Y-84316063D02*
X202544372Y-84363682D01*
X203258658Y-84268444D02*
X203258658Y-84982729D01*
X203258658Y-84982729D02*
X203211039Y-85125586D01*
X203211039Y-85125586D02*
X203115801Y-85220825D01*
X203115801Y-85220825D02*
X202972944Y-85268444D01*
X202972944Y-85268444D02*
X202877706Y-85268444D01*
X204211039Y-85268444D02*
X203734849Y-85268444D01*
X203734849Y-85268444D02*
X203734849Y-84268444D01*
X205115801Y-85173205D02*
X205068182Y-85220825D01*
X205068182Y-85220825D02*
X204925325Y-85268444D01*
X204925325Y-85268444D02*
X204830087Y-85268444D01*
X204830087Y-85268444D02*
X204687230Y-85220825D01*
X204687230Y-85220825D02*
X204591992Y-85125586D01*
X204591992Y-85125586D02*
X204544373Y-85030348D01*
X204544373Y-85030348D02*
X204496754Y-84839872D01*
X204496754Y-84839872D02*
X204496754Y-84697015D01*
X204496754Y-84697015D02*
X204544373Y-84506539D01*
X204544373Y-84506539D02*
X204591992Y-84411301D01*
X204591992Y-84411301D02*
X204687230Y-84316063D01*
X204687230Y-84316063D02*
X204830087Y-84268444D01*
X204830087Y-84268444D02*
X204925325Y-84268444D01*
X204925325Y-84268444D02*
X205068182Y-84316063D01*
X205068182Y-84316063D02*
X205115801Y-84363682D01*
X205830087Y-84268444D02*
X205830087Y-84982729D01*
X205830087Y-84982729D02*
X205782468Y-85125586D01*
X205782468Y-85125586D02*
X205687230Y-85220825D01*
X205687230Y-85220825D02*
X205544373Y-85268444D01*
X205544373Y-85268444D02*
X205449135Y-85268444D01*
X206782468Y-85268444D02*
X206306278Y-85268444D01*
X206306278Y-85268444D02*
X206306278Y-84268444D01*
X207687230Y-85173205D02*
X207639611Y-85220825D01*
X207639611Y-85220825D02*
X207496754Y-85268444D01*
X207496754Y-85268444D02*
X207401516Y-85268444D01*
X207401516Y-85268444D02*
X207258659Y-85220825D01*
X207258659Y-85220825D02*
X207163421Y-85125586D01*
X207163421Y-85125586D02*
X207115802Y-85030348D01*
X207115802Y-85030348D02*
X207068183Y-84839872D01*
X207068183Y-84839872D02*
X207068183Y-84697015D01*
X207068183Y-84697015D02*
X207115802Y-84506539D01*
X207115802Y-84506539D02*
X207163421Y-84411301D01*
X207163421Y-84411301D02*
X207258659Y-84316063D01*
X207258659Y-84316063D02*
X207401516Y-84268444D01*
X207401516Y-84268444D02*
X207496754Y-84268444D01*
X207496754Y-84268444D02*
X207639611Y-84316063D01*
X207639611Y-84316063D02*
X207687230Y-84363682D01*
M02*
